<svg xmlns="http://www.w3.org/2000/svg" width="15.729" height="14.287" viewBox="0 0 15.729 14.287">
  <g id="Group_69368" data-name="Group 69368" transform="translate(-1670.5 -3895.864)">
    <path id="Line_219" data-name="Line 219" d="M13.728,1H0A1,1,0,0,1-1,0,1,1,0,0,1,0-1H13.728a1,1,0,0,1,1,1A1,1,0,0,1,13.728,1Z" transform="translate(1671.5 3903.007)"/>
    <path id="Path_5318" data-name="Path 5318" d="M13671.162,4263.643a1,1,0,0,1-.707-1.707l5.438-5.436-5.437-5.437a1,1,0,0,1,1.414-1.414l6.145,6.144a1,1,0,0,1,0,1.414l-6.145,6.143A1,1,0,0,1,13671.162,4263.643Z" transform="translate(-11992.078 -353.492)"/>
  </g>
</svg>
