<svg xmlns="http://www.w3.org/2000/svg" xmlns:xlink="http://www.w3.org/1999/xlink" width="23" height="23" viewBox="0 0 23 23">
  <defs>
    <clipPath id="clip-path">
      <rect id="Rectangle_23043" data-name="Rectangle 23043" width="23" height="23" transform="translate(-717 -5780)" fill="#fff" stroke="#707070" stroke-width="1"/>
    </clipPath>
  </defs>
  <g id="area_fill" transform="translate(717 5780)" clip-path="url(#clip-path)">
    <g id="Group_67347" data-name="Group 67347" transform="translate(-714.113 -5777.125)">
      <path id="Exclusion_2" data-name="Exclusion 2" d="M14.743,17.743H3a3,3,0,0,1-3-3V3A3,3,0,0,1,3,0H14.743a3,3,0,0,1,3,3V14.743A3,3,0,0,1,14.743,17.743ZM4.781,7.44A1.117,1.117,0,0,0,3.665,8.556v4.463a1.117,1.117,0,0,0,1.116,1.116H9.243a1.116,1.116,0,1,0,0-2.231H5.9V8.556A1.117,1.117,0,0,0,4.781,7.44ZM8.218,3.581a1.116,1.116,0,1,0,0,2.232h3.629V9.445a1.115,1.115,0,1,0,2.23,0V4.7a1.117,1.117,0,0,0-1.115-1.116Z" transform="translate(-0.259 -0.247)"/>
    </g>
  </g>
</svg>
