<svg xmlns="http://www.w3.org/2000/svg" xmlns:xlink="http://www.w3.org/1999/xlink" width="18" height="18" viewBox="0 0 18 18">
  <defs>
    <clipPath id="clip-path">
      <rect id="Rectangle_22643" data-name="Rectangle 22643" width="18" height="18" transform="translate(3955 194)" fill="#fff"/>
    </clipPath>
  </defs>
  <g id="arrow-top" transform="translate(-3955 -194)" clip-path="url(#clip-path)">
    <g id="Icon_feather-arrow-right" data-name="Icon feather-arrow-right" transform="translate(3938.393 202.85) rotate(-45)">
      <path id="Path_15736" data-name="Path 15736" d="M28.5,19H7.5a1,1,0,0,1,0-2h21a1,1,0,0,1,0,2Z"/>
      <path id="Path_15737" data-name="Path 15737" d="M18,29.5a1,1,0,0,1-.707-1.707L27.086,18,17.293,8.207a1,1,0,0,1,1.414-1.414l10.5,10.5a1,1,0,0,1,0,1.414l-10.5,10.5A1,1,0,0,1,18,29.5Z"/>
    </g>
  </g>
</svg>
