<svg xmlns="http://www.w3.org/2000/svg" width="15.736" height="14.287" viewBox="0 0 15.736 14.287">
  <g id="arrow-left" transform="translate(1.007 1.002)">
    <path id="Line_219" data-name="Line 219" d="M13.728,1H0A1,1,0,0,1-1,0,1,1,0,0,1,0-1H13.728a1,1,0,0,1,1,1A1,1,0,0,1,13.728,1Z" transform="translate(0.001 6.144)"/>
    <path id="Path_5318" data-name="Path 5318" d="M13677.3,4263.64a1,1,0,0,1-.707-.293l-6.145-6.143a1,1,0,0,1,0-1.414l6.145-6.144a1,1,0,0,1,1.414,1.414l-5.437,5.437,5.438,5.436a1,1,0,0,1-.707,1.707Z" transform="translate(-13671.162 -4250.355)"/>
  </g>
</svg>
