<svg xmlns="http://www.w3.org/2000/svg" width="15.769" height="14.287" viewBox="0 0 15.769 14.287">
  <g id="arrow-right" transform="translate(-1670.5 -3895.861)">
    <path id="Line_219" data-name="Line 219" d="M13.728,1H0A1,1,0,0,1-1,0,1,1,0,0,1,0-1H13.728a1,1,0,0,1,1,1A1,1,0,0,1,13.728,1Z" transform="translate(1671.5 3903.007)"/>
    <path id="Path_5318" data-name="Path 5318" d="M13671.2,4263.64a1,1,0,0,1-.707-1.707l5.438-5.436-5.437-5.437a1,1,0,0,1,1.414-1.414l6.145,6.144a1,1,0,0,1,0,1.414l-6.145,6.143A1,1,0,0,1,13671.2,4263.64Z" transform="translate(-11992.078 -353.492)"/>
  </g>
</svg>
