<svg xmlns="http://www.w3.org/2000/svg" width="30.845" height="30.846" viewBox="0 0 30.845 30.846">
  <g id="Group_72359" data-name="Group 72359" transform="translate(-849.269 -605.269)">
    <g id="noun-certified-3559933" transform="translate(850 606)">
      <path id="Path_108759" data-name="Path 108759" d="M136.477,47.951c-.324-1.318-1.827-2.034-2.485-3.085-1.008-2.444-.325-4.046-3.68-4.662h0a5.268,5.268,0,0,1-1.444-.462c-1.052-.657-1.766-2.161-3.085-2.485-1.29-.365-2.672.585-3.914.612a5.393,5.393,0,0,1-1.518-.328c-3.181-1.133-3.408.584-5.481,2.2-1.091.591-2.757.461-3.693,1.432-.97.936-.843,2.6-1.431,3.693-1.605,2.064-3.339,2.3-2.2,5.481h0a5.394,5.394,0,0,1,.328,1.518c-.026,1.243-.978,2.624-.612,3.914.324,1.318,1.827,2.034,2.485,3.085a5.276,5.276,0,0,1,.462,1.444c.619,3.351,2.2,2.671,4.662,3.68,1.052.657,1.766,2.161,3.085,2.485,1.3.365,2.668-.585,3.914-.612,2.649.344,3.672,1.757,5.9-.869a5.2,5.2,0,0,1,1.1-1c1.09-.591,2.757-.461,3.693-1.432.97-.936.842-2.6,1.432-3.692a5.19,5.19,0,0,1,1-1.1c2.62-2.228,1.22-3.238.869-5.9.026-1.242.978-2.623.612-3.914Z" transform="translate(-107.177 -37.173)" fill="none" stroke="#000" stroke-linecap="round" stroke-linejoin="round" stroke-width="1.5"/>
    </g>
    <path id="Path_108760" data-name="Path 108760" d="M601.134,11272.148l3.327,3.33,7.512-7.451" transform="translate(258.138 -10651.059)" fill="none" stroke="#000" stroke-width="1.5"/>
  </g>
</svg>
