<svg xmlns="http://www.w3.org/2000/svg" width="23.483" height="23.527" viewBox="0 0 23.483 23.527">
  <path id="call" d="M22.939,25.777c-.089,0-.178,0-.267-.012h-.013a22.735,22.735,0,0,1-9.865-3.509A22.45,22.45,0,0,1,5.939,15.4,22.733,22.733,0,0,1,2.431,5.488V5.476A2.961,2.961,0,0,1,5.375,2.25H8.711a2.975,2.975,0,0,1,2.931,2.545V4.8a13.462,13.462,0,0,0,.733,2.942,2.969,2.969,0,0,1-.67,3.122l-.991.991a16.945,16.945,0,0,0,5.571,5.571l.989-.989a2.961,2.961,0,0,1,3.125-.672,13.46,13.46,0,0,0,2.941.733h.005a2.959,2.959,0,0,1,2.553,3v3.307a2.961,2.961,0,0,1-2.961,2.97Zm-.126-1.505c.042,0,.084.005.126.005A1.461,1.461,0,0,0,24.4,22.81V19.491q0-.01,0-.019a1.46,1.46,0,0,0-1.257-1.484,14.964,14.964,0,0,1-3.267-.815,1.461,1.461,0,0,0-1.542.33l-1.4,1.4a.75.75,0,0,1-.9.122,18.443,18.443,0,0,1-6.913-6.913.75.75,0,0,1,.122-.9l1.4-1.4a1.464,1.464,0,0,0,.328-1.539A14.965,14.965,0,0,1,10.157,5,1.468,1.468,0,0,0,8.711,3.75H5.376A1.461,1.461,0,0,0,3.924,5.337,21.224,21.224,0,0,0,7.2,14.584l0,.006a20.939,20.939,0,0,0,6.4,6.4l.006,0A21.227,21.227,0,0,0,22.813,24.272Z" transform="translate(-2.418 -2.25)" fill="#007864"/>
</svg>
