<svg xmlns="http://www.w3.org/2000/svg" xmlns:xlink="http://www.w3.org/1999/xlink" width="43" height="43" viewBox="0 0 43 43">
  <defs>
    <clipPath id="clip-path">
      <rect id="Rectangle_23546" data-name="Rectangle 23546" width="43" height="43" transform="translate(1389 529)" fill="none" stroke="#707070" stroke-width="1"/>
    </clipPath>
  </defs>
  <g id="Mask_Group_67443" data-name="Mask Group 67443" transform="translate(-1389 -529)" clip-path="url(#clip-path)">
    <path id="Path_116492" data-name="Path 116492" d="M10.91,8.757,9.214,7.7l2.468-3.944H1.805L4.274,7.7l-1.7,1.061L-.848,3.282A1,1,0,0,1-.875,2.267,1,1,0,0,1,0,1.752H13.488a1,1,0,0,1,.848,1.53Z" transform="translate(1399.821 528.417)"/>
    <g id="Group_71423" data-name="Group 71423" transform="translate(1403.117 546.934)">
      <path id="Line_905" data-name="Line 905" d="M0,3.534a1,1,0,0,1-1-1V0A1,1,0,0,1,0-1,1,1,0,0,1,1,0V2.534A1,1,0,0,1,0,3.534Z" transform="translate(3.447 13.032)"/>
      <path id="Line_906" data-name="Line 906" d="M0,3.534a1,1,0,0,1-1-1V0A1,1,0,0,1,0-1,1,1,0,0,1,1,0V2.534A1,1,0,0,1,0,3.534Z" transform="translate(3.447 -0.968)"/>
      <path id="Path_116489" data-name="Path 116489" d="M26.126,16.526H24.765a4.131,4.131,0,0,1-2.58-.867A3.022,3.022,0,0,1,21,13.314V12.77a1,1,0,0,1,2,0v.544c0,.657.808,1.212,1.765,1.212h1.361c.957,0,1.765-.555,1.765-1.212V12.225c0-.657-.808-1.212-1.765-1.212H24.765a4.131,4.131,0,0,1-2.58-.867A3.022,3.022,0,0,1,21,7.8V6.712a3.022,3.022,0,0,1,1.186-2.345,4.131,4.131,0,0,1,2.58-.867h1.361a4.131,4.131,0,0,1,2.58.867,3.022,3.022,0,0,1,1.186,2.345v.544a1,1,0,0,1-2,0V6.712c0-.657-.808-1.212-1.765-1.212H24.765C23.808,5.5,23,6.055,23,6.712V7.8c0,.657.808,1.212,1.765,1.212h1.361a4.131,4.131,0,0,1,2.58.867,3.022,3.022,0,0,1,1.186,2.345v1.089a3.022,3.022,0,0,1-1.186,2.345A4.131,4.131,0,0,1,26.126,16.526Z" transform="translate(-21.999 -2.574)"/>
    </g>
    <rect id="Rectangle_23547" data-name="Rectangle 23547" width="16.31" height="3.784" transform="translate(1398.249 536.643)" fill="#fff"/>
    <path id="Rectangle_23547_-_Outline" data-name="Rectangle 23547 - Outline" d="M0-1H16.31a1,1,0,0,1,1,1V3.784a1,1,0,0,1-1,1H0a1,1,0,0,1-1-1V0A1,1,0,0,1,0-1ZM15.31,1H1V2.784H15.31Z" transform="translate(1398.249 536.643)"/>
    <path id="Path_116493" data-name="Path 116493" d="M22419.754,6163.143h-.039a19.232,19.232,0,0,1-9.523-2.075c-3.256-1.824-5.42-4.9-6.436-9.141a12.593,12.593,0,0,1,.486-7.035,23.409,23.409,0,0,1,3.188-5.993,35.641,35.641,0,0,1,5.25-5.835l1.3,1.521a34.372,34.372,0,0,0-4.943,5.51c-2.066,2.9-4.322,7.227-3.332,11.367,1.578,6.6,6.031,9.671,14.018,9.68h.041c5.383,0,12.686-1.131,14.2-10.788.607-3.856-.77-7.653-4.092-11.284a25.354,25.354,0,0,0-5.291-4.379l1-1.731a27.03,27.03,0,0,1,5.768,4.761,19.384,19.384,0,0,1,3.65,5.553,13.48,13.48,0,0,1,.941,7.392c-.758,4.814-2.9,8.279-6.369,10.3C22427.057,6162.43,22423.844,6163.143,22419.754,6163.143Z" transform="translate(-21013.215 -5593.398)"/>
  </g>
</svg>
