<svg xmlns="http://www.w3.org/2000/svg" xmlns:xlink="http://www.w3.org/1999/xlink" width="43.964" height="43.964" viewBox="0 0 43.964 43.964">
  <defs>
    <clipPath id="clip-path">
      <rect id="Rectangle_22641" data-name="Rectangle 22641" width="43.964" height="43.964" transform="translate(0)" fill="#fff" stroke="#2f2f2f" stroke-width="1"/>
    </clipPath>
  </defs>
  <g id="Mask_Group_67310" data-name="Mask Group 67310" clip-path="url(#clip-path)">
    <g id="Group_70004" data-name="Group 70004" transform="translate(5.13 2.289)">
      <path id="Path_108378" data-name="Path 108378" d="M218.945,345.726a1.851,1.851,0,0,1,1.234.462l12.089,10.762H205.5l12.218-10.768A1.852,1.852,0,0,1,218.945,345.726Zm8.069,9.224-8.07-7.184-8.151,7.184Z" transform="translate(-201.59 -335.434)" fill="#2f2f2f"/>
      <path id="Rectangle_22640" data-name="Rectangle 22640" d="M2-1H31.7a3,3,0,0,1,3,3V16.87a3,3,0,0,1-3,3H2a3,3,0,0,1-3-3V2A3,3,0,0,1,2-1ZM31.7,17.87a1,1,0,0,0,1-1V2a1,1,0,0,0-1-1H2A1,1,0,0,0,1,2V16.87a1,1,0,0,0,1,1Z" transform="translate(0 20.516)" fill="#2f2f2f"/>
      <g id="Group_70003" data-name="Group 70003" transform="translate(12.456 27.111)">
        <path id="Line_348" data-name="Line 348" d="M0,9.122a1,1,0,0,1-1-1V0A1,1,0,0,1,0-1,1,1,0,0,1,1,0V8.122A1,1,0,0,1,0,9.122Z" transform="translate(10.737 0)" fill="#2f2f2f"/>
        <path id="Line_349" data-name="Line 349" d="M0,9.122a1,1,0,0,1-1-1V0A1,1,0,0,1,0-1,1,1,0,0,1,1,0V8.122A1,1,0,0,1,0,9.122Z" transform="translate(0 0.18)" fill="#2f2f2f"/>
      </g>
      <path id="Path_108379" data-name="Path 108379" d="M277.721,276.079q-.162,0-.325-.01a5.073,5.073,0,0,1-4.745-5.381,1,1,0,0,1,2,.125,3.073,3.073,0,1,0,3.259-2.874,1,1,0,1,1,.125-2,5.073,5.073,0,0,1-.311,10.136Z" transform="translate(-260.41 -263.78)" fill="#2f2f2f"/>
      <path id="Line_350" data-name="Line 350" d="M0,5.134H-.006A1,1,0,0,1-1,4.128L-.974-.006A1,1,0,0,1,.033-1,1,1,0,0,1,1.026.006L1,4.14A1,1,0,0,1,0,5.134Z" transform="translate(17.559 0)" fill="#2f2f2f"/>
    </g>
  </g>
</svg>
