<svg xmlns="http://www.w3.org/2000/svg" width="17.594" height="23.458" viewBox="0 0 17.594 23.458">
  <path id="Icon_awesome-file-pdf" data-name="Icon awesome-file-pdf" d="M8.334,11.734a4.42,4.42,0,0,1-.092-2.149C8.627,9.585,8.591,11.275,8.334,11.734ZM8.256,13.9a21.141,21.141,0,0,1-1.3,2.873,16.871,16.871,0,0,1,2.882-1A5.935,5.935,0,0,1,8.256,13.9ZM3.945,19.614c0,.037.6-.247,1.6-1.842A6.332,6.332,0,0,0,3.945,19.614ZM11.362,7.331h6.231V22.358a1.1,1.1,0,0,1-1.1,1.1H1.1a1.1,1.1,0,0,1-1.1-1.1V1.1A1.1,1.1,0,0,1,1.1,0h9.163V6.231A1.1,1.1,0,0,0,11.362,7.331ZM11,15.2A4.6,4.6,0,0,1,9.04,12.737,6.585,6.585,0,0,0,9.324,9.8a1.147,1.147,0,0,0-2.19-.312A7.618,7.618,0,0,0,7.5,13.012a43.023,43.023,0,0,1-1.869,3.931s0,0-.009,0c-1.242.637-3.372,2.039-2.5,3.116a1.424,1.424,0,0,0,.985.458c.82,0,1.636-.825,2.8-2.831a26.116,26.116,0,0,1,3.619-1.063,6.943,6.943,0,0,0,2.932.893,1.186,1.186,0,0,0,.9-1.988c-.637-.623-2.488-.444-3.372-.33ZM17.273,4.811,12.783.321A1.1,1.1,0,0,0,12,0h-.275V5.865h5.865V5.585A1.1,1.1,0,0,0,17.273,4.811Zm-3.395,11.7c.188-.124-.115-.545-1.961-.412C13.617,16.819,13.878,16.508,13.878,16.508Z" fill="#107864"/>
</svg>
