<svg xmlns="http://www.w3.org/2000/svg" xmlns:xlink="http://www.w3.org/1999/xlink" width="101.272" height="59.052" viewBox="0 0 101.272 59.052">
  <defs>
    <clipPath id="clip-path">
      <rect id="Rectangle_23436" data-name="Rectangle 23436" width="101.144" height="58.552" fill="#fff" stroke="#707070" stroke-width="1"/>
    </clipPath>
  </defs>
  <g id="Group_71790" data-name="Group 71790" transform="translate(0.065 20.405)">
    <g id="Group_71260" data-name="Group 71260" transform="translate(0 -19.904)">
      <g id="Group_71259" data-name="Group 71259" clip-path="url(#clip-path)">
        <path id="Path_116138" data-name="Path 116138" d="M107.48,56.688h-59V15.233L77.981.526l29.5,14.707Zm-58-1h57V15.852L77.981,1.643,49.48,15.852Z" transform="translate(-6.272 0.255)"/>
      </g>
    </g>
    <g id="Group_71262" data-name="Group 71262" transform="translate(0.436 -19.905)">
      <g id="Group_71261" data-name="Group 71261">
        <path id="Path_116140" data-name="Path 116140" d="M27,0h2.727l13.55,17.477V57H0V14.824Zm2.237,1h-1.98L1,15.416V56H42.272V17.819Z" transform="translate(-0.5 -0.063)"/>
        <path id="Path_116142" data-name="Path 116142" d="M51.516,11.614c1.746-.555,3.508-1.04,5.243-1.64q1.558-.54,3.1-1.12c1.028-.384,2.1-.712,3.1-1.176q.4-.183.786-.384l.221-.116.12-.065c.439-.241.877-.487,1.318-.725.583-.316,1.168-.634,1.767-.911.153-.071.306-.14.456-.216l.086-.044.014-.008a13.416,13.416,0,0,1,3.625-1.639L71.772.5H27.125L.5,14.076v2.243H42.773A28.894,28.894,0,0,1,51.516,11.614Z" transform="translate(-0.5 -0.5)" fill="#fed800"/>
        <path id="Path_116142_-_Outline" data-name="Path 116142 - Outline" d="M42.773,16.819H.5a.5.5,0,0,1-.5-.5V14.076a.5.5,0,0,1,.273-.445L26.9.055A.5.5,0,0,1,27.125,0H71.772a.5.5,0,0,1,.5.567l-.413,3.069a.5.5,0,0,1-.4.424,10.5,10.5,0,0,0-2.94,1.286c-.181.1-.361.2-.539.3l-.011.006-.016.009-.086.044c-.133.068-.264.128-.391.187l-.084.039c-.564.261-1.131.568-1.68.865l-.059.032c-.262.142-.529.289-.786.432l-.529.292-.122.066-.009,0-.083.044-.142.074c-.25.129-.513.258-.8.392-.717.332-1.467.6-2.192.851-.312.11-.635.224-.946.34-1.12.418-2.139.785-3.115,1.124-1.092.377-2.207.714-3.286,1.04-.647.2-1.316.4-1.969.6a28.376,28.376,0,0,0-8.585,4.621A.5.5,0,0,1,42.773,16.819ZM1,15.819H42.6a29.4,29.4,0,0,1,8.764-4.682c.661-.21,1.333-.413,1.983-.609,1.069-.323,2.175-.656,3.248-1.027.968-.336,1.98-.7,3.093-1.116.319-.119.647-.234.963-.346.7-.248,1.431-.5,2.1-.816.276-.127.526-.25.765-.374l.133-.069.084-.044.117-.063.524-.289c.26-.144.528-.292.795-.436l.059-.032c.562-.3,1.143-.619,1.736-.893l.086-.04c.123-.057.24-.11.353-.168l.083-.043.005,0c.175-.1.353-.2.532-.3A12.589,12.589,0,0,1,70.909,3.16L71.2,1H27.245L1,14.382Z" transform="translate(-0.5 -0.5)"/>
        <rect id="Rectangle_23438" data-name="Rectangle 23438" width="3.521" height="42.27" transform="matrix(0.002, -1, 1, 0.002, 0, 17.061)"/>
        <path id="Rectangle_23438_-_Outline" data-name="Rectangle 23438 - Outline" d="M0-.5H3.521a.5.5,0,0,1,.5.5V42.27a.5.5,0,0,1-.5.5H0a.5.5,0,0,1-.5-.5V0A.5.5,0,0,1,0-.5ZM3.021.5H.5V41.77H3.021Z" transform="matrix(0.002, -1, 1, 0.002, 0, 17.061)"/>
        <path id="Path_116144" data-name="Path 116144" d="M77.981.5l-29,13.576V17.6l29-11.381,29,11.381V14.076Z" transform="translate(-6.708 -0.5)"/>
        <path id="Path_116144_-_Outline" data-name="Path 116144 - Outline" d="M77.981,0a.5.5,0,0,1,.212.047l29,13.576a.5.5,0,0,1,.288.453V17.6a.5.5,0,0,1-.683.465L77.981,6.754,49.164,18.063a.5.5,0,0,1-.683-.465V14.076a.5.5,0,0,1,.288-.453l29-13.576A.5.5,0,0,1,77.981,0Zm28.5,14.394L77.981,1.052l-28.5,13.342v2.47L77.8,5.751a.5.5,0,0,1,.365,0L106.48,16.864Z" transform="translate(-6.708 -0.5)"/>
        <rect id="Rectangle_23439" data-name="Rectangle 23439" width="38.843" height="20.785" transform="translate(51.851 35.654)" fill="#fff"/>
        <path id="Rectangle_23439_-_Outline" data-name="Rectangle 23439 - Outline" d="M-.5-.5H39.343V21.285H-.5ZM38.343.5H.5V20.285H38.343Z" transform="translate(51.851 35.654)" fill="#707070"/>
        <path id="Path_116145" data-name="Path 116145" d="M-.451.065,38.891,0V27.984L-.451,28.05Z" transform="translate(51.804 28.437)" fill="#fed800"/>
        <path id="Path_116145_-_Outline" data-name="Path 116145 - Outline" d="M39.391-.5V28.483L-.951,28.55V-.434Zm-1,27.986V.5L.049.564V27.549Z" transform="translate(51.804 28.437)"/>
        <path id="Line_845" data-name="Line 845" d="M32.606.5H0A.5.5,0,0,1-.5,0,.5.5,0,0,1,0-.5H32.606a.5.5,0,0,1,.5.5A.5.5,0,0,1,32.606.5Z" transform="translate(55.026 36.916)"/>
        <path id="Line_846" data-name="Line 846" d="M32.606.5H0A.5.5,0,0,1-.5,0,.5.5,0,0,1,0-.5H32.606a.5.5,0,0,1,.5.5A.5.5,0,0,1,32.606.5Z" transform="translate(55.026 42.461)"/>
        <path id="Line_847" data-name="Line 847" d="M32.606.5H0A.5.5,0,0,1-.5,0,.5.5,0,0,1,0-.5H32.606a.5.5,0,0,1,.5.5A.5.5,0,0,1,32.606.5Z" transform="translate(55.026 48.008)"/>
      </g>
    </g>
  </g>
</svg>
