<svg xmlns="http://www.w3.org/2000/svg" width="20.75" height="20.751" viewBox="0 0 20.75 20.751">
  <g id="icon_gallery" transform="translate(-1478.25 -848.999)">
    <path id="Path_108394" data-name="Path 108394" d="M16,20.75H3A3.754,3.754,0,0,1-.75,17V3A.75.75,0,0,1,0,2.25.75.75,0,0,1,.75,3V17A2.253,2.253,0,0,0,3,19.25H16a.75.75,0,0,1,0,1.5Z" transform="translate(1479 849)" fill="#fff"/>
    <path id="Subtraction_1" data-name="Subtraction 1" d="M1472,13515h-14a2,2,0,0,1-2-2v-14a2,2,0,0,1,2-2h14a2,2,0,0,1,2,2v14A2,2,0,0,1,1472,13515Zm-10.5-2.015h0l1.364,0a.506.506,0,0,0,.109.01h8.056a.5.5,0,0,0,.407-.79l-4.026-5.641a.5.5,0,0,0-.818,0l-3.087,4.325-.271-.384-1.323-1.913a.5.5,0,0,0-.824,0l-1.316,1.91-1.208,1.7a.494.494,0,0,0-.036.519.487.487,0,0,0,.438.266h.008Z" transform="translate(25 -12648)" fill="#fff"/>
  </g>
</svg>
