<svg xmlns="http://www.w3.org/2000/svg" xmlns:xlink="http://www.w3.org/1999/xlink" width="19" height="19" viewBox="0 0 19 19">
  <defs>
    <clipPath id="clip-path">
      <rect id="Rectangle_23250" data-name="Rectangle 23250" width="19" height="19" transform="translate(3973 -5543)" fill="#fff" stroke="#707070" stroke-width="1" opacity="0.51"/>
    </clipPath>
  </defs>
  <g id="icon_list" transform="translate(-3973 5543)" clip-path="url(#clip-path)">
    <g id="Icon_feather-list" data-name="Icon feather-list" transform="translate(3969.25 -5548.228)">
      <path id="Path_108681" data-name="Path 108681" d="M24.487,9.75H12a.75.75,0,0,1,0-1.5H24.487a.75.75,0,0,1,0,1.5Z" transform="translate(-2.697 -0.24)"/>
      <path id="Path_108682" data-name="Path 108682" d="M24.487,18.75H12a.75.75,0,0,1,0-1.5H24.487a.75.75,0,0,1,0,1.5Z" transform="translate(-2.697 -3.272)"/>
      <path id="Path_108683" data-name="Path 108683" d="M24.487,27.75H12a.75.75,0,0,1,0-1.5H24.487a.75.75,0,0,1,0,1.5Z" transform="translate(-2.697 -6.305)"/>
      <path id="Path_108684" data-name="Path 108684" d="M7.549,12.617H6.7a.75.75,0,0,1,0-1.5h.854a.75.75,0,0,1,0,1.5Z" transform="translate(-2.195 -3.107)"/>
      <path id="Path_108685" data-name="Path 108685" d="M7.549,12.617H6.7a.75.75,0,0,1,0-1.5h.854a.75.75,0,0,1,0,1.5Z" transform="translate(-2.195 2.861)"/>
      <path id="Path_108686" data-name="Path 108686" d="M7.549,12.617H6.7a.75.75,0,0,1,0-1.5h.854a.75.75,0,0,1,0,1.5Z" transform="translate(-2.195 8.828)"/>
    </g>
  </g>
</svg>
