<svg xmlns="http://www.w3.org/2000/svg" xmlns:xlink="http://www.w3.org/1999/xlink" width="16" height="19" viewBox="0 0 16 19">
  <defs>
    <clipPath id="clip-path">
      <rect id="Rectangle_61513" data-name="Rectangle 61513" width="7.604" height="6" fill="#fff" stroke="#000" stroke-width="1.6"/>
    </clipPath>
  </defs>
  <g id="Group_88603" data-name="Group 88603" transform="translate(4522.937 4678)">
    <g id="Mask_Group_67701" data-name="Mask Group 67701" transform="translate(-4518.738 -4678)" clip-path="url(#clip-path)">
      <rect id="Rectangle_61512" data-name="Rectangle 61512" width="7.604" height="15.6" rx="3.802" fill="#fff"/>
      <path id="Rectangle_61512_-_Outline" data-name="Rectangle 61512 - Outline" d="M3.8,1.6A2.2,2.2,0,0,0,1.6,3.8v8a2.2,2.2,0,1,0,4.4,0v-8A2.2,2.2,0,0,0,3.8,1.6M3.8,0A3.8,3.8,0,0,1,7.6,3.8v8a3.8,3.8,0,0,1-7.6,0v-8A3.8,3.8,0,0,1,3.8,0Z"/>
    </g>
    <path id="Rectangle_61511" data-name="Rectangle 61511" d="M2,1.6a.4.4,0,0,0-.4.4V12a.4.4,0,0,0,.4.4H14a.4.4,0,0,0,.4-.4V2a.4.4,0,0,0-.4-.4H2M2,0H14a2,2,0,0,1,2,2V12a2,2,0,0,1-2,2H2a2,2,0,0,1-2-2V2A2,2,0,0,1,2,0Z" transform="translate(-4522.937 -4673)"/>
    <circle id="Ellipse_63098" data-name="Ellipse 63098" cx="2" cy="2" r="2" transform="translate(-4516.937 -4668)"/>
  </g>
</svg>
