<svg xmlns="http://www.w3.org/2000/svg" width="19.877" height="19.877" viewBox="0 0 19.877 19.877">
  <g id="Icon_feather-search" data-name="Icon feather-search" transform="translate(-4 -4)" opacity="0.75">
    <path id="Path_86883" data-name="Path 86883" d="M12.89,4A8.89,8.89,0,1,1,4,12.89,8.9,8.9,0,0,1,12.89,4Zm0,16.779A7.89,7.89,0,1,0,5,12.89,7.9,7.9,0,0,0,12.89,20.779Z" transform="translate(0 0)" fill="#fff"/>
    <path id="Path_86884" data-name="Path 86884" d="M29.537,30.037a.5.5,0,0,1-.354-.146l-4.562-4.562a.5.5,0,0,1,.707-.707l4.562,4.562a.5.5,0,0,1-.354.854Z" transform="translate(-6.16 -6.16)" fill="#fff"/>
  </g>
</svg>
