<svg xmlns="http://www.w3.org/2000/svg" width="25.398" height="25.398" viewBox="0 0 25.398 25.398">
  <g id="Icon_feather-clock" data-name="Icon feather-clock" transform="translate(-2.064 -2.064)">
    <path id="Path_117443" data-name="Path 117443" d="M14.7,27.4A12.7,12.7,0,0,1,5.72,5.72,12.616,12.616,0,0,1,14.7,2h0a12.7,12.7,0,0,1,8.98,21.679A12.616,12.616,0,0,1,14.7,27.4ZM14.7,4A10.7,10.7,0,1,0,25.4,14.7,10.711,10.711,0,0,0,14.7,4Z" transform="translate(0.064 0.064)"/>
    <path id="Path_117444" data-name="Path 117444" d="M21.894,17.789a1,1,0,0,1-.446-.106l-3.894-1.947A1,1,0,0,1,17,14.841V9a1,1,0,0,1,2,0v5.223l3.341,1.671a1,1,0,0,1-.448,1.895Z" transform="translate(-3.237 0.328)"/>
  </g>
</svg>
