<svg xmlns="http://www.w3.org/2000/svg" xmlns:xlink="http://www.w3.org/1999/xlink" width="19" height="19" viewBox="0 0 19 19">
  <defs>
    <clipPath id="clip-path">
      <rect id="Rectangle_23251" data-name="Rectangle 23251" width="19" height="19" transform="translate(4004 -5543)" fill="#fff" opacity="0.55"/>
    </clipPath>
  </defs>
  <g id="icon_grid" transform="translate(-4004 5543)" clip-path="url(#clip-path)">
    <g id="icon_grid-2" data-name="icon_grid" transform="translate(4001.25 -5545.75)">
      <path id="Path_108687" data-name="Path 108687" d="M4.5,3.75h5.514a.75.75,0,0,1,.75.75v5.514a.75.75,0,0,1-.75.75H4.5a.75.75,0,0,1-.75-.75V4.5A.75.75,0,0,1,4.5,3.75Zm4.764,1.5H5.25V9.264H9.264Z"/>
      <path id="Path_108688" data-name="Path 108688" d="M21,3.75h5.514a.75.75,0,0,1,.75.75v5.514a.75.75,0,0,1-.75.75H21a.75.75,0,0,1-.75-.75V4.5A.75.75,0,0,1,21,3.75Zm4.764,1.5H21.75V9.264h4.014Z" transform="translate(-6.74)"/>
      <path id="Path_108689" data-name="Path 108689" d="M21,20.25h5.514a.75.75,0,0,1,.75.75v5.514a.75.75,0,0,1-.75.75H21a.75.75,0,0,1-.75-.75V21A.75.75,0,0,1,21,20.25Zm4.764,1.5H21.75v4.014h4.014Z" transform="translate(-6.74 -6.74)"/>
      <path id="Path_108690" data-name="Path 108690" d="M4.5,20.25h5.514a.75.75,0,0,1,.75.75v5.514a.75.75,0,0,1-.75.75H4.5a.75.75,0,0,1-.75-.75V21A.75.75,0,0,1,4.5,20.25Zm4.764,1.5H5.25v4.014H9.264Z" transform="translate(0 -6.74)"/>
    </g>
  </g>
</svg>
