<svg xmlns="http://www.w3.org/2000/svg" xmlns:xlink="http://www.w3.org/1999/xlink" width="19" height="19" viewBox="0 0 19 19">
  <defs>
    <clipPath id="clip-path">
      <rect id="Rectangle_23252" data-name="Rectangle 23252" width="19" height="19" transform="translate(4047 -5545)" fill="#fff" stroke="#707070" stroke-width="1"/>
    </clipPath>
  </defs>
  <g id="icon_filter" transform="translate(-4047 5545)" clip-path="url(#clip-path)">
    <g id="Group_67322" data-name="Group 67322" transform="translate(2692 -5835.007)">
      <g id="Group_67319" data-name="Group 67319" transform="translate(1355 292.007)">
        <g id="Group_67317" data-name="Group 67317" transform="translate(0 0)">
          <path id="Line_291" data-name="Line 291" d="M-.05,14.2A.95.95,0,0,1-1,13.25V-.05A.95.95,0,0,1-.05-1,.95.95,0,0,1,.9-.05v13.3A.95.95,0,0,1-.05,14.2Z" transform="translate(2.9 1)"/>
          <path id="Line_294" data-name="Line 294" d="M3.75.9H-.05A.95.95,0,0,1-1-.05.95.95,0,0,1-.05-1h3.8a.95.95,0,0,1,.95.95A.95.95,0,0,1,3.75.9Z" transform="translate(1 3.85)"/>
        </g>
        <g id="Group_67320" data-name="Group 67320" transform="translate(6.65 0)">
          <path id="Line_291-2" data-name="Line 291" d="M-.05,14.2A.95.95,0,0,1-1,13.25V-.05A.95.95,0,0,1-.05-1,.95.95,0,0,1,.9-.05v13.3A.95.95,0,0,1-.05,14.2Z" transform="translate(2.9 1)"/>
          <path id="Line_294-2" data-name="Line 294" d="M3.75.9H-.05A.95.95,0,0,1-1-.05.95.95,0,0,1-.05-1h3.8a.95.95,0,0,1,.95.95A.95.95,0,0,1,3.75.9Z" transform="translate(1 7.65)"/>
        </g>
        <g id="Group_67321" data-name="Group 67321" transform="translate(13.3 0)">
          <path id="Line_291-3" data-name="Line 291" d="M-.05,14.2A.95.95,0,0,1-1,13.25V-.05A.95.95,0,0,1-.05-1,.95.95,0,0,1,.9-.05v13.3A.95.95,0,0,1-.05,14.2Z" transform="translate(2.9 1)"/>
          <path id="Line_294-3" data-name="Line 294" d="M3.75.9H-.05A.95.95,0,0,1-1-.05.95.95,0,0,1-.05-1h3.8a.95.95,0,0,1,.95.95A.95.95,0,0,1,3.75.9Z" transform="translate(1 11.45)"/>
        </g>
      </g>
    </g>
  </g>
</svg>
