<svg xmlns="http://www.w3.org/2000/svg" xmlns:xlink="http://www.w3.org/1999/xlink" width="19" height="19" viewBox="0 0 19 19">
  <defs>
    <clipPath id="clip-path">
      <rect id="Rectangle_23296" data-name="Rectangle 23296" width="19" height="19" transform="translate(2920 -5928)" fill="#fff" stroke="#707070" stroke-width="1"/>
    </clipPath>
  </defs>
  <g id="icon_sorting" transform="translate(-2920 5928)" clip-path="url(#clip-path)">
    <g id="Group_70387" data-name="Group 70387" transform="translate(2672.188 -6703.5)">
      <g id="Group_70901" data-name="Group 70901" transform="translate(190.25 5)">
        <g id="Group_70901-2" data-name="Group 70901" transform="translate(-712 1020.021) rotate(-90)">
          <path id="Line_291" data-name="Line 291" d="M1,15H-1V0H1Z" transform="translate(247.5 774.499) rotate(90)" fill="#007864"/>
          <path id="Path_115112" data-name="Path 115112" d="M.786,7.654-.786,6.416.995,4.156-.8,1.762.8.562,3.517,4.186Z" transform="translate(245.285 770.4)" fill="#007864"/>
        </g>
        <g id="Group_70902" data-name="Group 70902" transform="translate(74.436 772.479) rotate(90)">
          <path id="Line_291-2" data-name="Line 291" d="M1,15H-1V0H1Z" transform="translate(0 2.937) rotate(-90)" fill="#007864"/>
          <path id="Path_115112-2" data-name="Path 115112" d="M.8,6.473l-1.6-1.2L.995,2.879-.786.619.786-.619,3.517,2.849Z" transform="translate(12.785)" fill="#007864"/>
        </g>
      </g>
    </g>
  </g>
</svg>
