<svg xmlns="http://www.w3.org/2000/svg" width="22.64" height="22.64" viewBox="0 0 22.64 22.64">
  <g id="instagram" transform="translate(1 1)">
    <path id="Path_3538" data-name="Path 3538" d="M8.16,2H18.48a6.167,6.167,0,0,1,6.16,6.16V18.48a6.167,6.167,0,0,1-6.16,6.16H8.16A6.167,6.167,0,0,1,2,18.48V8.16A6.167,6.167,0,0,1,8.16,2ZM18.48,22.641a4.165,4.165,0,0,0,4.16-4.16V8.16A4.165,4.165,0,0,0,18.481,4H8.16A4.165,4.165,0,0,0,4,8.16V18.48a4.165,4.165,0,0,0,4.16,4.16Z" transform="translate(-3 -3)"/>
    <path id="Path_3539" data-name="Path 3539" d="M16.191,10.935a5.125,5.125,0,1,0,.009,0Zm0,8.257a3.128,3.128,0,1,0-2.213-.916,3.128,3.128,0,0,0,2.213.916Z" transform="translate(-5.828 -5.788)"/>
  </g>
</svg>
