<svg xmlns="http://www.w3.org/2000/svg" width="24.05" height="24.017" viewBox="0 0 24.05 24.017">
  <g id="linkedin" transform="translate(-0.945 -1.233)">
    <path id="Icon_awesome-linkedin-in" data-name="Icon awesome-linkedin-in" d="M5.376,24.017H.4V7.982H5.376ZM2.884,5.8A2.9,2.9,0,1,1,5.767,2.884,2.9,2.9,0,0,1,2.884,5.8ZM24.011,24.017H19.043V16.211c0-1.86-.038-4.246-2.589-4.246-2.589,0-2.985,2.021-2.985,4.112v7.939H8.495V7.982H13.27V10.17h.07a5.232,5.232,0,0,1,4.711-2.59c5.039,0,5.966,3.318,5.966,7.628v8.808Z" transform="translate(0.978 1.233)"/>
  </g>
</svg>
