<svg xmlns="http://www.w3.org/2000/svg" width="25.972" height="19.218" viewBox="0 0 25.972 19.218">
  <g id="mail" transform="translate(-1245.287 -12932.434)">
    <path id="Path_3649" data-name="Path 3649" d="M5.441,5.25H24.969A3.087,3.087,0,0,1,28.16,8.214V21.5a3.087,3.087,0,0,1-3.191,2.964H5.441A3.087,3.087,0,0,1,2.25,21.5V8.214A3.087,3.087,0,0,1,5.441,5.25ZM24.969,22.964A1.592,1.592,0,0,0,26.66,21.5V8.214A1.592,1.592,0,0,0,24.969,6.75H5.441A1.592,1.592,0,0,0,3.75,8.214V21.5a1.592,1.592,0,0,0,1.691,1.464Z" transform="translate(1243.073 12927.186)"/>
    <path id="Path_3650" data-name="Path 3650" d="M15.2,17.5a.749.749,0,0,1-.4-.117L2.6,9.633a.75.75,0,1,1,.8-1.266l11.8,7.495L27,8.367a.75.75,0,1,1,.8,1.266l-12.2,7.75a.749.749,0,0,1-.39.117Z" transform="translate(1243.073 12929.024)"/>
  </g>
</svg>
