<svg xmlns="http://www.w3.org/2000/svg" xmlns:xlink="http://www.w3.org/1999/xlink" width="33.557" height="32.329" viewBox="0 0 33.557 32.329">
  <defs>
    <clipPath id="clip-path">
      <rect id="Rectangle_23028" data-name="Rectangle 23028" width="33.557" height="32.329" fill="none" stroke="#707070" stroke-linejoin="round" stroke-width="1.5"/>
    </clipPath>
  </defs>
  <g id="Group_70360" data-name="Group 70360" clip-path="url(#clip-path)">
    <path id="Path_114013" data-name="Path 114013" d="M7.411,12.181a.75.75,0,0,1-.75-.75V1.25H3.25V11.431a.75.75,0,0,1-1.5,0V.5A.75.75,0,0,1,2.5-.25H7.411a.75.75,0,0,1,.75.75V11.431A.75.75,0,0,1,7.411,12.181Z" transform="translate(2.106 4.734)" fill="#007864"/>
    <path id="Path_114014" data-name="Path 114014" d="M19.911,15.728a.75.75,0,0,1-.75-.75V7.614H15.75v7.364a.75.75,0,0,1-1.5,0V6.864a.75.75,0,0,1,.75-.75h4.911a.75.75,0,0,1,.75.75v8.114A.75.75,0,0,1,19.911,15.728Z" transform="translate(-0.677 1.187)" fill="#007864"/>
    <path id="Path_114015" data-name="Path 114015" d="M32.411,15.468a.75.75,0,0,1-.75-.75V10.341H28.25v4.377a.75.75,0,1,1-1.5,0V9.591a.75.75,0,0,1,.75-.75h4.911a.75.75,0,0,1,.75.75v5.127A.75.75,0,0,1,32.411,15.468Z" transform="translate(-4.066 1.447)" fill="#007864"/>
    <path id="Path_114012" data-name="Path 114012" d="M19.131,35.587a.75.75,0,0,1-.631-1.155l2.984-4.653a3.873,3.873,0,0,1,3.23-1.853h.772c.034,0,.108-.062.135-.187l.321-1.473a1.719,1.719,0,0,1,1.176-1.309l.85-.244a1.545,1.545,0,0,1,1.366.26,1.824,1.824,0,0,1,.7,1.458.288.288,0,0,0,.136.276l.7.181a.75.75,0,0,1-.376,1.452l-.7-.182a1.75,1.75,0,0,1-1.259-1.728.327.327,0,0,0-.106-.26c-.029-.022-.041-.018-.05-.015l-.848.243a.251.251,0,0,0-.126.187l-.321,1.471a1.668,1.668,0,0,1-1.6,1.368h-.772a2.382,2.382,0,0,0-1.968,1.163l-2.983,4.652A.749.749,0,0,1,19.131,35.587Z" transform="translate(-1.059 -3.945)"/>
    <path id="Path_114011" data-name="Path 114011" d="M8.32,33.561a.75.75,0,0,1-.669-1.089A3.742,3.742,0,0,1,8.859,30.93a1.838,1.838,0,0,1,1.175-.263l.068,0a.923.923,0,0,0,.392-.4.639.639,0,0,0,.031-.512c-.045-.125-.045-.125-.3-.215a2.219,2.219,0,0,1-1.219-.881,2.736,2.736,0,0,1-.418-1.572c0-.041,0-.088,0-.133-.214.05-.529.161-.739.234a7.152,7.152,0,0,1-1.13.329,1.3,1.3,0,0,1-1.4-.462,1.26,1.26,0,0,1-.02-1.354,5.924,5.924,0,0,1,.576-.872c.207-.278.637-.856.61-1.052a.663.663,0,0,0-.089-.3.81.81,0,0,0-.339,0l-4.4.935a.75.75,0,0,1-.312-1.467L5.772,22l.063-.011a2.1,2.1,0,0,1,1.219.14,1.737,1.737,0,0,1,.911,1.447,3.125,3.125,0,0,1-.894,2.147l-.14.189c.152-.049.3-.1.416-.141a2.746,2.746,0,0,1,1.958-.235,1.5,1.5,0,0,1,.781,1.513,1.361,1.361,0,0,0,.158.763.779.779,0,0,0,.481.312,1.749,1.749,0,0,1,1.21,1.122,2.144,2.144,0,0,1-.093,1.674,2.387,2.387,0,0,1-1.357,1.207.751.751,0,0,1-.192.037,2.911,2.911,0,0,1-.338,0c-.2-.01-.235-.007-.3.032a2.441,2.441,0,0,0-.671.952A.75.75,0,0,1,8.32,33.561Z" transform="translate(1.654 -3.07)"/>
    <path id="Path_114010" data-name="Path 114010" d="M.5,18.25H30.783a.75.75,0,0,1,.75.75A15.892,15.892,0,0,1,4.4,30.237,15.788,15.788,0,0,1-.25,19,.75.75,0,0,1,.5,18.25Zm29.514,1.5H1.269a14.392,14.392,0,0,0,28.745,0Z" transform="translate(1.137 -2.835)"/>
  </g>
</svg>
