<svg xmlns="http://www.w3.org/2000/svg" width="39.77" height="37.282" viewBox="0 0 39.77 37.282">
  <g id="Group_72361" data-name="Group 72361" transform="translate(-1207.212 -600.453)">
    <path id="Path_117549" data-name="Path 117549" d="M0,20.032V6.156A2.176,2.176,0,0,1,2.2,4a2.176,2.176,0,0,1,2.2,2.156v4.031" transform="translate(1240.417 628.573) rotate(135)" fill="none" stroke="#000" stroke-width="1.5"/>
    <path id="Path_117550" data-name="Path 117550" d="M0,9.763V6.494A2.36,2.36,0,0,1,2.2,4a2.36,2.36,0,0,1,2.2,2.494V9.763" transform="translate(1236.792 631.161) rotate(135)" fill="none" stroke="#000" stroke-width="1.5"/>
    <path id="Path_117551" data-name="Path 117551" d="M0,8.059V6.042A2.124,2.124,0,0,1,2.2,4a2.124,2.124,0,0,1,2.2,2.042V16.181" transform="translate(1229.6 636.396) rotate(135)" fill="none" stroke="#000" stroke-width="1.5"/>
    <path id="Path_117552" data-name="Path 117552" d="M0,9.053V6.187a2.2,2.2,0,0,1,4.394,0V9.053" transform="translate(1233.183 633.767) rotate(135)" fill="none" stroke="#000" stroke-width="1.5"/>
    <path id="Path_117553" data-name="Path 117553" d="M7,7.237v3.3a5.492,5.492,0,0,0,5.492,5.492" transform="translate(1239.313 612.909) rotate(135)" fill="none" stroke="#000" stroke-width="1.5"/>
    <path id="Path_117554" data-name="Path 117554" d="M0,20.676H1.059a5.3,5.3,0,0,0,5.3-5.3V10.316" transform="translate(1227.387 631.409) rotate(135)" fill="none" stroke="#000" stroke-width="1.5"/>
    <g id="Group_71975" data-name="Group 71975" transform="translate(1235.45 616.277) rotate(135)">
      <line id="Line_1061" data-name="Line 1061" y2="5.182" transform="translate(0 6.071) rotate(-90)" fill="none" stroke="#000" stroke-width="1.5"/>
      <line id="Line_1062" data-name="Line 1062" y2="5.182" transform="rotate(-90)" fill="none" stroke="#000" stroke-width="1.5"/>
    </g>
    <line id="Line_1063" data-name="Line 1063" x1="9.366" transform="translate(1219.457 610.098) rotate(135)" fill="none" stroke="#000" stroke-linecap="round" stroke-width="1.5"/>
    <g id="Group_71976" data-name="Group 71976" transform="translate(1245.799 610.244) rotate(135)">
      <path id="Path_117555" data-name="Path 117555" d="M3.3.2V4.616a1.649,1.649,0,0,1-3.3,0V0" transform="translate(0.007 7.355) rotate(-90)" fill="none" stroke="#000" stroke-linecap="round" stroke-width="1.5"/>
      <path id="Path_117556" data-name="Path 117556" d="M7.476,12.006l.625-.173a6.009,6.009,0,0,0,4.072-5.746A6.087,6.087,0,1,0,0,6.087a6.178,6.178,0,0,0,3.746,5.594" transform="translate(12.006) rotate(90)" fill="none" stroke="#000" stroke-linecap="round" stroke-width="1.5"/>
    </g>
    <path id="Rectangle_23902" data-name="Rectangle 23902" d="M0,0H6.071a0,0,0,0,1,0,0V3.006A3.035,3.035,0,0,1,3.035,6.041h0A3.035,3.035,0,0,1,0,3.006V0A0,0,0,0,1,0,0Z" transform="translate(1215.066 628.077) rotate(45)" fill="none" stroke="#000" stroke-width="1.5"/>
  </g>
</svg>
