<svg xmlns="http://www.w3.org/2000/svg" width="79.948" height="91.666" viewBox="0 0 79.948 91.666">
  <g id="Group_88264" data-name="Group 88264" transform="translate(9904.416 257)">
    <path id="Path_133469" data-name="Path 133469" d="M292.662,237.9l7.381-7.381h0a1.72,1.72,0,0,0-2.432-2.432l-7.381,7.382-7.381-7.381h0a1.72,1.72,0,0,0-2.432,2.432L287.8,237.9l-7.381,7.381h0a1.72,1.72,0,1,0,2.432,2.432l7.381-7.382,7.381,7.381h0a1.72,1.72,0,0,0,2.432-2.432Z" transform="translate(-10158.538 -449.558)" fill="#107864"/>
    <path id="Path_133470" data-name="Path 133470" d="M227.18,128.814l-6.207-6.207V72a5.18,5.18,0,0,0-1.617-3.748L200.8,50.662a5.17,5.17,0,0,0-3.559-1.41H153.913a5.174,5.174,0,0,0-5.158,5.158v81.349a5.159,5.159,0,0,0,5.158,5.159h61.9a5.142,5.142,0,0,0,4.677-3.009,5.137,5.137,0,0,0,2.287.533,5.222,5.222,0,0,0,3.7-1.531l.7-.7a5.25,5.25,0,0,0,0-7.394ZM214.955,68.8h-12.9a1.72,1.72,0,0,1-1.719-1.719V54.961Zm.86,68.677h-61.9a1.72,1.72,0,0,1-1.72-1.719V54.412a1.72,1.72,0,0,1,1.72-1.719H196.9V67.085a5.158,5.158,0,0,0,5.158,5.158h15.475v46.943l-5.881-5.881a2.223,2.223,0,0,0-3.13,0l-1.216,1.216-5.433-5.433h0a22.534,22.534,0,1,0-2.432,2.432l5.433,5.432-1.3,1.3a2.236,2.236,0,0,0,0,3.147l13.962,13.964v.4a1.719,1.719,0,0,1-1.719,1.719ZM184.864,113.51a18.925,18.925,0,1,1,13.371-5.543A18.915,18.915,0,0,1,184.864,113.51Zm39.892,20.272-.7.7a1.806,1.806,0,0,1-2.528,0l-14.667-14.667,3.232-3.232,14.667,14.667a1.806,1.806,0,0,1,0,2.528Z" transform="translate(-10053.171 -306.252)"/>
  </g>
</svg>
