<svg xmlns="http://www.w3.org/2000/svg" xmlns:xlink="http://www.w3.org/1999/xlink" width="44.396" height="44.396" viewBox="0 0 44.396 44.396">
  <defs>
    <clipPath id="clip-path">
      <rect id="Rectangle_24043" data-name="Rectangle 24043" width="44.396" height="44.396" fill="none" stroke="#707070" stroke-width="1"/>
    </clipPath>
  </defs>
  <g id="Mask_Group_67592" data-name="Mask Group 67592" clip-path="url(#clip-path)">
    <g id="Group_72157" data-name="Group 72157" transform="translate(6.28 5.031)">
      <g id="Group_72130" data-name="Group 72130">
        <path id="Path_117633" data-name="Path 117633" d="M218.346,345.726a1.8,1.8,0,0,1,1.2.45l11.528,10.263H205.5l11.651-10.269A1.8,1.8,0,0,1,218.346,345.726Zm7.477,8.713-7.477-6.657-7.553,6.657Z" transform="translate(-201.953 -336.06)" fill="#141414"/>
        <path id="Rectangle_24041" data-name="Rectangle 24041" d="M2-1H29.837a3,3,0,0,1,3,3V15.825a3,3,0,0,1-3,3H2a3,3,0,0,1-3-3V2A3,3,0,0,1,2-1ZM29.837,16.825a1,1,0,0,0,1-1V2a1,1,0,0,0-1-1H2A1,1,0,0,0,1,2V15.825a1,1,0,0,0,1,1Z" transform="translate(0 19.523)" fill="#141414"/>
        <g id="Group_72129" data-name="Group 72129" transform="translate(9.797 24.718)">
          <path id="Line_1103" data-name="Line 1103" d="M0,8.672a1,1,0,0,1-1-1V0A1,1,0,0,1,0-1,1,1,0,0,1,1,0V7.672A1,1,0,0,1,0,8.672Z" transform="translate(12.242 0)" fill="#141414"/>
          <path id="Line_1104" data-name="Line 1104" d="M0,8.672a1,1,0,0,1-1-1V0A1,1,0,0,1,0-1,1,1,0,0,1,1,0V7.672A1,1,0,0,1,0,8.672Z" transform="translate(0 0.17)" fill="#141414"/>
        </g>
        <path id="Path_117634" data-name="Path 117634" d="M277.5,275.628q-.155,0-.311-.01a4.847,4.847,0,0,1-4.534-5.141,1,1,0,1,1,2,.125,2.847,2.847,0,1,0,3.02-2.663,1,1,0,1,1,.125-2,4.847,4.847,0,0,1-.3,9.685Z" transform="translate(-261.143 -263.955)" fill="#141414"/>
        <path id="Line_1105" data-name="Line 1105" d="M0,4.9H-.006A1,1,0,0,1-1,3.9l.025-3.9A1,1,0,0,1,.031-1,1,1,0,0,1,1.025.006L1,3.911A1,1,0,0,1,0,4.9Z" transform="translate(16.586 0)" fill="#141414"/>
      </g>
    </g>
  </g>
</svg>
