<svg xmlns="http://www.w3.org/2000/svg" xmlns:xlink="http://www.w3.org/1999/xlink" width="115" height="98" viewBox="0 0 115 98">
  <defs>
    <clipPath id="clip-path">
      <rect id="Rectangle_23779" data-name="Rectangle 23779" width="115" height="98" transform="translate(326 5501)" fill="#fff" stroke="#707070" stroke-width="1"/>
    </clipPath>
    <clipPath id="clip-path-2">
      <rect id="Rectangle_23771" data-name="Rectangle 23771" width="147.819" height="64.199" fill="none" stroke="#000" stroke-width="1"/>
    </clipPath>
  </defs>
  <g id="Mask_Group_67508" data-name="Mask Group 67508" transform="translate(-326 -5501)" clip-path="url(#clip-path)">
    <g id="Group_71789" data-name="Group 71789" transform="translate(309.591 5526.9)">
      <g id="Group_71788" data-name="Group 71788" transform="translate(0 -9)" clip-path="url(#clip-path-2)">
        <path id="Path_117411" data-name="Path 117411" d="M114.93,17.575l9.222,31.669a4.935,4.935,0,0,1-9.392,3.022l-3.616-10.246" transform="translate(-17.123 4.906)" stroke="#000" stroke-miterlimit="10" stroke-width="1"/>
        <path id="Path_117407" data-name="Path 117407" d="M127.843,12.088l6.317,24.3a14.117,14.117,0,0,1-11.342,17.478c1.971-2.326,2.887-3.247,1.84-6.354s-9.115-30.629-9.115-30.629Z" transform="translate(-17.8 5.751)" fill="#fed800"/>
        <path id="Path_117408" data-name="Path 117408" d="M83.454,49.939,80.213,55.7a2.174,2.174,0,0,0,.609,2.819,2.238,2.238,0,0,0,3.123-.458l7.872-10.6a16.258,16.258,0,0,0,11.423-4.671l.287-.283,13.382-.826-6.761-23.546-9.124,2.9-15.08-1.195Z" transform="translate(-12.314 4.819)" fill="#f7f7f7"/>
        <line id="Line_1018" data-name="Line 1018" x1="45.258" y2="8.882" transform="translate(102.48 51.577)" fill="none" stroke="#000" stroke-miterlimit="10" stroke-width="1"/>
        <path id="Path_117386" data-name="Path 117386" d="M129.168,12.088l6.317,24.3a14.117,14.117,0,0,1-11.342,17.478" transform="translate(-19.125 5.751)" fill="none" stroke="#000" stroke-miterlimit="10" stroke-width="1"/>
        <path id="Path_117387" data-name="Path 117387" d="M114.93,17.575l9.222,31.669a4.935,4.935,0,0,1-9.392,3.022l-3.616-10.246" transform="translate(-17.123 4.906)" fill="none" stroke="#000" stroke-miterlimit="10" stroke-width="1"/>
        <path id="Path_117388" data-name="Path 117388" d="M116.909,45.97l-13.382.826-.287.283A16.258,16.258,0,0,1,91.818,51.75l-7.872,10.6a2.238,2.238,0,0,1-3.123.458,2.174,2.174,0,0,1-.609-2.819l3.241-5.76" transform="translate(-12.314 0.531)" fill="none" stroke="#000" stroke-linecap="round" stroke-miterlimit="10" stroke-width="1"/>
        <path id="Path_117405" data-name="Path 117405" d="M82.57,47.277l8.212,2.715a1.92,1.92,0,0,1-.93,3.715L51.143,42.942l7.671-24.865,9.095,2.587,33.137,15.712L95.529,40.02l-2.067,5.713Z" transform="translate(-7.879 4.829)" fill="#fff"/>
        <path id="Path_117389" data-name="Path 117389" d="M77.785,34.705,65.222,45.13a2.043,2.043,0,0,0,2.388,3.3l10.639-6.649" transform="translate(-9.934 2.267)" fill="none" stroke="#000" stroke-linecap="round" stroke-miterlimit="10" stroke-width="1"/>
        <path id="Path_117390" data-name="Path 117390" d="M80.809,48.219,69.425,56.255A2.028,2.028,0,0,1,66.9,53.093l7.034-6.4" transform="translate(-10.203 0.42)" fill="none" stroke="#000" stroke-linecap="round" stroke-miterlimit="10" stroke-width="1"/>
        <path id="Path_117391" data-name="Path 117391" d="M85.58,52.111l-9.8,8.5a2.048,2.048,0,0,1-2.913-2.863l4.486-5.362" transform="translate(-11.152 -0.415)" fill="none" stroke="#000" stroke-linecap="round" stroke-miterlimit="10" stroke-width="1"/>
        <path id="Path_117392" data-name="Path 117392" d="M91.764,38.908l10.977,4.515a3.066,3.066,0,0,1-3.149,5.262L90.072,44.83l8.541,3.687a2.6,2.6,0,0,1-2.286,4.627l-6.385-2.267" transform="translate(-13.856 1.619)" fill="#f7f7f7" stroke="#000" stroke-width="1"/>
        <path id="Path_117396" data-name="Path 117396" d="M51.143,47.47,89.852,58.235a1.92,1.92,0,0,0,.93-3.715L82.57,51.805" transform="translate(-7.879 0.3)" fill="#fff" stroke="#000" stroke-width="1"/>
        <path id="Path_117398" data-name="Path 117398" d="M91.764,38.908l10.977,4.515a3.066,3.066,0,0,1-3.149,5.262L90.072,44.83l8.541,3.687a2.6,2.6,0,0,1-2.286,4.627l-6.385-2.267" transform="translate(-13.856 1.619)" fill="none" stroke="#000" stroke-width="1"/>
        <path id="Path_117401" data-name="Path 117401" d="M83.743,24.156l-7.954,4.283a3.544,3.544,0,0,1-3.6-6.1l7.184-4.619a6.33,6.33,0,0,1,4-.979L98.38,18.1a6.466,6.466,0,0,0,2.79-.362l7.951-2.891L148.88.47" transform="translate(-10.871 7.541)" fill="none" stroke="#000" stroke-miterlimit="10" stroke-width="1"/>
        <path id="Path_117403" data-name="Path 117403" d="M93.046,31.058l-9.3-4.283-7.954,4.283a3.544,3.544,0,0,1-3.6-6.1l7.184-4.619a6.33,6.33,0,0,1,4-.979L98.38,20.723a6.466,6.466,0,0,0,2.79-.362l7.951-2.891" transform="translate(-10.871 4.922)" fill="none" stroke="#000" stroke-miterlimit="10" stroke-width="1"/>
        <path id="Path_117406" data-name="Path 117406" d="M57.4,17.512,48.182,49.181A4.935,4.935,0,0,0,57.574,52.2L59.5,45.34" transform="translate(-7.392 4.916)" fill="none" stroke="#000" stroke-miterlimit="10" stroke-width="1"/>
        <path id="Path_117404" data-name="Path 117404" d="M48.447,53.754A14.117,14.117,0,0,1,37.1,36.276l6.339-24.548,12.84,4.522L47.1,50.083Z" transform="translate(-5.646 5.807)" fill="#fed800"/>
        <path id="Path_117394" data-name="Path 117394" d="M43.56,11.589,37.1,36.255A14.117,14.117,0,0,0,48.447,53.733" transform="translate(-5.646 5.828)" fill="none" stroke="#000" stroke-miterlimit="10" stroke-width="1"/>
        <line id="Line_1019" data-name="Line 1019" x2="45.258" y2="8.882" transform="translate(0.081 51.525)" fill="none" stroke="#000" stroke-miterlimit="10" stroke-width="1"/>
        <path id="Path_117409" data-name="Path 117409" d="M80.809,48.219,69.425,56.255A2.028,2.028,0,0,1,66.9,53.093l7.034-6.4" transform="translate(-10.203 0.42)" fill="#fff" stroke="#000" stroke-linecap="round" stroke-miterlimit="10" stroke-width="1"/>
        <path id="Path_117410" data-name="Path 117410" d="M85.58,52.111l-9.8,8.5a2.048,2.048,0,0,1-2.913-2.863l4.486-5.362" transform="translate(-11.152 -0.415)" fill="#fff" stroke="#000" stroke-linecap="round" stroke-miterlimit="10" stroke-width="1"/>
        <path id="Path_117395" data-name="Path 117395" d="M57.574,17,48.182,49.1a4.935,4.935,0,0,0,9.392,3.022L59.5,45.261" transform="translate(-7.392 4.995)" stroke="#000" stroke-miterlimit="10" stroke-width="1"/>
        <path id="Path_117393" data-name="Path 117393" d="M95.949,39.889l1.893.889a2.741,2.741,0,1,0,2.817-4.7L72.685,21.7l-4.653-1.269-9.719-3.21-7.1,25.425L89.862,53.669a1.92,1.92,0,0,0,.93-3.715l-8.212-2.715" transform="translate(-7.889 4.868)" fill="#f7f7f7"/>
        <path id="Path_117400" data-name="Path 117400" d="M88.2,36.483l1.893.889a2.741,2.741,0,1,0,2.817-4.7l-28.4-13.106-4.23-2.538L.934-4.286" transform="translate(-0.144 8.274)" fill="none" stroke="#000" stroke-linecap="round" stroke-miterlimit="10" stroke-width="1"/>
        <path id="Path_117402" data-name="Path 117402" d="M92.011,28.927l-8.268-2.152-7.954,4.283a3.544,3.544,0,0,1-3.6-6.1l7.184-4.619a6.33,6.33,0,0,1,4-.979L98.38,20.723a6.466,6.466,0,0,0,2.79-.362l7.951-2.891" transform="translate(-10.871 4.922)" fill="#f7f7f7" stroke="#000" stroke-width="1"/>
        <path id="Path_117397" data-name="Path 117397" d="M51.143,47.47,89.852,58.235a1.92,1.92,0,0,0,.93-3.715L82.57,51.805" transform="translate(-7.879 0.3)" fill="none" stroke="#000" stroke-linecap="round" stroke-miterlimit="10" stroke-width="1"/>
        <path id="Path_117399" data-name="Path 117399" d="M91.764,38.908l10.977,4.515a3.066,3.066,0,0,1-3.149,5.262L90.072,44.83l8.541,3.687a2.6,2.6,0,0,1-2.286,4.627l-6.385-2.267" transform="translate(-13.856 1.619)" fill="none" stroke="#000" stroke-linecap="round" stroke-miterlimit="10" stroke-width="1"/>
      </g>
    </g>
  </g>
</svg>
