<svg xmlns="http://www.w3.org/2000/svg" width="18.399" height="27.624" viewBox="0 0 18.399 27.624">
  <g id="phone" transform="translate(-4486.113 -187.125)">
    <g id="phone-2" data-name="phone" transform="translate(3237.034 -12643.125)">
      <path id="Path_3647" data-name="Path 3647" d="M9.914,2.25H21.982a3.271,3.271,0,0,1,3.164,3.362v20.9a3.271,3.271,0,0,1-3.164,3.362H9.914A3.271,3.271,0,0,1,6.75,26.512V5.612A3.271,3.271,0,0,1,9.914,2.25ZM21.982,28.375a1.774,1.774,0,0,0,1.664-1.862V5.612A1.774,1.774,0,0,0,21.982,3.75H9.914A1.774,1.774,0,0,0,8.25,5.612v20.9a1.774,1.774,0,0,0,1.664,1.862Z" transform="translate(1242.33 12828)"/>
    </g>
    <circle id="Ellipse_17240" data-name="Ellipse 17240" cx="1.5" cy="1.5" r="1.5" transform="translate(4494 207)"/>
  </g>
</svg>
