<svg xmlns="http://www.w3.org/2000/svg" width="24.407" height="24.408" viewBox="0 0 24.407 24.408">
  <g id="plus" transform="translate(-49.105 -8374.106)">
    <path id="Path_8697" data-name="Path 8697" d="M13.2,18.2H6a1,1,0,0,1,0-2h7.2a3,3,0,0,0,3-3V6a1,1,0,0,1,2,0v7.2A5,5,0,0,1,13.2,18.2Z" transform="translate(44.105 8369.105)" fill="#fff"/>
    <path id="Path_8698" data-name="Path 8698" d="M7.205,12.2H0a1,1,0,0,1-1-1,1,1,0,0,1,1-1H7.205a3,3,0,0,0,3-3V0a1,1,0,0,1,1-1,1,1,0,0,1,1,1V7.205A5.005,5.005,0,0,1,7.205,12.2Z" transform="translate(72.513 8397.514) rotate(-180)" fill="#fff"/>
  </g>
</svg>
