<svg xmlns="http://www.w3.org/2000/svg" xmlns:xlink="http://www.w3.org/1999/xlink" width="43" height="43" viewBox="0 0 43 43">
  <defs>
    <clipPath id="clip-path">
      <rect id="Rectangle_23606" data-name="Rectangle 23606" width="43" height="43" transform="translate(1014 529)" fill="none" stroke="#000" stroke-width="1"/>
    </clipPath>
  </defs>
  <g id="Mask_Group_67451" data-name="Mask Group 67451" transform="translate(-1014 -529)" clip-path="url(#clip-path)">
    <g id="Group_71552" data-name="Group 71552" transform="translate(1016.922 532.019)">
      <g id="noun-certified-3559933" transform="translate(0 0)">
        <path id="Path_117214" data-name="Path 117214" d="M129.909,36.173a3.926,3.926,0,0,1,1.051.139,6.133,6.133,0,0,1,2.919,2.091,7.274,7.274,0,0,0,1.214,1.143,5.657,5.657,0,0,0,1.494.472l.025,0a5.846,5.846,0,0,1,3.567,1.711,6.436,6.436,0,0,1,1.2,2.761,15.126,15.126,0,0,0,.6,1.943,7.533,7.533,0,0,0,1.126,1.189,6.148,6.148,0,0,1,2.092,2.92,6.149,6.149,0,0,1-.356,3.52,7.282,7.282,0,0,0-.383,1.637,15.151,15.151,0,0,0,.457,2.027,6.369,6.369,0,0,1,.339,2.987,5.825,5.825,0,0,1-2.25,3.26l-.014.012a5.561,5.561,0,0,0-1.046,1.133,7.232,7.232,0,0,0-.49,1.611,5.055,5.055,0,0,1-4.715,4.716,7.206,7.206,0,0,0-1.612.491,5.577,5.577,0,0,0-1.134,1.047L133.98,73c-1.363,1.606-2.6,2.322-4.016,2.322a8.346,8.346,0,0,1-2.234-.411,14.873,14.873,0,0,0-2.024-.457,7.253,7.253,0,0,0-1.636.382,8.3,8.3,0,0,1-2.467.495,3.956,3.956,0,0,1-1.053-.138,6.134,6.134,0,0,1-2.919-2.091,7.5,7.5,0,0,0-1.19-1.127,15.407,15.407,0,0,0-1.946-.6,6.44,6.44,0,0,1-2.761-1.2,5.783,5.783,0,0,1-1.708-3.565l0-.016a5.672,5.672,0,0,0-.473-1.5,7.321,7.321,0,0,0-1.142-1.213,6.147,6.147,0,0,1-2.093-2.921,6.15,6.15,0,0,1,.356-3.518,7.075,7.075,0,0,0,.384-1.666,5.815,5.815,0,0,0-.346-1.578l-.01-.026a5.77,5.77,0,0,1-.291-3.935,6.472,6.472,0,0,1,1.8-2.409,15.173,15.173,0,0,0,1.369-1.467,7.468,7.468,0,0,0,.476-1.583,6.164,6.164,0,0,1,1.471-3.249,6.152,6.152,0,0,1,3.246-1.47,7.426,7.426,0,0,0,1.585-.477,15.429,15.429,0,0,0,1.47-1.372c1.021-1.044,1.986-2.031,3.789-2.031a7.7,7.7,0,0,1,2.552.52l.014.005a5.816,5.816,0,0,0,1.591.35,7.1,7.1,0,0,0,1.664-.384A8.334,8.334,0,0,1,129.909,36.173Zm6.352,5.818a7.656,7.656,0,0,1-2.1-.672,1,1,0,0,1-.09-.05,8.435,8.435,0,0,1-1.667-1.51,4.524,4.524,0,0,0-1.943-1.509l-.034-.009a1.9,1.9,0,0,0-.523-.068,6.79,6.79,0,0,0-1.878.405,8.314,8.314,0,0,1-2.255.474q-.045,0-.09,0a7.814,7.814,0,0,1-2.194-.472,5.791,5.791,0,0,0-1.875-.4c-.923,0-1.391.438-2.359,1.429a16.86,16.86,0,0,1-1.74,1.605,1,1,0,0,1-.139.091,8.379,8.379,0,0,1-2.163.7,4.547,4.547,0,0,0-2.263.921l-.026.026a4.558,4.558,0,0,0-.922,2.266,8.415,8.415,0,0,1-.7,2.158,1,1,0,0,1-.091.139,16.6,16.6,0,0,1-1.606,1.74c-1.329,1.3-1.881,1.837-1.03,4.227a7.815,7.815,0,0,1,.475,2.2q0,.044,0,.089a8.289,8.289,0,0,1-.474,2.258,4.551,4.551,0,0,0-.337,2.4l.009.034a4.537,4.537,0,0,0,1.512,1.946,8.475,8.475,0,0,1,1.507,1.663,1,1,0,0,1,.051.092,7.671,7.671,0,0,1,.671,2.091c.467,2.525,1.21,2.717,3,3.181a16.848,16.848,0,0,1,2.287.721,1,1,0,0,1,.15.077,8.438,8.438,0,0,1,1.667,1.51,4.526,4.526,0,0,0,1.943,1.509l.032.008a1.926,1.926,0,0,0,.527.068,6.749,6.749,0,0,0,1.874-.4,8.278,8.278,0,0,1,2.256-.474,1,1,0,0,1,.151.008,16.376,16.376,0,0,1,2.382.524,6.881,6.881,0,0,0,1.7.338c.552,0,1.28-.192,2.486-1.611a7.575,7.575,0,0,1,1.593-1.455,1,1,0,0,1,.086-.052,8.377,8.377,0,0,1,2.164-.705,4.549,4.549,0,0,0,2.262-.921l.026-.026a4.555,4.555,0,0,0,.921-2.264,8.4,8.4,0,0,1,.7-2.161,1,1,0,0,1,.052-.086,7.558,7.558,0,0,1,1.455-1.594c1.252-1.067,1.5-1.715,1.576-2.111a4.762,4.762,0,0,0-.3-2.073,16.654,16.654,0,0,1-.524-2.38,1,1,0,0,1-.008-.152,8.292,8.292,0,0,1,.474-2.257,4.58,4.58,0,0,0,.34-2.39q-.006-.021-.011-.042a4.537,4.537,0,0,0-1.511-1.946,8.473,8.473,0,0,1-1.508-1.663,1,1,0,0,1-.077-.149,16.566,16.566,0,0,1-.723-2.288C138.975,43.2,138.783,42.456,136.261,41.991Z" transform="translate(-107.177 -37.173)"/>
      </g>
      <path id="Path_117215" data-name="Path 117215" d="M605.342,11278.447a1,1,0,0,1-.707-.293l-4.207-4.211a1,1,0,0,1,1.415-1.414l3.5,3.507,8.791-8.72a1,1,0,0,1,1.408,1.42l-9.5,9.421A1,1,0,0,1,605.342,11278.447Z" transform="translate(-589.409 -11254.158)"/>
    </g>
  </g>
</svg>
