<svg xmlns="http://www.w3.org/2000/svg" xmlns:xlink="http://www.w3.org/1999/xlink" width="71.834" height="52.984" viewBox="0 0 71.834 52.984">
  <defs>
    <clipPath id="clip-path">
      <rect id="Rectangle_24083" data-name="Rectangle 24083" width="71.723" height="24.563" fill="none"/>
    </clipPath>
  </defs>
  <g id="Group_88263" data-name="Group 88263" transform="translate(-16.512 -25.465)">
    <g id="Group_72133" data-name="Group 72133" transform="translate(36.914 26.465)">
      <path id="Path_117679" data-name="Path 117679" d="M8498.235-16375.437H8523.9a13.006,13.006,0,0,0-1.405-4.349c-1.045-1.642-4.287-1.623-4.287-1.623h-18.268l-3.047-4h-4.021Z" transform="translate(-8492.876 16387.129)" fill="none" stroke="#000" stroke-linecap="round" stroke-linejoin="round" stroke-width="2"/>
      <path id="Path_117680" data-name="Path 117680" d="M8506.612-16381.772l-2.558-5.458h3.844l4.926,5.691" transform="translate(-8493.495 16387.23)" fill="none" stroke="#000" stroke-linecap="round" stroke-linejoin="round" stroke-width="2"/>
      <path id="Path_117681" data-name="Path 117681" d="M8507.764-16374.523l-4.021,7.757h4.021l6.936-7.757" transform="translate(-8493.479 16386.527)" fill="none" stroke="#000" stroke-linecap="round" stroke-linejoin="round" stroke-width="2"/>
    </g>
    <g id="Group_72153" data-name="Group 72153" transform="translate(16.567 53.83)">
      <path id="Path_117715" data-name="Path 117715" d="M36.48,6.423V1h16.5V6.423" transform="translate(-2.021 -0.055)" fill="#a6d8d0"/>
      <g id="Group_72154" data-name="Group 72154" transform="translate(0 0)">
        <g id="Group_72153-2" data-name="Group 72153" clip-path="url(#clip-path)">
          <path id="Path_117716" data-name="Path 117716" d="M36.48,6.423V1h16.5V6.423" transform="translate(-2.021 -0.055)" fill="none" stroke="#000" stroke-linejoin="round" stroke-width="2"/>
        </g>
      </g>
      <path id="Path_117717" data-name="Path 117717" d="M31.151,12.164V6.741h21.53v5.423" transform="translate(-1.726 -0.373)" fill="#a6d8d0"/>
      <path id="Path_117718" data-name="Path 117718" d="M31.151,12.164V6.741h21.53v5.423" transform="translate(-1.726 -0.373)" fill="none" stroke="#000" stroke-linejoin="round" stroke-width="2"/>
      <g id="Group_72156" data-name="Group 72156" transform="translate(0.944 1.564)">
        <g id="Group_72162" data-name="Group 72162">
          <path id="Path_117719" data-name="Path 117719" d="M5.462,16.4,1,12.068h9.729V1.656H16.51V5.736h3.854v4.586L22.8,12.068H56.667l2.2-1.746H70.834L64.744,16.4" transform="translate(-1 -1.656)" fill="none" stroke="#000" stroke-linecap="round" stroke-linejoin="round" stroke-width="2"/>
          <path id="Path_117720" data-name="Path 117720" d="M65,17.264l-7.084,7.311H12.819L5.735,17.264" transform="translate(-1.262 -2.52)" fill="none" stroke="#000" stroke-linecap="round" stroke-linejoin="round" stroke-width="2"/>
        </g>
      </g>
      <line id="Line_1140" data-name="Line 1140" x1="57.097" transform="translate(6.631 16.794)" fill="none" stroke="#000" stroke-linecap="round" stroke-linejoin="round" stroke-width="2"/>
    </g>
  </g>
</svg>
