<svg xmlns="http://www.w3.org/2000/svg" width="52" height="16.85" viewBox="0 0 52 16.85">
  <g id="Group_88157" data-name="Group 88157" transform="translate(-135 -14.075)">
    <path id="Line_1067" data-name="Line 1067" d="M52,1H48V-1h4ZM44,1H40V-1h4ZM36,1H32V-1h4ZM28,1H24V-1h4ZM20,1H16V-1h4ZM12,1H8V-1h4ZM4,1H0V-1H4Z" transform="translate(135 22.5)"/>
    <path id="Path_117580" data-name="Path 117580" d="M14.85,0,7.425,7.424,0,0Z" transform="translate(165.424 15.075) rotate(90)"/>
    <path id="Path_117580_-_Outline" data-name="Path 117580 - Outline" d="M0-1H14.85a1,1,0,0,1,.924.617,1,1,0,0,1-.217,1.09L8.132,8.131a1,1,0,0,1-1.414,0L-.707.707A1,1,0,0,1-.924-.383,1,1,0,0,1,0-1ZM12.435,1H2.414l5.01,5.01Z" transform="translate(165.424 15.075) rotate(90)"/>
  </g>
</svg>
