<svg xmlns="http://www.w3.org/2000/svg" xmlns:xlink="http://www.w3.org/1999/xlink" width="44.396" height="44.396" viewBox="0 0 44.396 44.396">
  <defs>
    <clipPath id="clip-path">
      <rect id="Rectangle_24029" data-name="Rectangle 24029" width="44.396" height="44.396" transform="translate(0)" fill="none" stroke="#707070" stroke-width="1"/>
    </clipPath>
  </defs>
  <g id="Mask_Group_67585" data-name="Mask Group 67585" clip-path="url(#clip-path)">
    <g id="Group_70981" data-name="Group 70981" transform="translate(2.231 17.942)">
      <path id="Rectangle_22874" data-name="Rectangle 22874" d="M4-1H25.343a4,4,0,0,1,4,4V20.841H-1V4A5.006,5.006,0,0,1,4-1ZM27.343,18.841V3a2,2,0,0,0-2-2H4A3,3,0,0,0,1,4V18.841Z" transform="translate(0 0)"/>
      <path id="Path_108691" data-name="Path 108691" d="M-1-1H5.913l6.678,6.21v8.963H-1ZM5.126,1H1V12.173h9.591V6.081Z" transform="translate(28.342 6.056)"/>
      <circle id="Ellipse_14802" data-name="Ellipse 14802" cx="3.779" cy="3.779" r="3.779" transform="translate(4.724 16.062)" fill="#e9f4f2"/>
      <path id="Ellipse_14802_-_Outline" data-name="Ellipse 14802 - Outline" d="M3.779-1A4.779,4.779,0,1,1-1,3.779,4.785,4.785,0,0,1,3.779-1Zm0,7.558A2.779,2.779,0,1,0,1,3.779,2.782,2.782,0,0,0,3.779,6.558Z" transform="translate(4.724 16.062)"/>
      <circle id="Ellipse_14803" data-name="Ellipse 14803" cx="3.779" cy="3.779" r="3.779" transform="translate(26.453 16.062)" fill="#e9f4f2"/>
      <path id="Ellipse_14803_-_Outline" data-name="Ellipse 14803 - Outline" d="M3.779-1A4.779,4.779,0,1,1-1,3.779,4.785,4.785,0,0,1,3.779-1Zm0,7.558A2.779,2.779,0,1,0,1,3.779,2.782,2.782,0,0,0,3.779,6.558Z" transform="translate(26.453 16.062)"/>
    </g>
  </g>
</svg>
