<svg xmlns="http://www.w3.org/2000/svg" width="25.058" height="20.356" viewBox="0 0 25.058 20.356">
  <g id="twitter" transform="translate(0.492 -2.089)">
    <path id="Icon_awesome-twitter" data-name="Icon awesome-twitter" d="M22.485,8.453c.016.223.016.445.016.668A14.513,14.513,0,0,1,7.887,23.735,14.514,14.514,0,0,1,0,21.429a10.625,10.625,0,0,0,1.24.064A10.286,10.286,0,0,0,7.617,19.3a5.145,5.145,0,0,1-4.8-3.562,6.477,6.477,0,0,0,.97.079,5.432,5.432,0,0,0,1.352-.175A5.137,5.137,0,0,1,1.018,10.6v-.064a5.173,5.173,0,0,0,2.322.652A5.144,5.144,0,0,1,1.75,4.319,14.6,14.6,0,0,0,12.34,9.694a5.8,5.8,0,0,1-.127-1.177A5.141,5.141,0,0,1,21.1,5a10.112,10.112,0,0,0,3.26-1.24A5.122,5.122,0,0,1,22.1,6.593a10.3,10.3,0,0,0,2.958-.8,11.041,11.041,0,0,1-2.576,2.656Z" transform="translate(-0.492 -1.291)"/>
  </g>
</svg>
