<svg width="36" height="38" viewBox="0 0 36 38" fill="none" xmlns="http://www.w3.org/2000/svg">
<path id="Vector" d="M14.4191 1V0.25H13.6691V1H14.4191ZM23.6817 1H24.4317V0.25H23.6817V1ZM33.4217 17.878H34.1717V17.3562L33.6824 17.1748L33.4217 17.878ZM5.53846 5.39024V4.64024H4.78846V5.39024H5.53846ZM30.557 7.63415H31.307V6.88415H30.557V7.63415ZM14.4191 19H15.1691V17.9713L14.1897 18.286L14.4191 19ZM2.76923 22.8537L2.51444 22.1483L2.01923 22.3271V22.8537H2.76923ZM17.9383 5.48781C17.9383 5.07359 17.6025 4.73781 17.1883 4.73781C16.7741 4.73781 16.4383 5.07359 16.4383 5.48781H17.9383ZM16.4383 6.85366C16.4383 7.26787 16.7741 7.60366 17.1883 7.60366C17.6025 7.60366 17.9383 7.26787 17.9383 6.85366H16.4383ZM17.9383 17.1951C17.9383 16.7809 17.6025 16.4451 17.1883 16.4451C16.7741 16.4451 16.4383 16.7809 16.4383 17.1951H17.9383ZM16.4383 18.561C16.4383 18.9752 16.7741 19.311 17.1883 19.311C17.6025 19.311 17.9383 18.9752 17.9383 18.561H16.4383ZM17.9383 26.863C17.9383 26.4488 17.6025 26.113 17.1883 26.113C16.7741 26.113 16.4383 26.4488 16.4383 26.863H17.9383ZM16.4383 28.2289C16.4383 28.6431 16.7741 28.9789 17.1883 28.9789C17.6025 28.9789 17.9383 28.6431 17.9383 28.2289H16.4383ZM28.2513 27.1782C28.2513 26.764 27.9155 26.4282 27.5013 26.4282C27.0871 26.4282 26.7513 26.764 26.7513 27.1782H28.2513ZM26.7513 28.5441C26.7513 28.9583 27.0871 29.2941 27.5013 29.2941C27.9155 29.2941 28.2513 28.9583 28.2513 28.5441H26.7513ZM6.67042 26.863C6.67042 26.4488 6.33464 26.113 5.92042 26.113C5.50621 26.113 5.17042 26.4488 5.17042 26.863H6.67042ZM5.17042 28.2289C5.17042 28.6431 5.50621 28.9789 5.92042 28.9789C6.33464 28.9789 6.67042 28.6431 6.67042 28.2289H5.17042ZM21.376 5.48781C21.376 5.07359 21.0402 4.73781 20.626 4.73781C20.2118 4.73781 19.876 5.07359 19.876 5.48781H21.376ZM19.876 6.85366C19.876 7.26787 20.2118 7.60366 20.626 7.60366C21.0402 7.60366 21.376 7.26787 21.376 6.85366H19.876ZM21.376 17.1951C21.376 16.7809 21.0402 16.4451 20.626 16.4451C20.2118 16.4451 19.876 16.7809 19.876 17.1951H21.376ZM19.876 18.561C19.876 18.9752 20.2118 19.311 20.626 19.311C21.0402 19.311 21.376 18.9752 21.376 18.561H19.876ZM21.376 26.863C21.376 26.4488 21.0402 26.113 20.626 26.113C20.2118 26.113 19.876 26.4488 19.876 26.863H21.376ZM19.876 28.2289C19.876 28.6431 20.2118 28.9789 20.626 28.9789C21.0402 28.9789 21.376 28.6431 21.376 28.2289H19.876ZM31.689 27.1782C31.689 26.764 31.3532 26.4282 30.939 26.4282C30.5248 26.4282 30.189 26.764 30.189 27.1782H31.689ZM30.189 28.5441C30.189 28.9583 30.5248 29.2941 30.939 29.2941C31.3532 29.2941 31.689 28.9583 31.689 28.5441H30.189ZM10.1081 26.863C10.1081 26.4488 9.7723 26.113 9.35809 26.113C8.94388 26.113 8.60809 26.4488 8.60809 26.863H10.1081ZM8.60809 28.2289C8.60809 28.6431 8.94388 28.9789 9.35809 28.9789C9.7723 28.9789 10.1081 28.6431 10.1081 28.2289H8.60809ZM14.4191 1.75H23.6817V0.25H14.4191V1.75ZM14.4191 37.75H23.6817V36.25H14.4191V37.75ZM23.6817 37.75H33.4217V36.25H23.6817V37.75ZM33.4217 37.75H36V36.25H33.4217V37.75ZM34.1717 37V17.878H32.6717V37H34.1717ZM22.9317 14.2683V37H24.4317V14.2683H22.9317ZM15.1691 37V5.39024H13.6691V37H15.1691ZM15.1691 5.39024V1H13.6691V5.39024H15.1691ZM14.4191 4.64024H5.53846V6.14024H14.4191V4.64024ZM22.9317 1V7.63415H24.4317V1H22.9317ZM22.9317 7.63415V14.2683H24.4317V7.63415H22.9317ZM23.6817 8.38415H30.557V6.88415H23.6817V8.38415ZM33.6824 17.1748L30.8177 16.1131L30.2964 17.5196L33.1611 18.5813L33.6824 17.1748ZM30.8177 16.1131L23.9423 13.565L23.4211 14.9715L30.2964 17.5196L30.8177 16.1131ZM29.807 7.63415V16.8164H31.307V7.63415H29.807ZM15.1691 37V19H13.6691V37H15.1691ZM0 37.75H2.76923V36.25H0V37.75ZM2.01923 22.8537V37H3.51923V22.8537H2.01923ZM14.1897 18.286L5.30903 21.1394L5.76789 22.5675L14.6485 19.714L14.1897 18.286ZM5.28367 21.148L2.51444 22.1483L3.02402 23.5591L5.79325 22.5588L5.28367 21.148ZM4.78846 5.39024V21.8534H6.28846V5.39024H4.78846ZM16.4383 5.48781V6.85366H17.9383V5.48781H16.4383ZM16.4383 17.1951V18.561H17.9383V17.1951H16.4383ZM16.4383 26.863V28.2289H17.9383V26.863H16.4383ZM26.7513 27.1782V28.5441H28.2513V27.1782H26.7513ZM5.17042 26.863V28.2289H6.67042V26.863H5.17042ZM19.876 5.48781V6.85366H21.376V5.48781H19.876ZM19.876 17.1951V18.561H21.376V17.1951H19.876ZM19.876 26.863V28.2289H21.376V26.863H19.876ZM30.189 27.1782V28.5441H31.689V27.1782H30.189ZM8.60809 26.863V28.2289H10.1081V26.863H8.60809ZM2.76923 37.75H14.4191V36.25H2.76923V37.75Z" fill="black"/>
</svg>
