<svg width="69" height="22" viewBox="0 0 69 22" fill="none" xmlns="http://www.w3.org/2000/svg">
<path d="M55.5198 21C55.8794 19.2946 57.6776 15.0465 61.9931 11.6977L52.2831 12.3925M55.5198 21H11.1655M55.5198 21H68M11.1655 21V16.3488L12.7239 14.8372H14.5221M11.1655 21H1M27.1091 16.3488V8.90698H33.4625M27.1091 16.3488H39.6961M27.1091 16.3488H20.6358M52.2831 12.3925V8.90698H46.2893M52.2831 12.3925L48.2309 12.6825M33.4625 8.90698V1H46.2893V8.90698M33.4625 8.90698H39.6961M46.2893 8.90698H39.6961M48.2309 12.6825L47.3682 12.7442L44.1315 16.3488H39.6961M48.2309 12.6825V11.4651M39.6961 16.3488V8.90698M14.5221 14.8372H16.3202L18.2382 16.3488H20.6358M14.5221 14.8372V7.97674H16.4401M20.6358 16.3488V7.97674H19.1972M16.4401 7.97674V5.53488M16.4401 7.97674H19.1972M19.1972 7.97674V6.23256M30.9451 11.4651V14.2558M37.4184 3.55814V6.34884M35.5004 11.4651V14.2558M41.9738 3.55814V6.34884M44.1315 11.4651V14.2558" stroke="black" stroke-width="1.5" stroke-linecap="round" stroke-linejoin="round"/>
</svg>
