<svg width="31" height="34" viewBox="0 0 31 34" fill="none" xmlns="http://www.w3.org/2000/svg">
<path d="M1 1V0.25C0.585786 0.25 0.25 0.585786 0.25 1L1 1ZM1 33H0.25C0.25 33.4142 0.585786 33.75 1 33.75L1 33ZM25.0254 33V33.75C25.4396 33.75 25.7754 33.4142 25.7754 33H25.0254ZM25.0254 7.85158H25.7754C25.7754 7.65534 25.6985 7.46692 25.5612 7.32674L25.0254 7.85158ZM18.3136 1L18.8493 0.475161C18.7083 0.331154 18.5152 0.25 18.3136 0.25V1ZM18.3136 7.85158H17.5636C17.5636 8.2658 17.8993 8.60158 18.3136 8.60158V7.85158ZM29.1581 31.0303C29.451 31.3232 29.9259 31.3232 30.2188 31.0303C30.5117 30.7374 30.5117 30.2626 30.2188 29.9697L29.1581 31.0303ZM19.6806 12.6573C21.8374 14.859 21.8374 18.4349 19.6806 20.6366L20.7522 21.6863C23.4802 18.9014 23.4802 14.3925 20.7522 11.6077L19.6806 12.6573ZM19.6806 20.6366C17.5323 22.8297 14.0557 22.8297 11.9073 20.6366L10.8358 21.6863C13.5723 24.4798 18.0156 24.4798 20.7522 21.6863L19.6806 20.6366ZM11.9073 20.6366C9.75055 18.4349 9.75055 14.859 11.9073 12.6573L10.8358 11.6077C8.10772 14.3925 8.10772 18.9014 10.8358 21.6863L11.9073 20.6366ZM11.9073 12.6573C14.0557 10.4643 17.5323 10.4643 19.6806 12.6573L20.7522 11.6077C18.0156 8.81417 13.5723 8.81417 10.8358 11.6077L11.9073 12.6573ZM0.25 1V33H1.75V1H0.25ZM1 33.75H25.0254V32.25H1V33.75ZM25.5612 7.32674L18.8493 0.475161L17.7778 1.52484L24.4897 8.37642L25.5612 7.32674ZM18.3136 0.25H1V1.75H18.3136V0.25ZM17.5636 1V7.85158H19.0636V1H17.5636ZM18.3136 8.60158H25.0254V7.10158H18.3136V8.60158ZM25.7754 25.837V7.85158H24.2754V25.837H25.7754ZM19.7608 21.5346L24.4897 26.3618L25.5612 25.3121L20.8324 20.4849L19.7608 21.5346ZM24.4951 26.3673L29.1581 31.0303L30.2188 29.9697L25.5558 25.3067L24.4951 26.3673ZM25.7754 33V25.837H24.2754V33H25.7754Z" fill="black"/>
</svg>
