<svg width="55" height="27" viewBox="0 0 55 27" fill="none" xmlns="http://www.w3.org/2000/svg">
<g id="Group 72031">
<path id="Vector 11" d="M1 1H30.6813C33.4451 1.12061 38.1649 3.94412 41.0157 5.80495M41.0157 5.80495C45.139 8.49647 47.9556 11.397 49.187 13.0609C49.3357 13.3067 49.4681 13.5479 49.585 13.7846M41.0157 5.80495H35.6081V13.7846H49.585M49.585 13.7846C52.0383 18.7506 49.908 22.2272 45.1014 22.589H1M10.1327 13.7846H1V5.80495H10.1327M10.1327 13.7846V5.80495M10.1327 13.7846H20.1066M10.1327 5.80495H20.1066M20.1066 13.7846H30.0805V5.80495H20.1066M20.1066 13.7846V5.80495M53.2727 26H1" stroke="black" stroke-width="1.5" stroke-linecap="round" stroke-linejoin="round"/>
<path id="Vector" d="M12.2172 22.9697C12.2172 24.6433 10.8933 26 9.26021 26C7.62711 26 6.30322 24.6433 6.30322 22.9697M32.9161 22.9697C32.9161 24.6433 31.5922 26 29.9591 26C28.326 26 27.0021 24.6433 27.0021 22.9697M18.9376 22.9697C18.9376 24.6433 17.6137 26 15.9806 26C14.3475 26 13.0237 24.6433 13.0237 22.9697M39.6366 22.9697C39.6366 24.6433 38.3127 26 36.6796 26C35.0465 26 33.7226 24.6433 33.7226 22.9697" stroke="black" stroke-width="1.5"/>
</g>
</svg>
