<svg xmlns="http://www.w3.org/2000/svg" width="19.633" height="13.5" viewBox="0 0 19.633 13.5">
  <g id="icon_distributor" transform="translate(-198.25 -978.652)">
    <path id="Exclusion_2" data-name="Exclusion 2" d="M2538.16,5309.9a2.763,2.763,0,0,1-2.646-2h-3.707a2.75,2.75,0,0,1-5.292,0h-2.1v-8.75a2.753,2.753,0,0,1,2.749-2.75h10.752v2.707h2.464l3.669,3.41v5.06h-3.166A2.773,2.773,0,0,1,2538.16,5309.9Zm0-4a1.25,1.25,0,1,0,1.25,1.25A1.251,1.251,0,0,0,2538.16,5305.9Zm-9,0a1.25,1.25,0,1,0,1.25,1.25A1.251,1.251,0,0,0,2529.16,5305.9Zm0-1.5a2.762,2.762,0,0,1,2.645,2h3.707a2.738,2.738,0,0,1,.9-1.369V5297.9h-9.251a1.251,1.251,0,0,0-1.25,1.25v7.25h.605A2.76,2.76,0,0,1,2529.161,5304.4Zm9,0a2.751,2.751,0,0,1,2.532,1.675h1.851v-2.905l-2.757-2.566h-1.875v3.807C2538,5304.407,2538.082,5304.4,2538.16,5304.4Z" transform="translate(-2326.16 -4317.75)"/>
  </g>
</svg>
