<svg xmlns="http://www.w3.org/2000/svg" width="16.773" height="16.773" viewBox="0 0 16.773 16.773">
  <g id="icon_area" transform="translate(1.008 0.996)">
    <path id="Rectangle_21502" data-name="Rectangle 21502" d="M3-.75h9.273A3.754,3.754,0,0,1,16.023,3v9.273a3.754,3.754,0,0,1-3.75,3.75H3a3.754,3.754,0,0,1-3.75-3.75V3A3.754,3.754,0,0,1,3-.75Zm9.273,15.273a2.253,2.253,0,0,0,2.25-2.25V3A2.253,2.253,0,0,0,12.273.75H3A2.253,2.253,0,0,0,.75,3v9.273A2.253,2.253,0,0,0,3,14.523Z" transform="translate(-0.258 -0.246)"/>
    <path id="Path_17548" data-name="Path 17548" d="M15048.3,951.343a.75.75,0,0,1-.75-.75v-3.337h-3.336a.75.75,0,0,1,0-1.5h4.086a.75.75,0,0,1,.75.75v4.087A.75.75,0,0,1,15048.3,951.343Z" transform="translate(-15037.399 -942.71)"/>
    <path id="Path_17549" data-name="Path 17549" d="M3.842,4.592a.75.75,0,0,1-.75-.75V.75H0A.75.75,0,0,1-.75,0,.75.75,0,0,1,0-.75H3.842a.75.75,0,0,1,.75.75V3.842A.75.75,0,0,1,3.842,4.592Z" transform="translate(7.698 10.961) rotate(180)"/>
  </g>
</svg>
