<svg xmlns="http://www.w3.org/2000/svg" width="17.783" height="15.34" viewBox="0 0 17.783 15.34">
  <path id="icon_home" d="M16.84,19.09H12.77a.75.75,0,0,1-.75-.75V14.206H10.263V18.34a.75.75,0,0,1-.75.75H5.442a.75.75,0,0,1-.75-.75V12.577H3a.75.75,0,0,1-.5-1.307L10.64,3.943a.75.75,0,0,1,1,0l8.141,7.327a.75.75,0,0,1-.5,1.307H17.59V18.34A.75.75,0,0,1,16.84,19.09Zm-3.321-1.5H16.09V11.827a.75.75,0,0,1,.75-.75h.488L11.141,5.509,4.954,11.077h.488a.75.75,0,0,1,.75.75V17.59H8.763V13.456a.75.75,0,0,1,.75-.75H12.77a.75.75,0,0,1,.75.75Z" transform="translate(-2.25 -3.75)"/>
</svg>
