<svg xmlns="http://www.w3.org/2000/svg" width="20.877" height="20.877" viewBox="0 0 20.877 20.877">
  <g id="Icon_feather-search" data-name="Icon feather-search" transform="translate(-3.5 -3.5)">
    <path id="Path_86883" data-name="Path 86883" d="M12.89,3.5A9.39,9.39,0,1,1,3.5,12.89,9.4,9.4,0,0,1,12.89,3.5Zm0,16.779A7.39,7.39,0,1,0,5.5,12.89,7.4,7.4,0,0,0,12.89,20.279Z" transform="translate(0 0)" fill="#9f9f9f"/>
    <path id="Path_86884" data-name="Path 86884" d="M29.537,30.537a1,1,0,0,1-.707-.293l-4.562-4.562a1,1,0,1,1,1.414-1.414l4.562,4.562a1,1,0,0,1-.707,1.707Z" transform="translate(-6.16 -6.16)" fill="#9f9f9f"/>
  </g>
</svg>
