<svg xmlns="http://www.w3.org/2000/svg" width="1106.555" height="608.11" viewBox="0 0 1106.555 608.11">
  <g id="map_mexico" transform="translate(-283.486 -2047.804)">
    <g id="Group_67435" data-name="Group 67435" transform="translate(5.208 1.656)">
      <g id="Group_63438" data-name="Group 63438" transform="translate(278.279 2046.498)">
        <g id="Group_58738" data-name="Group 58738" transform="translate(0 0)">
          <g id="Group_58735" data-name="Group 58735" transform="translate(0 0)">
            <g id="Group_58740" data-name="Group 58740">
              <g id="Group_58741" data-name="Group 58741">
                <rect id="Rectangle_16563" data-name="Rectangle 16563" width="1106.555" height="607.76" fill="none"/>
              </g>
            </g>
          </g>
          <g id="Group_63439" data-name="Group 63439" transform="translate(0.386 0)">
            <path id="Path_19936" data-name="Path 19936" d="M-948.33,10198.142l2.1,45.721s70.863,74.207,71.439,76.134,9.7,45.941,9.7,45.941l-3.27,8.5,3.27,12.96,9.795,19.348,6.851,18.186,36.755,4.691,22.985,12.277,43.017-16.969a89.51,89.51,0,0,1,11.109-18.186c7.312-9.267,12.914-10.205,18.728-28.884s17.436,7.1,6.573-25.839-12.023-11.711-20.125-46.309-60.424-1.462-59.3-4.963.224-15.364,8.153-19.853-4.468-1.738,18.417-6.394,24.035-12.762,23.579-15.521,21.945,19.8-11.692-15.123-39.492-5.947-38.456-14.95,5.514-29.6,3.057-33.895-2.915-3.75-10.459-7.408-10.955-8.259-23.451-9.067-5.858,2.9-32.594,0-24.884-10.507-40.263-8.424-18.9-2.517-32.745,8.424S-948.33,10198.142-948.33,10198.142Z" transform="translate(1281.623 -9961.98)" fill="#0a5d5a"/>
            <path id="Path_3899" data-name="Path 3899" d="M257.505,33.46l11.65,4.649,7.328.294,1.455.58,1.427,3.187V45.01l4.94,2.945,12.433,6.385,16.247,17.977,6.6,1.156,10.676,7.838,3.074,4.049,6.834,24.646,10.978,6.089,8.329,4.934,6.436,2.25,7.945,4h.81l1.084,1.547,15.891,5.816.869,1.686-24.719,35.656,10.882,36.847L366.3,206.159l-8.906.758-8.92,10.623-2.964.378-3.966-1.135-2.484-3.041-5.942-.757-4.46,1.9-1.99-.389-1.482-1.893-5.448,2.65-8.412-1.893-4.46-4.934-5.942-.378-9.414-5.017-1.99,2.577H286.4l-1.249,3.933-2.388,1.547v4.376l-9.331.557-.865,2.272,4.515,5.544-3.417,4.408h-2.786l-.178,8.962-7.287,3.26-14-1.221V234.4l-1.962-2.82-3.35-.752-1.316-3.413-2.882-3.041-12.336-.757-2.95-15.19-4.446-3.787.494-4.943-6.436-3.039-1.976-2.273-4.954-.757-3.069,2.131-.9-1.373-2.966.377L197.4,187.93l2.47-2.661-1.482-3.787.494-3.419-3.966-1.9-.494-3.039-4.954-4.176L182.7,157.066l2.809-2.932,5.956-.38,7.918,2.282,2.978-2.282-1.976-8.73,2.47-6.08-3.472-19.355,3.966-.757,1.5-3.419,1.482-14.053-2.484-17.082-1.976-2.661-2.978-17.836-2.455-1.134,1.261-3.427,1.729-12.706h15.218V33.66Z" transform="translate(95.477 17.208)" fill="#0a5d5a" stroke="#377673" stroke-width="0.7"/>
            <path id="Path_3901" data-name="Path 3901" d="M274.68,127.3l-1.5,3.419-3.966.757,3.472,19.355-2.47,6.08,1.976,8.73-2.973,2.279-7.909-2.279-5.969.378-2.964,2.662,2.978,5.7,3.777,6.141L264.265,185l.494,3.039,3.966,1.9-.494,3.419,1.482,3.787-2.47,2.661,2.964,6.837,2.979-.377.895,1.373-3.641,6.588-7.424,5.323-17.1,7.3-3.664,1.3.535-3.566-1.07-2.588-6.875-4.512h1.468l-.741-1.369-2.2-.694v-1.5l-2.045.832,1.153,1.147-3.2.095-1.619.819-4.858-2.482-4.871-7.868,2.7,1.652L217.9,202.7h-3.732l-9.18-1.809-3.239-3.471-2.9-.81h1.811L199.55,194h-2.662l-.576-5.566-1.647-3.892,2.113-.83-.659-.421,1.4-1.242-2.745-.157v-2.734l3.4-.516v-.726l-2.539-.832.165.832-5.407-2.072-.933.157-1.77-2.229-1.619,2.482,1.084.42-1.084,1.652-3.774-4.135-4.336.41-7.685-8.1-3.678-4.733.521-1.24-9.235-3.314-2.264-4.145-6.161-5.795,1.208-.41.961,1.483v-1.9l-3.362-1.242-4.432-4.554-2.429-.421V135.26l-1-1.651,1.7-3.314-1.853-1.651-3.389.22v1.01L135,128.645l-.233-1.663,1.606-3.723-6.477-7.049-2.731-6.205-2.731-.41.467-9.121L122.594,98l-1.633.021v-5l-6.628-8.689-.151-3.733,1.564-4.135.425-1.661,1.386-3.3V69.423l-2.113-2.061-2.429-.189V68.6L111.7,66.758l-1.238.394L102.9,65.3l-5.709-1.874H98.58l-.535-4.67-8.6-4.028h-2.2l-1.084.305,1.084-.105L84.542,57l-7.026-1.242L65.633,47.48l-4.323-.409-10.8-7.459-.919-1.43,1.866-.664,1.235-1.8.095-2.13L51,30.932l4.323-7.1,4.981-.694L71.78,10.854,184.551,58.4H269.26l-1.729,12.706-1.276,3.419,2.472,1.14L271.7,93.5l1.976,2.662,2.484,17.082ZM109.929,65.752l1.493.612-.752-1.054-.741.442" transform="translate(25.635 5.324)" fill="#0a5d5a" stroke="#377673" stroke-width="0.7"/>
            <path id="Path_3903" data-name="Path 3903" d="M.418.472l-.165,2.9L1.735,6.687l.6,4.133L1.282,12.062l-.082.821,1.084,1.242-.439,2.083,2.168-.421,2.154,2.9-.535.833L4.548,19.1l2.168,8.7,1.619,2.482,3.238,2.072,1.084,7.038,2.154.83L15.9,42.7l4.858,2.9L19.135,48.5l-3.829-.41,2.1,2.9v2.281L16.555,54.3l2.374,2.9,3.883,1.651,4.913,7.458.563,3.724-1.606,3.735,2.7.409,6.491,5.386-1.1,11.382,1.1-.2,1.619.41V92.7l3.787.934L42.9,98.19l-1.619,8.7,2.7.83.535,5.387,4.323,2.482,1.084,2.061,2.154.421,8.1,4.965,1.084,2.072,8.645,2.072,7.561,8.279,2.168.832,2.69,5.8,3.787.83,5.338,7.449,3.17,1.242v2.313l3.28,2.661-4.556,7.449,2.333,2.491-1.66,4.966-1.66.41v-1.2l-2.072,1.242,52.708,2.536.686-5.511-3.115-2.473,1.139-4.965-5.379-.4-3.225-1.661L130.945,148.7l-1.784-.41-3.856,1.06-.1-3.965-1.811-1.651-1.894.412.178,1.661-2.113-.423-1.07-1.651.549-4.975-2.69-2.481-.535-2.484-1.962-3-11.541-8.593L98,116.821,95.843,116l-1.619.821-2.7-1.652-.535-3.724-4.323-2.9-3.787-6.628,2.7-8.689L83.411,87.84l.549-8.687L79.637,76.66,80.721,74.6l-2.168-3.314,2.7-11.592,2.7-3.314-1.3-3.955-1.619-.41-4.1-4.743-1.455-3.514,1.866-.662,1.235-1.8.095-2.131-1.824-2.719,4.323-7.078,4.954-.758,11.39-12.381-15.4-6.342,2.292-5.07V.25Z" transform="translate(-0.253 -0.25)" fill="#0a5d5a" stroke="#377673" stroke-linecap="round" stroke-linejoin="round" stroke-width="0.7"/>
            <path id="Path_4412" data-name="Path 4412" d="M474.159,268.573l2.223,1.2.014,2.028.329,3.039,2.648,2.02,3.623.252,1.66,1.777-2.648.505-1.976,1.515H476.4V283.7l.988,2.525-.988,2.534.316.207,1.987,1.306,2.639-.5,1.993,2.006,3.632-2.009.988-3.039,3.623.252.669,1.518,5.19,1.372,2.731.719.659.767-4.3,1.768-3.623,6.826-1.66,6.08-1.317.505-.988,1.767,2.973,5.819,8.252,2.281,3.611-.252,3.319,1.767-2.648,1.524-3.293.253-5.942,1.767.329,3.544.329,4.3-2.649,2.272-1.647,2.787,1.647,2.02.659.043,7.261.473.671,3.041,1.984,2.014,3.958-1.005,2.314-1.521,1.981.7,2.31.819,2.305,4.037-2.886,3.3-1.482,1.524-3.966.191-2.456,1.724-2.237.189-1.235-.757-5.2.378-6.93,3.976-1.249,3.23-1.976-.189L485.562,354l-.758-.386-2.961-1.507,1.235-4.565-.677-.389-1.3-.746-2.717,2.093-2.237.179-2.47,5.7,2.866,1.883.578.38.014,2.1-1.99.946h-2.964l-2.223-1.515-10.9.191-.741,2.65-1.249-.74-.988-.586-2.47,1.515-.909-.828-.752-.687-4.246-1.158-.378-.1-4.281,1.515-1.29-.537-2.347-.978-.988-1.777.329-2.02-4.3-.505-.988-1.526-3.307-2.029-2.635-1.01-.659-2.536,4.611-1.513,4.625-3.292,2.978,1.01.787.911.531.613,1.331-1.021-.886-5.148-.116-.668,1.99-1.526-3.636-2.272,1.317-3.293,2.319-1.262v-2.525l.988-1.333.316-.424-1.3-4.574-.672-4.046.029-.279.314-3.018,3.293-1.01,1.976,2.02.659,1.777,2.978,1.263,2.305,3.544,2.978,1.01,2.305.252,2.319,1.021,4.94-3.293,3.307,1.01,3.964-1.272-.328-1.767,2.978-.758,3.624.5.832-.632.826-.639.659-1.515-3.307-.505-2.635-3.292-3.307,1.01-1.976-1.515.329-1.524-4.3-2.02-2.648-2.272-1.976,1.515-2.978-.505-1.308-1.515-1.327-2.536.329-2.282,3.623-4.554v-2.525l1-1.767-2.316-2.279-3.3.751-.657-1.007,1.3-2.788,2.978.516,2.648-2.282,2.319-2.524,2.978-1.263.247-1.829,2.223-3.041-1.07-1.9,1.318-.757,1.331-3.546Z" transform="translate(223.6 140.81)" fill="#0a5d5a" stroke="#377673" stroke-width="0.7"/>
            <path id="Path_4426" data-name="Path 4426" d="M632.416,386.372l4.693,3.408-2.717,1.524-3.133,1.764-4.291,2.4-41.1,1.146.247-1.326.988-.946-.988-2.283-4.7.629-7.433-4.553-3.458-3.039v-2.083l2.964-.769.247-1.324-3.966-.947-2.237,1.7-2.731.568-4.378,4.945-2.458.188-1.481-.577L554,388.7l-4.191-3.224-3.472-4.554,1.99-2.282,1.729-4.366-3.566.775-1.978-.564-5.442.755-2.229-.755-.892-5.332-1.743-1.515-4.034-2.914-.261-1.893-3.458-1.524v-1.7l-1.729-1.326-1.5-2.661-4.707-2.083-2.964-1.526-1.976-.378-.769.946,2.731,3.8-3.8,6.19-2.3-4.034-2.319-.822-1.976-.7-2.333,1.515-3.944,1.015-1.984-2.014-.659-3.041-7.273-.473-.659-.043-1.647-2.018,1.647-2.788,2.648-2.273-.329-4.3-.329-3.546,5.942-1.767,3.293-.253,2.648-1.524-3.307-1.768-3.637.243-8.238-2.269-2.973-5.821.988-1.767,1.317-.505,1.66-6.08,3.623-6.826,4.3-1.768-.659-.768-2.731-.718-5.19-1.372-.669-1.518-3.623-.252-1,3.039-3.618,2.011-1.981-2.011-2.652.5-1.987-1.306.672-2.742-.988-2.525v-2.787h3.609l2-1.515,2.648-.5-1.66-1.779-3.623-.252-2.648-2.02-.329-3.039v-2.02l-2.25-1.221-2.635.064-1.317,3.544-1.331.767,1.084,1.893-2.232,3.035-3.216-1.96-2.305-.748L454.3,296.52l-2.648.505-2.964,2.787-3.637,1.262-2.305,1.768-1.647-.758-2.635-4.3,2.305-1.01.988-2.788,2.305-1.008,2.4-3.041-1,.329-1.3.429-1.66.262.329-1.272,1.331-.758.645-2.272,2.978-1.021,4.3,2.536.659-.758-.659-2.534,1.99-2.777.988-2.787-.793-.917-1.183-1.366-1.99-.5-1.976-1.515-2.319,1.01-1.317.757-2.635-2.523-2.072-1.4,1.743-1.642-.247-1.577-1.084-2.725-2.305-1.756-.784-1.344L436.24,260.6l2.49-1.3,2.78-1.5.631-1.7-2.607-2.1v-2.955l2.964-.337,1.3-1.994-.31-2.783,4.679-1.536-.8-1.018-2.635-1.01-5.2-3.292,2.217-2.78,4.713,1.454,1.747-.438,2.2-2.16,2.978.505,2.223,1.515,2.978,1.336,3.966,1.324.329,3.041,2.305.252,2.443-1.242,6.285,8.932,3.225,4.365,9.729,6.553-2,8.848-2.168-4.977-1.3-2.051-1.949-2.272-7.41-1.694,3.787,5.375,2.964,1.272.81,2.871,8.947,13.043,1.866,2.682,1.605,4.566,7.6,6.142,12.391,10,9.18,9.108,3.321,9.1.453,1.251,2.182,1.661.522,4.135,5.407,3.314h2.154l.343,9.6.782,1.453H539.6l2.7,5.8,5.942,2.072h1.084l3.774,1.578,2.168.9h15.108l7.012,4.144,4.336.589,4.858.664,10.429,7.174,4.858,2.9.316.723,19.335.287-1.8,1.053-2.347.031-2.551-.3,1.645,2.592,2.377-1.7.93.36,1.452-.166,2.02,2.816,2.717.569,4.707,1.324,3.719,3.43-.247,1.515Z" transform="translate(228.517 123.235)" fill="#0a5d5a" stroke="#377673" stroke-width="0.7"/>
            <path id="Path_4428" data-name="Path 4428" d="M455.135,156.85l6.5,1.388,7,3.408h19.088l6.642,4.3,4.913-.821h1.866l.851-1.073.535,1.062,2.168-.926,1.413-.241-.343,9.7-12.542,22.389-.426-2.118,4.322-7.037-.535-2.9,1.084-.832L492.8,181.9l-.535.831,1.619.41-1.619,4.354-.535-.619h-2.594l.425-.864H487.74l-1.413,2.63,1.084,2.629-1.276,3.872.192,1.724,3.787,2.041-1.619,1.629-2.7.41,1.619,1.242-.535,4.144,1.619-.421-1.619,6.785-2.154-2.324h-1.935l-.769,1.745h.769l-.233,1.977,1.084.664,3.774-.9L485.791,225l-.535-.432-.535,1.231,1.619.41.535,7.447-1.084.831.549,4.133.631.937-.631,9.835,1.523,11.266-2.058,5.291-2.717,1.24,1.084.832-1.619,3.314,1.715.894-.1,1.588,3.691,9.214-2.44,1.24-2.308-.252-.329-3.039-6.93-2.661-2.223-1.515-2.978-.5-1.66,2.02-.558.139-1.747.429L462,277.437l-2.649,1.021-5.777-.263-2.47,1.272-4.294.505-1,1.005-5.6-2.52-6.271.252-6.614-8.1-3.626.5-2.632-2.279-1.386.757.955,3.021-4.522-.99-6.944-2.536-6-.757-2.69-1.262v-1.758l5.654-4.06L406,260.058l-.52-.435-2.042-1.414-1.262-2.787-3.063,1.4-.916-1.648V253.4l1.249-1.263-1.757-2.787,2.443-1.01,4.679.505,1.012-1.016-2.289-4.548,3.96-7.593,10.9,1.009,1.66-2.534,2.319-1.767-.329-3.293-6.271-4.051-.672-3.039,2.319-3.8-1.647-4.808-2,.459-1.3.3-.672-2.525,4.964-3.038,2.3.491,2.632-3.535,1.429-.182.569-.069,3.944-2.02,4.317,1,.988-.505-1.317-2.272,1.317-1.526-.329-1.515-1.331-1.526,1.99-1.513,4.617-2.017,3.219,1.764,3.046-1.895,13.215-8.224,2.978-3.293-5.612-.253Z" transform="translate(208.29 82.076)" fill="#0a5d5a" stroke="#377673" stroke-width="0.7"/>
            <path id="Path_4430" data-name="Path 4430" d="M412.477,124.729l1,.143,4.1.583,6.751,2.609,3.184,11.307,6.134,13.621,5.338,5.807,3.046,4.923,3.8,2.9,14.752,3.187,5.3,3.482,3.156.558L469,198.4l5.613.253-2.978,3.292-13.2,8.224-3.046,1.895-3.211-1.767-4.638,2.02-1.976,1.513,1.3,1.526.329,1.526-1.317,1.515,1.317,2.283-5.161-.494-4.088,2.009-.541.069-1.421.172-2.639,3.544-2.3-.494-4.981,3.041.659,2.534,1.331-.308,1.978-.453,1.659,4.8-2.319,3.8.659,3.039L436.3,246l.329,3.282-2.305,1.777-1.647,2.524-10.9-1.019-3.98,7.6,2.3,4.548-1.009,1.015-4.586-.5-2.539,1.008,1.757,2.788-1.224,1.239-7.242-.375-.2,1.562-.134,1.077h-3.156l-.381-.42-1.485-1.768-.1-.442-.81-3.912.659-4.008-1.331-2.293.672-5.332-4.954-6.838-.659-11.391-3.623-3.8-4-2.784-1.484-1.356-.2-1.729v-3.241l-.137-3.8,3.444-2.534-4.268-2.02,1.5-5.07,6.038-2.777,3.28-.178,7.177,1.913,5.791-.978,1-2.273-1.936-1.045-1.366-.731-6.6-.253-.329-1.524-5.283-2.272,1.647-1.274-1.345-1.262-3.636-1.262-4.336-4.565L382.7,189.04l.247-2.083v-2.472l-3.4-.778v-2.755l.48-2.788-3.911-.758-1.3-2.073-1.355-1.611-2.975-3.405,15.575-10.372,2.96,2.69.375.34L392.7,160.7l-.974-1.01,2.319-4.3,1.317-5.575-3.307-.252-2.305-1.515-2.635,1.777-2.649-.252.645-4.313,5.283-4.554,7.232-3.041,3.925-8.605,1.455-.667,4.076-1.867,5.393.368Z" transform="translate(194.014 65.189)" fill="#0a5d5a" stroke="#377673" stroke-width="0.7"/>
            <path id="Path_4432" data-name="Path 4432" d="M376.366,79.832l6.422,1.736L393,83.314l4.172,4.06.384,2.314,4.528,3.187,9.084,3.482,2.648,2.609,1.88,2.9,4.172,4.06,4.158,6.953,1.894,5.807,3.389,4.923,5.681,5.511,3.033,4.354,6.573,6.08,3.722,8.916-1-.143v2.1l-5.009-.3L437.842,152l-1.592.667-3.856,8.6-7.2,3.041-5.256,4.554-.659,4.313,2.662.252,2.648-1.777,2.305,1.515,3.293.252-1.317,5.576-2.305,4.3.974,1.01-3.292,2.263-3.35-3.019L405.32,193.92l2.975,3.405,1.355,1.61,1.3,2.073,3.911.758-.48,2.788v2.755l3.351.767.052,2.484-.412,2.093,1.619,2.272,4.624,4.554,3.787,1.272,1.4,1.263-1.606,1.272,5.3,2.272.343,1.526,6.3.23,1.666.741,1.938,1.045-1,2.275-5.783.976-5.757-1.986-1.139.15-3.568.1-6.038,2.777-1.5,5.07,4.268,2.02-3.444,2.536.137,3.8v3.239l.2,1.73-2.542.069-2.264,1.021-6.326-3.535-1.221-2.777-2.319-1.526-5.269-.252-3.318,2.028-5.272-1.018.988-2.02-1.647-1.272-2.635,1.01-2.319-1.263-2.635-4.554-15.849-4.554-2.978.525-9.894,1.747-7.932,11.644-2.648-1.021-.988-1.513-7.259-1-4.967-4.3-.645-3.041-1.331-1.513-2.305-.253-4.954-5.564.659-2.536,3.307-1.262-2.635-3.292.988-3.039,3.966-3.535.329-4.808-.988-1.777-.659-5.059,3.293-5.07-.988-3.03-12.872-11.013L304.1,147.643l24.708-35.694,1.779-2.832,7.177-7.236,5.3-13.338,4.172-2.325,4.542-.589,7.177-2.893,11.733-1.167Z" transform="translate(159.18 41.587)" fill="#0a5d5a" stroke="#377673" stroke-width="0.7"/>
            <path id="Path_4493" data-name="Path 4493" d="M70.312,112.863l21.778,1.231,30.56,1.24,2.017.9-1.551,5.143,5.956,6.628,2.7.41,5.393,2.9,1.084,6.205,2.882,3.314-1.427.41v1.083l10.072,3.482-3.06,2.893,6.024,4.554.59-.819,10.278,5.795-.521,4.966,4.323,2.072-1.825,2.9,2.5,2.482v3.061l2.292,4.386-1.482,4.565,1.153,3.724,1.112.421-.521,1.651,2.7,2.072,1.633,4.554,5.407,1.663-.535,3.292,2.7,3.723,1.084,4.145,1.619,2.9,3.774,2.482,2.168,3.3.535,3.735-3.239,6.626,1.619,6.617,2.168,2.9,3.774,2.061,3.636.421,1.77,2.9,3.774-2.072-1.084-4.566,3.252-.409,2.69,3.312,4.871,2.9,1.619,3.724,1.07.83,3.787-.83,1.084,1.24-2.072,2.9,4.419,4.145v3.987l7.973,3.05,2.4,4.965-.961,5.8-3.184,3.314-4.83,1.651-2.69,2.577-5.914,2.977h-5.242l-2.868-3.482-2.7-11.182-4.858-7.447-11.884-5.805-14.052-12.413-14.573-7.458-5.407-4.554-1.619-3.724-1.084-.421-1.07,1.242-3.252-1.042,1.084,1.453h-1.949l-.22-3.819-5.064-6.9L142.643,219l-3.307-.325-2-3.724,1.235-2.472V210.51l-.8-.043.371-4.618,2.758-2.891.892-11.36-.933-1.694-.453-2.684-4.323-8.7-1.619-2.072-1.619.42-.535-5.386-2.7-1.24-1.221.831-2.305-1.242v-.989l-4.679-.253-3.732-2.9.563-.821-11.019-6.847L106.375,157l-4.323-1.652-.535-.83-4.8-2.482-1.678-.853L91.253,154.3H88.879l-4.117-3.114-4.3-5.6H74.772l-5.654-5.975-2.154-.83-1.633.821-4.858-1.652-.535-1.661-1.619-.41-1.084-5.8-7.012-3.733-2.95-2.893-2.95-1.242v-.978l-.8.157-1.249-1.661-1.976-.41-.439-3.913,1.715,1.463h5.667l7.836,2.618h3.458l6.793-2.861.631.159,1.839-2.463Z" transform="translate(20.531 58.952)" fill="#0a5d5a" stroke="#377673" stroke-linecap="round" stroke-linejoin="round" stroke-width="0.7"/>
            <path id="Path_4549" data-name="Path 4549" d="M271.364,223.084l8.247.243,9.249,3.555.659,2.525,1.317,2.534-5.283,2.272-1.8,2.063,5.269,2.019,3.472-1.546,3.719-1.988,3.623,1.262,1.564,3.26.672,2.409,3.952,2.472H310.5l.974,3.408.755,1.62-2.4,5.018,3.142,2.661,3.8,2.914,3.307,2.261-3.307,9.183,8.92,5.059-.494,1.967-2.662,2.02-6.93.757v1.526l1.647,1.767v2.031l-.988,2.029-3.637,1.768-.645,6.321-3.966-3.039-2.648-.748-3.966-3.808-3.294-.252-2.305-1.515-2.648-1.262-2.964,1.01-3.307,2.283-4.3-.253,2.648,2.83-1.66,2.02-4.076,3.8-.535.5L277.773,296l-3.252.41,2.69-2.514-4.844.442v-8.027l3.238-1.251,1.084-4.956-1.084-3.733,1.962-2.409.741-.9-.535-1.651L270.6,268.82l-2.017-.726-2.154-5.386-5.956-7.037.165-3.166.384-8.426-3.239-4.554.34-.516.209-.316,1.894,1.094.494-.578-.494-1.42.617-.284.947,1.01,2.978.262,2.648,1.01,2.635-2.029-.133-.713-.2-1.056-.764-1.454-.474-.9-2.429-1.967-.3-.229,1.66-3.292,2.616-.752-1.357-1.477-.285-.305Z" transform="translate(134.875 116.896)" fill="#0a5d5a" stroke="#377673" stroke-width="0.7"/>
            <path id="Path_4551" data-name="Path 4551" d="M213.458,138.435l4.954.757,1.976,2.282,6.45,3.03-.508,4.943,4.46,3.8,2.964,15.179,12.364.757,2.95,3.041,1.441,3.418,3.376.758,1.962,2.819v4.849l.686,5.607-1.99,6.069,2.484,7.973,3.966,6.08,5.448,1.524,3.458,4.556,4.46,6.08-1.482,3.039,4.46,3.8,5.448-1.137,2.964-2.661,7.932,3.419,3.472,6.069,2.484,3.039-1.5,2.662-.494,3.418,1.482,1.515,1.482,4.933,4.46,2.273.988,6.08,2.978,2.65v2.283l3.472,1.893,4.46-.368.445,2.731-3.2,2.517,1.642,1.784-2.616.752-1.66,3.293,2.728,2.2.474.9.961,2.51.133.712-2.635,2.031-2.648-1.01-2.978-.264-.947-1.009-.617.284.494,1.42-.494.578-1.853-1.231-.864.453-2.154-4.145-6.491-4.975.549-.821-1.619.41-7.012-7.037-5.956-4.145h-1.619l-3.787-7.036-10.264-7.868-3.239-6.207-4.858-4.554-2.154-1.24-7.575-4.975-18.374-10.172.535-.41,8.659,3.955,2.168.421,1.084-.831-1.633-4.144h-2.154l-.535.421,1.619.409-3.238,1.242-1.084-1.242-2.7-.409-2.7-2.893-4.323-1.663,1.468,2.115-4.158-2.525-2.168-4.144,2.7.831.535-.421-.3-1.893.192-2.188-1.674-1.494-.37,3.5-1.619-.41-.549.821-1.084-.821-4.007-5.207-3.019-3.071h1.633l3.774,3.724,1.619.409v-1.24l-1.07-.41,1.07-.832,1.084,1.242,3.787.421-1.619-2.493-2.7-1.242-1.619.421-1.619-2.072h-4.871l.357-.4.727-.021v-2.061l-1.619-.421-.741,1.346-.343.316-1.619-2.072-8.81-2.65,2.333-.664-2.168-1.24-1.359-.021-1.345-1.221-1.07.41.535-3.724-4.858-.83,1.084,2.072-1.619,1.242-1.084-1.242h-2.7l-.535,1.242-2.7-2.484,2.154-.651,2.168-.589.535,1.24,2.292-2.777-1.043-.915-4.487,2.031h-2.7l-1.084-2.061-3.225-1.253-1.084-.819-2.7-1.663-1.619,2.482-1.084-3.723,1.084-1.652v-.41L171,172.948l.535-2.893,5.942-6.217v2.493l2.8-4.534,1.084.831,2.594,2.452,1.084-2.484-2.154-.819-.38-1.962,17.094-7.326,7.424-5.323,3.472-6.458Z" transform="translate(89.053 72.395)" fill="#0a5d5a" stroke="#377673" stroke-width="0.7"/>
            <path id="Path_4692" data-name="Path 4692" d="M371.849,180.318l15.863,4.554,2.635,4.565,2.305,1.263,2.648-1.01,1.647,1.262-.988,2.02,5.272,1.018,3.316-2.028,5.271.253,2.319,1.524,1.221,2.777,6.326,3.535,2.264-1.021,2.209-.368.332.3,1.493,1.341-1.949,3.03-5.626,2.536-2.418,3.291-1.863,2.536-2.255,2.777-3.7,4.554-6.354,4.313-7.506,2.536-2.319,3.05L388.7,230.2l-5.283,6.606-1.976-.442-4.309,1.01-2.923-.168H373.18l-1.317,2.3-1.631,1.1,2.606,4.017-.974,4.333,2.3,5.062,5.949,2.868,5.626,4.818,3.2,4.107,3.615.153,1.331-1.146,3.719-1.8,3.225-2.693,3.225.179,2.47,1.326,1.729,2.261-.741.957-2.47,1.336.494,2.283,1.233,3.247-1.22,7.841-1.482,1.041-2.183,2.6-3.813.436-5.489-3.041-6.669-2.524-5.9-2.031v-3.8l-1.262-1.221-1.935-.473-.48-2.209H373.18l-3.623-3.355-1.331,1.945-3.307,1.01-3.65,1.768-3.664.505-1.043,1.524-2.1,4.051-2.854,1.262-2.1,3.3-3.554,1.64v3.682l3.719,3.041-.261,1.524,2.648,1.536,4.625,1.294.329,3.355-1.99.621,1.66,1.515-.81,2H352.72l-.659,1.41-2.648-.095-1.976,2.018-7.273-1.514-.988,2.019,1.331,3.546-2.648,1.515-1.976-.769-3.307-.757-3.307.757-2.635-1.767-2.319.252-2.635-.757-2.635-.505-1.66-2.031-4.624.264,2.305-4.565.329-4.807,1.647-.757,2.621,1.009,2.937-1.777-.4-5.564,4.487-4.807,5.681-2.882,2.443,1.369.919-1.536v-1l3.211-1.767-1.084-2.031L341.5,273.2l.645-2.02-2.964-1.515-3.65.757-.659-1.008,1.605-.505,1.276-1.779-7.026-4.3-2.841,2.282-.741,1.767.645,1.788v3.271l-1.413,1.021L326.291,276l-3.636-1.272L319.677,276,318,274.22l.274-1.767-.425-2.536,2.442-7.088-5.009-2.777-2.278,2.661v3.913l-2.607,5.059-.288-4.556,1.317-2.524-.329-3.8,2.978-1.526.645-2.788-9.235-1.01-.988,3.292.329,3.293,2.964,1.515.343,4.049-1.99,2.536-4.3-.253-8,2.052,4.309-15.5-.261-10.341,2.964-2.788,1.331-7.331-1.331-1.526.988-1.515,7.273-3.039.329-2.209,3.636.694,1.647-1-3.307-2.514.329-2.734-1.647-1.442,1.276-1.788h1.7l-.069-1.683v-2.261l9.935-4.807.041-2.787,3.293-.767,1.66-3.051,7.259-1.283,2.305,1.21,13.215,1.42,3.719-.789H363.6l1.976-2.925-1.317-10.771-5.28-7.831,9.9-1.762Z" transform="translate(153.803 94.413)" fill="#0a5d5a" stroke="#377673" stroke-width="0.7"/>
            <path id="Path_4715" data-name="Path 4715" d="M439.307,252.02l1.99,5.891,1.235,3.608,3.458,3.039,3.719-.578.508,1.337,2.47.568-3.719,1.135h-4.2l-2.978.947-2.731.757-3.225-.757-.988,1.137-1.729.2,1.235,1.893-1.235,1.514v1.526L429.4,278.6l-1.729,2.652,1.476,2.095-3.96,1.512-5.448,1.337-2.978.567-.741,3.8-.823,4.429-1.976,1.513.659,2.536-2.635.505-4.617,4.032-1.723-2.212-1.262-2.073-2.978-2.083-3.458-.957-1.235-1.515-.741-2.272-2.978-.767-.494-2.083-1.729-2.093.988-1.7-1.99-1.337-.974-2.082.012-.18.221-3.428,3.719-3.8,2.223,1.137h2.731l2.731-1.893,4.213,2.083,2.964-1.894-.247-1.7.494-2.093,2.223-.946.755-2.852,3.458.189,1.482,1.515,3.472-.757.988-.948,2.978-1.146-.247-1.7H419v-2.461l-1.2-1.668,1.448-1.941.261-2.282,2.223-.378,2.223,2.093,1.743,1.7h2.223l2.978-.568,2.223-.189.741-3.039h1.729l1.743-.569v-1.514l1.5-.871Z" transform="translate(203.232 132.108)" fill="#0a5d5a" stroke="#377673" stroke-width="0.7"/>
            <path id="Path_4717" data-name="Path 4717" d="M399.69,193.427l4,2.784,3.623,3.8.659,11.391,4.954,6.838-.672,5.332,1.331,2.293-.659,4.008.808,3.912.125.6,1.458,1.61.381.42h3.156l.134-1.077-.258-1.427,7.671.264v1.767l.659,1.777,3.019-1.526,1.455,2.787,2.151,1.414.538.354-.288,1.272-5.269,4.06v1.758L431,249.1l6.065.757,7.095,2.536,4.679,1.01-.961-3.041,1.345-.757,2.648,2.282,3.636-.5,6.614,8.1,6.271-.253,5.613,2.525.988-1.01,4.3-.043,2.484-.789h3.8l2.388,1.5,5.2,3.082,2.635.9.8.912-4.681,1.507.313,2.813-1.3,1.994h-2.964v3.492l2.607,1.9-.631,1.7-2.037,1.109-.744.389-2.5,1.278,1.865,3.232.77,1.335,2.319,2.493.624,2H488.95l-2.47.757-1.235,2.272,1.157,2.174-.663.687-2.484-1.146-4.2.757-.508,1.147h-1.729l-.988-1.526-2.47-.568-.508-1.337-3.719.578-3.458-3.039-1.235-3.608-1.99-5.891-.476.276-2.653.871v1.61l-.59.441h-1.4l-1.07,3.071-2.223.189-2.978.569h-2.223l-1.743-1.7-2.223-2.093-2.223.378-.261,2.283-1.482,1.893-1.729-1.7-3.472-.578L431,286.62l-.741-.757-3.705-1.337-1.249-1.893-6.683-.568-3.411.615-.8.142-1,3.23-1.715,1.326-2.731.568-2.223-1.515-2.225.188-1-.758-.991-.766-3.225-.946-4.693-4.354-3.472.189-3.472.378-3.458-1.137-1.729-1.713h-5.709l-1.168-1.006,2.183-2.6,1.482-1.042,1.221-7.836-1.235-3.25-.494-2.282,2.47-1.337.741-.957-1.729-2.273-2.484-1.324-3.211-.2-3.225,2.661-3.719,1.588-1.729,1.388h-3.124l-3.312-4.5-5.626-4.617-5.937-2.8-2.3-5.062.988-4.312-2.619-4.037,1.631-1.1,1.317-2.3h1.029l2.923.169,4.309-1.01,1.976.441,5.283-6.6,3.293-1.272,2.319-3.051,7.506-2.534,6.353-4.3,3.7-4.565,2.257-2.777,1.862-2.536,2.42-3.282,5.612-2.525Z" transform="translate(180.088 101.305)" fill="#0a5d5a" stroke="#377673" stroke-width="0.7"/>
            <path id="Path_4844" data-name="Path 4844" d="M380.041,248.538l1.729,1.715,3.458,1.135,3.472-.378,3.431-.186,4.734,4.351,3.225.958.991.754,1,.76,2.225-.189,2.223,1.515,2.731-.567,1.729-1.326,1-3.228.788-.143,3.411-.615,6.683.569,1.249,1.893,3.705,1.335.741.758,4.707,1.7,3.472.58,1.729,1.7,1.235,1.713v2.462h3.225l.247,1.7-2.978,1.146-.988.946-3.472.758-1.468-1.515-3.472-.189-.755,2.85-2.223.947-.494,2.083.247,1.715-2.964,1.894-4.213-2.083-2.731,1.893h-2.717l-2.237-1.137-3.719,3.8-.221,3.427.962,2.264,1.985,1.332-.983,1.707,1.729,2.093.494,2.083,2.978.769.741,2.272,1.235,1.515,3.458.957,2.978,2.083,1.232,2.076-3.688.565-4.707,1.713-4.213,1.9-3.211-.189-6.2,2.652L395.4,308.9l-2.47-2.85-1.482-2.283-2.237.2-3.225.757-2.717,1.137h-1.743l-1.729.757-1.235-2.083-2.717-2.282-1.743-4.554-.494-2.284-5.2,1.137-1.482,1.715-1.743,1.146h-2.964l-2.223-.2-2.731.758-1.235-1.515-.755-3.23-1.976-.568-.494-1.146-3.705.389-.508-2.452,4.707-2.65,2.223-.767-1.235-1.7-4.46-1.337-.741-3.6,3.472-2.85,1.729-3.041,5.448-5.133,4.46-5.123,2.964-.378,2.717-.946-.233-1.893-1.99-2.473-.494-1.9,1.976-1.893,2.237-1.337,1.235-1.893-1.235-1.893,2.693-1.9.271-.192Z" transform="translate(182.524 130.277)" fill="#0a5d5a" stroke="#377673" stroke-width="0.7"/>
            <path id="Path_4858" data-name="Path 4858" d="M731.46,240.575l11.335,1.242,2.168.409,5.124.716.817.116-.8,1.262.329,6.574,1.153,6.838-5.942,12.149-49.352,46.9L658.662,281.2l-1,1.137-1.111.568-1.606-.189-2.593-.568-1.5-.38V281.1l-.124-.851-.618-.389h-2.47l-2.594.095-1.125-8.343.343-2.755-.316-2.209v-1.23l1.537-.969,7.108-4.417,8.247-3.314,3.088-1.242,16.371-3.039,5.8-1.083,13.476-2.5,5.407-1.242,3.773-2.893,5.393-1.661,8.11-.41,3.238-1.661Z" transform="translate(337.491 126.091)" fill="#0a5d5a" stroke="#377673" stroke-width="0.7"/>
            <path id="Path_4877" data-name="Path 4877" d="M458.193,257.749l.261,1.578-1.743,1.642,2.063,1.393,2.644,2.53,1.331-.757,2.305-1.01,1.976,1.515,1.99.5,1.182,1.365.791.914-.985,2.791-1.99,2.777.659,2.536-.659.757-4.3-2.536-2.978,1.021-.645,2.272-1.331.758-.329,1.272,1.66-.262,1.3-.429.983-.323L460,281.091,457.7,282.1l-.988,2.787-2.305,1.009,2.635,4.3,1.647.758,2.319-1.768,3.623-1.262,2.978-2.788,2.635-.5,2.978-3.787,2.305.748,3.216,1.961-.224,1.837-2.978,1.272-2.319,2.524-2.645,2.281-2.953-.513-1.331,2.787.645,1.009,3.31-.754,2.316,2.279-1,1.767v2.525l-3.623,4.554-.329,2.283,1.317,2.525-2.964.264-2.978,2.777-2.635.252-4.94-.494v-4.565l-1.99-1.262-2.978-1.263h-3.293l-1.331.81-.329.2-2.305-.5-1.66,1.777-2.319-2.018,1.317-1.515v-1.526l2.648-2.02-1.317-1.272-2.964,1.272-3.307-.767-3.636,1.526-2.635.757.329,2.276-.329,1.775h-2.635l-.988,1.767H423.7l.329-2.536-1.647-.252-1.99-3.787,1.647-1.526-1.976-3.282-3.637.252-4.954-1.272-3.307-2.019-2.305-1.768.823-4.438.741-3.787,2.978-.568,5.448-1.337,3.966-1.515-1.482-2.093,1.743-2.661,3.719-4.365V269.7l1.235-1.515-1.235-1.893,1.729-.189.988-1.135,3.225.757,2.717-.757,2.978-.958h4.2l3.719-1.135.988,1.524h1.729l.508-1.146,4.2-.758,2.484,1.147.663-.688-1.051-1.991-.107-.182,1.235-2.273,2.47-.757h1.729Z" transform="translate(212.574 135.12)" fill="#0a5d5a" stroke="#377673" stroke-width="0.7"/>
            <path id="Path_4912" data-name="Path 4912" d="M292.851,318.323l.155.368-.3-.166-6.587-3.653-3.376-3.46-1.125-3.45L277.1,305.8v-5.007l-2.36-2.714,4.4-3.482-1.688-6.48-6.71-5.6,1.262-4.365-1.125-2,3.612-1.388Z" transform="translate(141.68 144.065)" fill="#0a5d5a" stroke="#377673" stroke-width="0.7"/>
            <path id="Path_4913" data-name="Path 4913" d="M292.851,318.323l.155.368-.3-.166-6.587-3.653-3.376-3.46-1.125-3.45L277.1,305.8v-5.007l-2.36-2.714,4.4-3.482-1.688-6.48-6.71-5.6,1.262-4.365-1.125-2,3.612-1.388Z" transform="translate(141.68 144.065)" fill="#0a5d5a" stroke="#377673" stroke-miterlimit="10" stroke-width="0.7"/>
            <path id="Path_4917" data-name="Path 4917" d="M453.482,291.959l1.308,1.515,2.978.5,1.976-1.514,2.648,2.283,4.281,2.009-.329,1.524,1.99,1.515,3.307-1.01,2.635,3.293,3.307.505-.659,1.515-.826.639-.833.632-3.624-.5-2.978.758.328,1.767-3.964,1.272-3.307-1.01-4.94,3.292-2.319-1.021-2.305-.252-2.978-1.01-2.305-3.544-2.978-1.263-.659-1.777-1.976-2.02-3.307,1.01v-2.019l-1.4-.943-1.244-.836.329-1.262h2.648l1.647-1.262,4.954.494,2.648-.253,2.978-2.777Z" transform="translate(228.026 153.104)" fill="#0a5d5a" stroke="#377673" stroke-width="0.7"/>
            <path id="Path_4931" data-name="Path 4931" d="M426.885,294.952l1.641.252-.316,2.029,6.271,4.556-.672,2.523,1,2.031-1,1.01,1.331,1.272-.98,2.266-4.3.752-.717-.2-1.926-.554-3.976-.233-.3-.018-1-2.031-.988-2.018-2.305-2.788.985-2.267,4.284-1.773.671-2.278.976-.5Z" transform="translate(219.283 154.678)" fill="#0a5d5a" stroke="#377673" stroke-width="0.7"/>
            <path id="Path_4977" data-name="Path 4977" d="M320.315,297.6l2.978.5,1.976,1.767,2.319,1.777.659,3.282-.988,4.061,1.976,1.767.988,1.515-4.281,3.039-2.319-.516-.111.43-.561,2.105-1.976,1.526L318,321.13l-8.631-5.785-3.9-1.231-9.729-3.071-.535-2.9-4.213.168-5.887-1.692.069-.095.3.168-.156-.368,2.31-3.157,1.99.767,1.976-1.272,3.307-.252,3.623-.758,4.3-.252,3.636-2.787.988-1.01,8.577,1.515Z" transform="translate(149.211 156.069)" fill="#0a5d5a" stroke="#377673" stroke-width="0.7"/>
            <path id="Path_5033" data-name="Path 5033" d="M732.878,242.242l-.8,1.263.329,6.573,1.153,6.838-5.942,12.149-49.346,46.9,4.35,41.855,5.736,1.272,7.506-7.889v-4.071l3.938-5.09,3.211-1.263h4.309l3.225-2.293,2.141-7.636,3.225-3.051,2.141.758.371,10.939,3.211,1.788,2.511,4.322,2.141,1.779,2.154.262.714-.516.714-5.09,1.084-4.577.7-4.322,3.938-12.465,1.427-4.335h-3.938l-2.5,1.021-.714-3.3,4.652-3.3,1.427-2.809v-2.545h-2.5l-2.511,1.79-2.155-.769-.714-1.021,1.8-4.576,5.366-4.081v-4.324l-1.784-4.069.343-7.627,8.59-8.658,5.736-8.141v-2.8l2.141-8.645-.713-6.365-1.427-1.272-2.154-1.272-3.376-.494-10.525-.958Z" transform="translate(355.517 126.906)" fill="#0a5d5a" stroke="#377673" stroke-width="0.7"/>
            <path id="Path_5042" data-name="Path 5042" d="M413.464,280.184l2.305,1.777,3.307,2.02,4.94,1.273,3.643-.252,1.984,3.282-1.661,1.513,1.99,3.8,1.647.253-.329,2.534h1.99l1-1.767h2.635l.329-1.767-.329-2.282,2.635-.758,3.636-1.524,3.307.767,2.964-1.272,1.311,1.266-2.642,2.026v1.515L446.81,294.1l2.319,2.031,1.657-1.776,2.295.514.343-.212,1.331-.809h3.293l2.964,1.262,1.99,1.272v4.556l-1.66,1.262h-2.648l-.329,1.262,1.244.835,1.4.954v2.031l-.3,3-.029.275.659,4.06,1.318,4.563-.316.426-1,1.344-1.976.23-1.317,1.021-3.307.505-2.642.252.291-1.008.375-1.272-4.287-2.017.98-2.264-1.331-1.274,1-1.01-1-2.029.672-2.525L442.528,305l.316-2.031-1.641-.252-1.32,2.025-.979.5-.669,2.273-4.286,1.779-1,2.276,2.305,2.787.988,2.02,1,2.023-2.316,2.531V322.7l-3.293,1.01-.971,1.777-.689,1.263.328,1.768L428,330.3l-2.978-.505-2.635-1.515-2.305.758-2.648,2.777-4.954.262-4.954.757-2.319,3.8-2.305.505-2.964,2.787-3.966-1.524-2.95-2.8-.343-4.556-1.317-4.806.329-.476,2.648-3.826,1.317-2.02-1.317-2.787,2.305-3.149.645-.879-.628-3.3,3.606-1.77-1.3-4.565,1.647-3.8,1.647-3.544.645-.658,1.331-1.352.014-3.05.659-2.282,4.611-4.04,2.635-.505-.659-2.534Z" transform="translate(204.966 146.914)" fill="#0a5d5a" stroke="#377673" stroke-width="0.7"/>
            <path id="Path_5050" data-name="Path 5050" d="M424.633,305.233l.322.015,3.976.233,1.927.554.707.2,4.3-.757,4.3,2.02-.375,1.272-.3,1.01,2.648-.253,3.307-.5,1.317-1.019,1.976-.243v2.525l-2.305,1.262-1.317,3.292,3.623,2.272-1.976,1.515.116.679.872,5.149-1.317,1.009-.529-.6-.788-.911-2.978-1.01-4.625,3.293-4.621,1.513-2.308-2.272-1.647-3.039-2.648-.505-.316,3.039-2.319.505L421,323.954V322.2l-1.976-.767-1-1.767-1.976-1.021-.659-1.515,2.3-1.776-.326-1.761.688-1.271.967-1.77,3.3-1.018v-1.756Z" transform="translate(217.575 160.083)" fill="#0a5d5a" stroke="#377673" stroke-width="0.7"/>
            <path id="Path_5108" data-name="Path 5108" d="M674.738,324.526l.466,8.73v17.556l-11.445.252-2.129.764-1.165-4.9.985-1.523-1.987-.949-1.715-.4-.755-.174-.259-1.706-5.188-1.144-.261-1.893-1.725-3.221-4.446-.952,1.078-1.484-3.47-1.9-2.223,2.272-7.781-1.556-2.237.578-7.918,2.461-1.249,1.893-11.39,8.163-2.223,1.9-2.484-.188-.974-.757-3.225-3.608h-5.928l.727-2.852-.235-3.417,1.223-1.515-.247-2.275-4.707-.766-2.072,4.577-1.235-.551-1.743-.775-2.7-.189-1.247,1.135-1.769.3-.255.719-.1.294,1.154,3.019-2.4,1.8-.48.307-.508,2.661-4.213,5.123-4.693-3.419,1.729-2.841.247-1.524-3.719-3.419-4.693-1.336-2.731-.557-1.729-2.85-.3.032-1.424.157-.944-.36.494-.356.368-.262,2.066-.679,9.269-3.045,1.084-.41,8.645-3.314,7.012-1.24,10.264-.421H596.3l8.632-.821,9.153-11.066.617.221.453-1.041,7.932-1.652,2.305,2.156.494,2.4,1.5,1.147,2.154-.883,5.681-.2,1.331,9.614,1.317.389.823,1.642,3.046.316,1.661,1.514,1.482.5.329,1.021-.343,1.22,3.677,2.272,4.474-.462-5.489-1.221.342-.729,1.8-3.837.152-.325.672-1.124.313-.523-.491-1.391.5-1.642.159-.516,3.458-.378,2.153,1.524,2.074-.114,2.772.516,2.429.357,1.647,1.767ZM581.55,334.9l1.151-2.009-.988,1.135-.163.874" transform="translate(291.364 162.665)" fill="#0a5d5a" stroke="#377673" stroke-width="0.7"/>
            <path id="Path_5110" data-name="Path 5110" d="M666.277,260.548l.494.568,1.125,8.343,2.594-.095h2.47l.617.389.123.851v.662l1.5.38,2.593.568,1.606.189,1.111-.568,1-1.129,37.639,35.572,4.344,41.861-5.365.5.357,3.312v1.021l-65.868,6.291-1.151-8.651-9.237.615-1.647-1.768-2.429-.357-2.772-.516-1.935.108-2.292-1.518-3.458.378-.157.516-.515,1.652.5,1.382-.313.522-.686,1.124-.139.325-1.8,3.837-2.661-1.08-.329-1.019-1.482-.505-1.66-1.515-3.046-.316-.823-1.64-1.318-.391-1.331-9.614-5.445.192-2.391.891-1.5-1.146-.494-2.4-1.729-2.157,17.963-2.9,5.942,3.3-1.07.831-.549.41,1.084,1.251-.535.41,2.7.41.535.421,4.693-2.63-.535-1.661v-.832l6.244-2.923.782-.8,1.07-3.724-5.942-2.072h-.535l-3.239.421,2.69-2.9,9.729-3.724,6.477-4.144,8.645-6.628,1.619-14.073,5.406-4.145,2.7-3.314-2.168-3.3v-9.952l-1.084-3.712.178-1.3.686-5.186Z" transform="translate(314.644 136.591)" fill="#0a5d5a" stroke="#377673" stroke-width="0.7"/>
            <path id="Path_5165" data-name="Path 5165" d="M414.539,310.367l1.317,4.807.343,4.554,2.95,2.8,3.966,1.526,2.964-2.788,2.305-.5,2.319-3.8,4.954-.758,4.954-.262,2.648-2.777,2.305-.757,2.635,1.513,2.978.505.659,1.515,1.976,1.021,1,1.778,1.976.757v1.758l2.648,1.524,2.319-.494.316-3.039,2.648.494,1.647,3.039,2.307,2.272.671,2.546,2.635,1.01,3.307,2.031.988,1.513,4.3.505-.329,2.02.988,1.777,3.623,1.526,4.3-1.526,4.624,1.262,1.374,1.263.287.262-.224,1.787-.037,3.148-.233,4.176-.261,3.791.614.661,1.869,2,1.729,3.419.491,2.455,2.711,1.143,1.5,3.617,1.516.748,1.93.95,2,6.275.988,1.137-.741,2.85-3.966,1.7-.494,1.7-7.424,1.715-1.99,3.787-4.611,2.275-9.3-7.482h-2.7l-1.07.832-7.026-2.074-25.922-3.312-6.477-2.482-1.084-2.482-1.852.136-1.935-.967-27.006-7.037-15.671-4.145-2.154-2.893L376.185,351.7l-3.238-3.314h-2.182l-3.238-1.241-5.928-6.617-6.491-3.323-3.787-.41-3.486,2.188-.659-3.041.343-3.039,2.964-2.272,4.954-.769,4.624-1.513L358.73,324.8v-3.282l-.328-1.779,2.976-2.029,3.623.264,3.966-.516,1.647,1.526,2.649,1.513h3.307l5.942-1.513,3.636,1.767,3.623.252,3.637-.252,2.319,2.282,3.623-1.272,2.648.767,3.307,1.767,1.976,1.263,2.648-1.515.645-2.525-2.964-3.3,1.647-3.039,2.648-1.768Z" transform="translate(181.782 162.782)" fill="#0a5d5a" stroke="#377673" stroke-width="0.7"/>
            <path id="Path_5175" data-name="Path 5175" d="M374.79,278.012l.494,1.146,1.976.569.755,3.228,1.235,1.515,2.731-.757,2.223.2h2.964l1.743-1.147,1.482-1.715,5.2-1.135.494,2.283,1.743,4.554,2.717,2.282,1.235,2.083,1.729-.757h1.743l2.717-1.137,3.225-.757,2.237-.2,1.482,2.283,2.47,2.852,8.165.946,6.2-2.65,3.211.189,4.213-1.9,4.707-1.715,3.688-.563,1.753,2.208-.653,2.29v3.029l-1.345,1.371-.645.659-1.647,3.544-1.647,3.8,1.317,4.554-3.623,1.768.645,3.292-.659.9-2.305,3.151,1.317,2.787-1.317,2.02-2.648,3.826-.329.475-2.635,3.041-2.648,1.767-1.647,3.041,2.962,3.3-.643,2.527-2.648,1.515-1.976-1.262-3.307-1.768-2.648-.767-3.623,1.272-2.319-2.282-3.636.253-3.623-.253-3.636-1.767-5.942,1.515h-3.307l-2.648-1.515-1.647-1.526-3.966.516-3.623-.262-2.976,2.029.328,1.779v3.282l1.331,3.544-4.625,1.515-4.954.767-2.964,2.272-.343,3.041.659,3.039-.274.295-1.619-.421-11.884-2.9-9.729-1.652-11.348-3.723-17.277-4.556-3.787-5.386L308.3,334.75l.535-.83-1.139-1.693-1.016-.8,2.978-2.272,1.976-1.526.547-2.105.111-.43,2.319.516,4.3-3.039,2.635,1.01,3.293-2.536,1.99,1.262.329,1.779,1.976-.758,9.249-5.059L341.032,317l2.305-1.768,5.283.758,5.942-6.333-1.976-2.777-5.612,1.263.974-2.536-1.317-2.777-2.305-2.282,4.3-5.059-3.636-1.768-2.319.5-1.633-1.777H337.4l-2.978-.5-2.305,1.263-.659-3.041.988-3.282,2.978-1.021,1.606-.915,9.276-1.8,2.237.569,2.223-.189,1.249-1.326,3.211-.378.494-1.336,2.978-.568,1.976.379,2.978-.946,2.978.189,4.445-1.132Z" transform="translate(160.537 145.772)" fill="#0a5d5a" stroke="#377673" stroke-width="0.7"/>
            <path id="Path_5282" data-name="Path 5282" d="M643.1,324.211l3.456,1.886-1.1,1.48,4.464.955,1.725,3.221.236,1.722,5.213,1.315.259,1.707.755.172,1.729.406,1.974.938-.986,1.523,1.153,4.9.014,2.1,3.938.189,11.8,6.112,6.45,1.019,2.854,1.515,5.009,6.364,2.154,1.272,6.079,1.274.713,1.019v6.1l1.07,1.788-.713,2.8.357,1.526H653.732l-18.964,25.193v2.545l6.093,2.041v2.283l-2.868,3.819,1.07,2.8,1.441,2.029-.371,3.314-3.211,3.566-1.07,2.282-.714.516-2.511-.252-3.938-3.314V423.32L612.66,411.907l-1.482-1.547,1.482-.526v-.409l-2.7-1.242-.535.831-4.858-2.073-9.194-6.626-14.587-7.868-16.193-7.037,3.239-.821-2.168-2.072L557.8,380.73l1.262-2.283-1-2.084,1.235-2.661-3.966-5.132,3.472-5.691-.988-3.219,2.223-.568,2.47-1.265,1.235-.629-.48-3.425.727-.323,1-.438-.494-4.354,4.275-2.414,3.148-1.762,2.717-1.526,4.213-5.123.508-2.659.48-.308,2.484-1.587-1.131-3.523.252-.709,1.772-.3,1.247-1.146,2.7.188,1.743.777,1.249.56,2.072-4.576,4.695.755.245,2.273-1.235,1.326.247,3.608-.741,2.85h5.942l3.225,3.608.974.757,2.484.189,2.237-1.893,11.39-8.163,1.235-1.893,7.932-2.472,2.237-.568,7.781,1.556Z" transform="translate(291.003 170.059)" fill="#0a5d5a" stroke="#377673" stroke-width="0.7"/>
            <path id="Path_5284" data-name="Path 5284" d="M624.779,359.7l-1,.439-.727.317.494,3.419-1.249.639-2.47,1.265-2.223.567.988,3.219-3.472,5.691,3.966,5.133-1.235,2.662,1,2.083L617.6,387.4l-1.866-2.347-2.7,1.242-8.1-2.9-1.084,2.061,1.084.9,1.29.137,1.414.621,5.393.419,1.084,1.242,4.858.821,1.619,1.251-.219.5-15.122-3.314-4.638-.925H592.5l4.336-2.063,1.07-2.072-3.238-1.251-4.858,3.723-.549-.809L590.35,383l-3.787-2.9-2.154.832-1.619,2.482-2.7.411L579,385.058l1.084.831h4.885l3.609.662,1.084.832-13.352.157-.549,1.242-4.323,1.242-5.942,4.965-13.42,3.8-7.095,2.008-9.18,4.135-10.264.421L523.906,407l-3.774-.41-10.8-2.072-12.968-4.964-24.851-1.662-3.239-1.652-12.432-4.975h4.309l-1.633-.832-17.139-2.446,4.611-2.276,1.99-3.787,7.424-1.715.494-1.7,3.966-1.7.741-2.85-.988-1.137-1.99-6.269-1.943-.957-1.516-.748-1.482-3.607-2.734-1.153-.491-2.455-1.729-3.419-1.869-2-.614-.661.261-3.791.233-4.176v-2.852l.233-1.4,2.339-2.112,1.147.488,1.221.729.769-2.64,10.9-.189,2.223,1.515h2.964l1.99-.947v-2.093l-.592-.389-2.867-1.883,2.47-5.7,2.237-.178,2.712-2.09,1.3.743.663.382-1.235,4.553,2.975,1.529.73.375,1.5,4.554,1.99.2,1.249-3.229,6.93-3.977,5.2-.378,1.235.758,2.237-.189,2.456-1.726,3.966-.189,1.482-1.526,2.9-3.282,3.8-6.207-2.731-3.8.752-.941,1.979.374,2.964,1.526,4.707,2.083,1.5,2.661,1.729,1.326v1.7l3.458,1.524.261,1.893,4.034,2.914,1.743,1.515.892,5.332,2.229.755,5.432-.754,1.987.564,3.551-.772-1.714,4.362-1.99,2.282,3.472,4.554,4.191,3.224,2.473-1.884,1.5.563,2.485-.188,4.378-4.943,2.717-.569,2.22-1.7,3.969.944-.247,1.326-2.964.767v2.083L571.289,348l7.433,4.553,4.685-.627,1,2.281-.988.947-.247,1.324,41.1-1.135Z" transform="translate(231.212 163.374)" fill="#0a5d5a" stroke="#377673" stroke-width="0.7"/>
            <path id="Path_5301" data-name="Path 5301" d="M412.477,124.729l1,.143,4.1.583,6.751,2.609,3.184,11.307,6.134,13.621,5.338,5.807,3.046,4.923,3.8,2.9,14.752,3.187,5.3,3.482,3.156.558L469,198.4l5.613.253-2.978,3.292-13.2,8.224-3.046,1.895-3.211-1.767-4.638,2.02-1.976,1.513,1.3,1.526.329,1.526-1.317,1.515,1.317,2.283-5.161-.494-4.088,2.009-.541.069-1.421.172-2.639,3.544-2.3-.494-4.981,3.041.659,2.534,1.331-.308,1.978-.453,1.659,4.8-2.319,3.8.659,3.039L436.3,246l.329,3.282-2.305,1.777-1.647,2.524-10.9-1.019-3.98,7.6,2.3,4.548-1.009,1.015-4.586-.5-2.539,1.008,1.757,2.788-1.224,1.239-7.242-.375-.2,1.562-.134,1.077h-3.156l-.381-.42-1.485-1.768-.1-.442-.81-3.912.659-4.008-1.331-2.293.672-5.332-4.954-6.838-.659-11.391-3.623-3.8-4-2.784-1.484-1.356-.2-1.729v-3.241l-.137-3.8,3.444-2.534-4.268-2.02,1.5-5.07,6.038-2.777,3.28-.178,7.177,1.913,5.791-.978,1-2.273-1.936-1.045-1.366-.731-6.6-.253-.329-1.524-5.283-2.272,1.647-1.274-1.345-1.262-3.636-1.262-4.336-4.565L382.7,189.04l.247-2.083v-2.472l-3.4-.778v-2.755l.48-2.788-3.911-.758-1.3-2.073-1.355-1.611-2.975-3.405,15.575-10.372,2.96,2.69.375.34L392.7,160.7l-.974-1.01,2.319-4.3,1.317-5.575-3.307-.252-2.305-1.515-2.635,1.777-2.649-.252.645-4.313,5.283-4.554,7.232-3.041,3.925-8.605,1.455-.667,4.076-1.867,5.393.368Z" transform="translate(194.014 65.189)" fill="#0a5d5a" stroke="#377673" stroke-width="0.7"/>
          </g>
        </g>
      </g>
    </g>
  </g>
</svg>
