<svg width="232" height="191" viewBox="0 0 232 191" fill="none" xmlns="http://www.w3.org/2000/svg">
<path d="M139.035 0H0L232 191V76.5647L139.035 0Z" fill="white"/>
<path d="M116.112 18.2023C116.725 17.4746 117.44 16.9602 118.256 16.6591C119.077 16.3509 119.908 16.2704 120.749 16.4176C121.596 16.5708 122.366 16.9393 123.058 17.523C123.871 18.209 124.416 19.004 124.691 19.9079C124.967 20.8118 124.94 21.7413 124.61 22.6966L123.444 21.7127C123.616 21.0887 123.608 20.49 123.42 19.9164C123.24 19.3489 122.878 18.8365 122.336 18.3791C121.815 17.9399 121.246 17.667 120.627 17.5605C120.009 17.4541 119.392 17.5263 118.778 17.7772C118.169 18.0209 117.612 18.4425 117.107 19.0418C116.607 19.6339 116.286 20.254 116.142 20.9021C116.004 21.543 116.04 22.1592 116.249 22.7508C116.459 23.3424 116.824 23.8578 117.344 24.2971C117.887 24.7545 118.45 25.0279 119.034 25.1174C119.631 25.2058 120.222 25.1125 120.808 24.8376L121.975 25.8215C121.095 26.3002 120.186 26.48 119.248 26.3609C118.317 26.2347 117.445 25.8286 116.631 25.1426C115.939 24.5588 115.443 23.8658 115.143 23.0633C114.857 22.2597 114.793 21.4306 114.952 20.5759C115.111 19.7212 115.498 18.93 116.112 18.2023ZM124.068 31.4702C123.519 31.0069 123.125 30.4608 122.886 29.832C122.654 29.2092 122.603 28.5612 122.731 27.8879C122.872 27.2136 123.199 26.5732 123.71 25.9668C124.216 25.3675 124.789 24.9478 125.431 24.7079C126.086 24.4668 126.741 24.4145 127.395 24.5511C128.055 24.6805 128.664 24.9799 129.22 25.4492C129.776 25.9186 130.174 26.4677 130.413 27.0965C130.658 27.7182 130.716 28.3656 130.588 29.0389C130.467 29.7181 130.15 30.361 129.639 30.9674C129.127 31.5738 128.541 31.9946 127.878 32.2296C127.229 32.4636 126.571 32.5128 125.904 32.3774C125.237 32.242 124.625 31.9396 124.068 31.4702ZM124.79 30.6141C125.14 30.909 125.537 31.1037 125.982 31.1984C126.428 31.2931 126.881 31.2545 127.344 31.0828C127.813 30.9171 128.246 30.5988 128.644 30.1279C129.041 29.6571 129.285 29.1793 129.376 28.6947C129.468 28.21 129.43 27.7629 129.262 27.3532C129.101 26.9363 128.846 26.5805 128.496 26.2856C128.139 25.9848 127.742 25.79 127.304 25.7013C126.879 25.6116 126.439 25.6556 125.984 25.8333C125.529 26.011 125.103 26.3354 124.705 26.8062C124.302 27.2842 124.048 27.7595 123.942 28.2321C123.844 28.7108 123.872 29.1555 124.026 29.5663C124.186 29.97 124.441 30.3192 124.79 30.6141ZM136.159 34.0862L135.464 34.9102L131.194 31.3087L131.889 30.4847L136.159 34.0862ZM143.768 38.8923C143.245 39.513 142.594 39.8497 141.817 39.9025C141.053 39.9541 140.236 39.6128 139.366 38.8787L137.932 37.6691L135.305 40.7833L134.331 39.9619L140.623 32.5029L143.031 34.5338C143.872 35.2439 144.339 35.9858 144.432 36.7596C144.531 37.5393 144.31 38.2502 143.768 38.8923ZM140.043 38.0761C140.585 38.5334 141.084 38.7527 141.539 38.7339C141.995 38.7151 142.406 38.4881 142.773 38.0529C143.549 37.1325 143.409 36.2271 142.354 35.3365L140.92 34.1269L138.609 36.8665L140.043 38.0761ZM143.005 47.4427C142.456 46.9794 142.062 46.4333 141.823 45.8045C141.591 45.1817 141.539 44.5337 141.668 43.8604C141.809 43.1861 142.135 42.5457 142.647 41.9393C143.152 41.34 143.726 40.9204 144.368 40.6804C145.023 40.4393 145.678 40.387 146.332 40.5236C146.992 40.653 147.6 40.9524 148.157 41.4217C148.713 41.8911 149.111 42.4402 149.35 43.069C149.595 43.6907 149.653 44.3382 149.525 45.0114C149.403 45.6907 149.087 46.3335 148.576 46.9399C148.064 47.5463 147.477 47.9671 146.815 48.2021C146.166 48.4361 145.508 48.4854 144.841 48.3499C144.173 48.2145 143.562 47.9121 143.005 47.4427ZM143.727 46.5866C144.077 46.8815 144.474 47.0762 144.919 47.1709C145.364 47.2656 145.818 47.227 146.281 47.0553C146.75 46.8896 147.183 46.5713 147.58 46.1005C147.978 45.6296 148.222 45.1518 148.313 44.6672C148.404 44.1826 148.366 43.7354 148.199 43.3257C148.038 42.9089 147.783 42.553 147.433 42.2581C147.076 41.9573 146.679 41.7625 146.241 41.6739C145.816 41.5841 145.376 41.6281 144.921 41.8058C144.466 41.9836 144.039 42.3079 143.642 42.7787C143.239 43.2567 142.985 43.732 142.879 44.2046C142.781 44.6833 142.808 45.128 142.963 45.5388C143.123 45.9425 143.378 46.2918 143.727 46.5866ZM160.132 51.6877L153.356 56.0086L152.35 55.1601L154.864 49.3134L149.525 52.7772L148.519 51.9287L151.625 44.5117L152.62 45.3511L149.816 51.4112L155.424 47.716L156.419 48.5555L153.681 54.6894L159.169 50.8753L160.132 51.6877ZM164.166 59.7236C164.01 59.9091 163.833 60.0962 163.637 60.2851L158.95 56.3315C158.498 56.9395 158.313 57.558 158.392 58.1871C158.485 58.815 158.789 59.3456 159.303 59.7789C159.723 60.1339 160.154 60.3325 160.595 60.3745C161.049 60.4155 161.471 60.32 161.862 60.0881L162.911 60.9727C162.279 61.4039 161.577 61.5993 160.805 61.5588C160.039 61.5113 159.307 61.1926 158.608 60.6029C158.051 60.1335 157.657 59.5874 157.425 58.9646C157.201 58.3479 157.156 57.7059 157.291 57.0386C157.433 56.3643 157.759 55.7239 158.271 55.1175C158.782 54.5111 159.352 54.0819 159.98 53.8298C160.607 53.5778 161.241 53.5141 161.881 53.6386C162.534 53.762 163.146 54.0644 163.716 54.5458C164.273 55.0152 164.663 55.5517 164.886 56.1553C165.11 56.7589 165.155 57.371 165.022 57.9917C164.903 58.6112 164.617 59.1885 164.166 59.7236ZM163.332 58.6717C163.645 58.3008 163.83 57.9141 163.889 57.5117C163.953 57.1022 163.9 56.7093 163.729 56.333C163.571 55.9557 163.321 55.6226 162.979 55.3337C162.486 54.9185 161.933 54.7204 161.319 54.7395C160.711 54.7645 160.148 55.0342 159.629 55.5486L163.332 58.6717ZM167.906 59.8741C168.36 59.6832 168.822 59.6274 169.292 59.7067C169.77 59.792 170.237 60.0272 170.693 60.4123L169.845 61.4183L169.588 61.2017C168.497 60.281 167.451 60.4128 166.452 61.5971L163.763 64.7862L162.789 63.9648L167.735 58.1003L168.709 58.9217L167.906 59.8741ZM174.794 68.6883C174.638 68.8738 174.462 69.0609 174.266 69.2498L169.579 65.2962C169.127 65.9042 168.941 66.5227 169.021 67.1518C169.114 67.7797 169.417 68.3103 169.931 68.7436C170.352 69.0986 170.783 69.2972 171.223 69.3392C171.677 69.3802 172.1 69.2847 172.491 69.0528L173.539 69.9374C172.907 70.3686 172.205 70.564 171.433 70.5236C170.668 70.476 169.935 70.1573 169.236 69.5676C168.679 69.0982 168.285 68.5521 168.054 67.9293C167.829 67.3126 167.784 66.6706 167.92 66.0034C168.061 65.329 168.388 64.6886 168.899 64.0822C169.411 63.4758 169.98 63.0466 170.608 62.7946C171.236 62.5426 171.87 62.4788 172.509 62.6033C173.162 62.7267 173.774 63.0291 174.345 63.5105C174.901 63.9799 175.291 64.5164 175.515 65.12C175.738 65.7236 175.784 66.3358 175.651 66.9564C175.531 67.5759 175.246 68.1532 174.794 68.6883ZM173.96 67.6365C174.273 67.2655 174.459 66.8788 174.517 66.4764C174.582 66.0669 174.529 65.674 174.358 65.2977C174.2 64.9204 173.949 64.5873 173.607 64.2984C173.115 63.8832 172.561 63.6851 171.947 63.7042C171.34 63.7292 170.777 63.999 170.257 64.5133L173.96 67.6365ZM175.545 69.6689C176.05 69.0696 176.614 68.6476 177.235 68.4027C177.863 68.1507 178.493 68.0774 179.124 68.1827C179.763 68.294 180.346 68.5724 180.874 69.0177C181.331 69.4028 181.665 69.8679 181.877 70.4129C182.095 70.9507 182.163 71.4781 182.081 71.9951L184.698 68.8916L185.683 69.7221L179.003 77.6412L178.019 76.8108L178.949 75.7086C178.461 75.8957 177.932 75.9439 177.361 75.8533C176.797 75.7555 176.261 75.493 175.754 75.0657C175.234 74.6265 174.868 74.0979 174.656 73.48C174.452 72.8681 174.424 72.228 174.573 71.5597C174.721 70.8913 175.045 70.2611 175.545 69.6689ZM180.501 73.8679C180.874 73.4255 181.11 72.9651 181.208 72.4864C181.307 72.0078 181.275 71.5535 181.113 71.1235C180.963 70.6924 180.707 70.3234 180.343 70.0165C179.979 69.7096 179.575 69.5154 179.131 69.4339C178.687 69.3524 178.237 69.4005 177.782 69.5783C177.327 69.756 176.913 70.066 176.54 70.5084C176.161 70.9578 175.919 71.4255 175.814 71.9112C175.716 72.3898 175.741 72.8447 175.891 73.2758C176.046 73.6998 176.305 74.0652 176.669 74.3721C177.033 74.679 177.437 74.8732 177.881 74.9547C178.338 75.0351 178.794 74.9864 179.25 74.8087C179.711 74.6238 180.128 74.3102 180.501 73.8679ZM188.502 77.4843C188.996 77.3032 189.53 77.2645 190.101 77.3683C190.673 77.4721 191.205 77.7316 191.698 78.1468C192.225 78.5921 192.595 79.1172 192.805 79.7219C193.015 80.3266 193.049 80.9596 192.907 81.6208C192.77 82.2749 192.449 82.9016 191.943 83.5008C191.444 84.093 190.877 84.5186 190.244 84.7778C189.61 85.0369 188.971 85.1144 188.326 85.0102C187.689 84.912 187.109 84.6432 186.589 84.2039C186.082 83.7767 185.729 83.29 185.531 82.7439C185.339 82.2038 185.291 81.6813 185.388 81.1763L184.476 82.2572L183.502 81.4358L190.182 73.5166L191.156 74.338L188.502 77.4843ZM190.948 82.6614C191.321 82.2191 191.557 81.7586 191.656 81.28C191.754 80.8013 191.722 80.347 191.56 79.917C191.404 79.4931 191.145 79.1277 190.781 78.8208C190.424 78.5199 190.017 78.3292 189.56 78.2488C189.116 78.1673 188.66 78.216 188.192 78.3949C187.736 78.5726 187.325 78.8791 186.958 79.3143C186.585 79.7566 186.346 80.2206 186.242 80.7064C186.151 81.191 186.18 81.6489 186.329 82.08C186.491 82.51 186.751 82.8754 187.107 83.1763C187.471 83.4832 187.875 83.6774 188.319 83.7589C188.776 83.8393 189.233 83.7906 189.688 83.6129C190.149 83.428 190.569 83.1109 190.948 82.6614ZM200.732 85.9317L189.925 91.5784L188.919 90.7299L192.458 88.8796L194.985 81.0845L196.066 81.9962L193.899 88.3002L199.726 85.0832L200.732 85.9317Z" fill="#006F6A"/>
<path d="M111.535 37.3619L101.677 49.0495L99.7602 47.4325L106.512 39.4277L96.1951 44.4254L94.8666 43.3049L98.0363 32.2788L91.2846 40.2836L89.3675 38.6666L99.2256 26.9789L101.294 28.7236L97.6669 41.3497L109.484 35.6314L111.535 37.3619ZM115.34 43.2187L112.446 46.6494L116.482 50.0536L115.163 51.6176L111.127 48.2133L108.106 51.7953L112.647 55.6251L111.327 57.189L104.87 51.7422L114.742 40.0378L121.2 45.4846L119.881 47.0485L115.34 43.2187ZM124.648 58.4375L123.358 67.3367L121.206 65.5211L122.14 59.0563L116.094 61.2091L113.958 59.4077L122.512 56.6361L123.799 47.7058L125.952 49.5214L125.006 56.034L131.098 53.8618L133.233 55.6632L124.648 58.4375ZM141.231 68.3664C140.73 68.9606 140.117 69.4029 139.392 69.6934C138.667 69.984 137.855 70.0373 136.954 69.8536C136.063 69.6586 135.136 69.1545 134.172 68.3413L132.053 66.554L128.053 71.2964L126.136 69.6794L135.994 57.9917L140.03 61.3959C140.927 62.1524 141.551 62.9477 141.903 63.7817C142.276 64.614 142.391 65.4212 142.249 66.2034C142.119 66.9951 141.779 67.7161 141.231 68.3664ZM135.491 66.7773C136.22 67.392 136.901 67.688 137.534 67.6655C138.176 67.6318 138.753 67.3122 139.263 66.7068C140.341 65.4287 140.157 64.1798 138.711 62.9599L136.592 61.1727L133.372 64.9901L135.491 66.7773ZM145.87 82.2378L140.977 78.1102L138.122 79.7889L136.12 78.101L150.18 69.9284L152.4 71.8008L146.715 87.0371L144.697 85.335L145.87 82.2378ZM146.651 80.22L149.333 73.1853L142.834 77.0001L146.651 80.22ZM158.811 97.2395L156.894 95.6224L158.487 82.0293L151.125 90.7572L149.208 89.1402L159.081 77.4357L160.998 79.0527L159.418 92.6291L166.766 83.918L168.683 85.535L158.811 97.2395ZM175.676 91.4625C176.921 92.5121 177.805 93.6704 178.329 94.9374C178.873 96.2025 179.02 97.4964 178.768 98.8188C178.536 100.139 177.92 101.394 176.917 102.582C175.915 103.771 174.787 104.585 173.534 105.024C172.292 105.473 171.001 105.536 169.662 105.212C168.344 104.887 167.063 104.2 165.818 103.15L162.001 99.9303L171.859 88.2426L175.676 91.4625ZM167.137 101.586C168.505 102.74 169.865 103.254 171.218 103.129C172.571 103.003 173.815 102.268 174.95 100.923C176.094 99.5662 176.623 98.1995 176.537 96.8224C176.452 95.4454 175.725 94.1801 174.357 93.0264L172.457 91.4236L165.237 99.9833L167.137 101.586ZM179.828 115.168C178.74 114.251 177.95 113.152 177.456 111.873C176.983 110.591 176.86 109.269 177.088 107.907C177.337 106.543 177.943 105.29 178.908 104.146C179.872 103.003 181.001 102.199 182.294 101.735C183.598 101.281 184.917 101.185 186.25 101.446C187.605 101.706 188.826 102.294 189.913 103.212C191.012 104.138 191.798 105.242 192.271 106.524C192.765 107.804 192.892 109.12 192.653 110.473C192.414 111.825 191.812 113.073 190.848 114.217C189.883 115.361 188.75 116.17 187.447 116.645C186.154 117.108 184.831 117.21 183.476 116.951C182.143 116.689 180.927 116.095 179.828 115.168ZM181.232 113.503C182.006 114.156 182.842 114.564 183.74 114.727C184.648 114.879 185.545 114.771 186.43 114.405C187.335 114.036 188.152 113.421 188.88 112.557C189.608 111.694 190.073 110.791 190.274 109.847C190.486 108.913 190.436 108.017 190.123 107.159C189.811 106.301 189.268 105.546 188.495 104.893C187.721 104.241 186.885 103.833 185.986 103.67C185.088 103.507 184.191 103.604 183.295 103.961C182.41 104.327 181.603 104.942 180.875 105.806C180.147 106.669 179.672 107.573 179.451 108.518C179.25 109.462 179.301 110.368 179.603 111.237C179.916 112.096 180.459 112.851 181.232 113.503Z" fill="#0A4F4C"/>
</svg>
