<svg xmlns="http://www.w3.org/2000/svg" width="30.016" height="42.515" viewBox="0 0 30.016 42.515">
  <path id="Icon_material-location-on" data-name="Icon material-location-on" d="M21.508,2A15,15,0,0,1,36.516,17.008a22.439,22.439,0,0,1-2.276,8.906,58.3,58.3,0,0,1-4.9,8.6,90.985,90.985,0,0,1-7.091,9.179l-.742.822-.742-.822a90.985,90.985,0,0,1-7.091-9.179,58.3,58.3,0,0,1-4.9-8.6A22.439,22.439,0,0,1,6.5,17.008,15,15,0,0,1,21.508,2Zm0,39.5A93.2,93.2,0,0,0,27.7,33.376c4.461-6.616,6.819-12.276,6.819-16.367a13.008,13.008,0,1,0-26.016,0c0,4.091,2.358,9.751,6.819,16.367A93.2,93.2,0,0,0,21.508,41.5Zm0-30.5a6,6,0,1,1-6,6A6.01,6.01,0,0,1,21.508,11.005Zm0,10.006a4,4,0,1,0-4-4A4.007,4.007,0,0,0,21.508,21.011Z" transform="translate(-6.5 -2)" fill="#2f2f2f"/>
</svg>
