<svg xmlns="http://www.w3.org/2000/svg" width="43.562" height="40.728" viewBox="0 0 43.562 40.728">
  <g id="Group_70117" data-name="Group 70117" transform="translate(-1219.977 -1368.699)">
    <path id="Path_108764" data-name="Path 108764" d="M0-1a1,1,0,0,1,.483.125L16.917,8.2a1,1,0,0,1,.517.875V38.728a1,1,0,0,1-1,1H0a1,1,0,0,1-1-1V0A1,1,0,0,1-.508-.861,1,1,0,0,1,0-1ZM15.434,9.667,1,1.695V37.728H15.434Z" transform="translate(1233.541 1369.699)" fill="#2f2f2f"/>
    <path id="Rectangle_22911" data-name="Rectangle 22911" d="M1-1H11.565a2,2,0,0,1,2,2V23.67a1,1,0,0,1-1,1H0a1,1,0,0,1-1-1V1A2,2,0,0,1,1-1ZM11.565,22.67V1H1V22.67Z" transform="translate(1220.977 1384.757)" fill="#2f2f2f"/>
    <path id="Rectangle_22912" data-name="Rectangle 22912" d="M1-1H11.565a2,2,0,0,1,2,2V23.67a1,1,0,0,1-1,1H0a1,1,0,0,1-1-1V1A2,2,0,0,1,1-1ZM11.565,22.67V1H1V22.67Z" transform="translate(1249.974 1384.757)" fill="#2f2f2f"/>
    <path id="Path_108765" data-name="Path 108765" d="M5.237,3.752H0v-2H5.237Z" transform="translate(1224.642 1390.254)" fill="#2f2f2f"/>
    <path id="Path_108770" data-name="Path 108770" d="M6.963,3.752H0v-2H6.963Z" transform="translate(1238.276 1381.254)" fill="#2f2f2f"/>
    <path id="Path_108773" data-name="Path 108773" d="M5.237,3.752H0v-2H5.237Z" transform="translate(1253.257 1390.254)" fill="#2f2f2f"/>
    <path id="Path_108769" data-name="Path 108769" d="M6.963,3.752H0v-2H6.963Z" transform="translate(1238.276 1390.254)" fill="#2f2f2f"/>
    <path id="Path_108767" data-name="Path 108767" d="M5.237,3.752H0v-2H5.237Z" transform="translate(1224.642 1399.254)" fill="#2f2f2f"/>
    <path id="Path_108768" data-name="Path 108768" d="M6.963,3.752H0v-2H6.963Z" transform="translate(1238.276 1399.254)" fill="#2f2f2f"/>
    <path id="Path_108771" data-name="Path 108771" d="M5.237,3.752H0v-2H5.237Z" transform="translate(1253.257 1399.254)" fill="#2f2f2f"/>
  </g>
</svg>
