<svg xmlns="http://www.w3.org/2000/svg" xmlns:xlink="http://www.w3.org/1999/xlink" width="46.989" height="46.288" viewBox="0 0 46.989 46.288">
  <defs>
    <clipPath id="clip-path">
      <rect id="Rectangle_22916" data-name="Rectangle 22916" width="46.989" height="46.288" transform="translate(-2 -3)" fill="none" stroke="#2f2f2f" stroke-linecap="round" stroke-width="1"/>
    </clipPath>
  </defs>
  <g id="Group_70118" data-name="Group 70118" transform="translate(2 3)" clip-path="url(#clip-path)">
    <path id="Ellipse_19160" data-name="Ellipse 19160" d="M6.833-1A7.833,7.833,0,1,1-1,6.833,7.842,7.842,0,0,1,6.833-1Zm0,13.665A5.833,5.833,0,1,0,1,6.833,5.839,5.839,0,0,0,6.833,12.665Z" transform="translate(5.979 0.854)" fill="#2f2f2f"/>
    <path id="Path_108778" data-name="Path 108778" d="M26.622,41.791a1,1,0,0,1-1-1V34.811A11.811,11.811,0,0,0,2,34.811v5.979a1,1,0,0,1-2,0V34.811a13.811,13.811,0,0,1,23.577-9.766,13.721,13.721,0,0,1,4.045,9.766v5.979A1,1,0,0,1,26.622,41.791Z" transform="translate(-0.146 -3.21)" fill="#2f2f2f"/>
    <path id="Path_108779" data-name="Path 108779" d="M34.836,7a6.77,6.77,0,1,1-6.769,6.77A6.778,6.778,0,0,1,34.836,7Zm0,11.54a4.77,4.77,0,1,0-4.769-4.77A4.776,4.776,0,0,0,34.836,18.54Z" transform="translate(-4.241 -1.167)" fill="#2f2f2f"/>
    <path id="Path_108780" data-name="Path 108780" d="M46.7,42.3a1,1,0,0,1-1-1V36.73a9.9,9.9,0,0,0-9.769-10,9.513,9.513,0,0,0-3.795.782,1,1,0,1,1-.793-1.836,11.609,11.609,0,0,1,12.918,2.575A12.035,12.035,0,0,1,47.7,36.73V41.3A1,1,0,0,1,46.7,42.3Z" transform="translate(-4.631 -3.755)" fill="#2f2f2f"/>
  </g>
</svg>
