<svg xmlns="http://www.w3.org/2000/svg" width="42.024" height="42.024" viewBox="0 0 42.024 42.024">
  <g id="Group_70111" data-name="Group 70111" transform="translate(-1219.241 -1320.602)">
    <g id="noun-certified-3559933" transform="translate(1220.241 1321.602)">
      <path id="Path_108759" data-name="Path 108759" d="M131.664,36.173a4.152,4.152,0,0,1,1.112.147,6.546,6.546,0,0,1,3.107,2.23,7.847,7.847,0,0,0,1.327,1.247,6.171,6.171,0,0,0,1.635.517l.025,0a6.227,6.227,0,0,1,3.8,1.817,6.875,6.875,0,0,1,1.271,2.943,16.313,16.313,0,0,0,.654,2.11,8.1,8.1,0,0,0,1.229,1.3,6.562,6.562,0,0,1,2.231,3.108,6.562,6.562,0,0,1-.382,3.749,7.842,7.842,0,0,0-.416,1.789,16.35,16.35,0,0,0,.5,2.2,6.8,6.8,0,0,1,.364,3.182,6.206,6.206,0,0,1-2.4,3.468L145.7,66a6.067,6.067,0,0,0-1.144,1.24A7.8,7.8,0,0,0,144.022,69,5.372,5.372,0,0,1,139,74.017a7.774,7.774,0,0,0-1.76.538A6.084,6.084,0,0,0,136,75.7l-.011.013c-1.453,1.711-2.769,2.474-4.267,2.474a8.933,8.933,0,0,1-2.385-.44,16.052,16.052,0,0,0-2.2-.5,7.812,7.812,0,0,0-1.788.416,8.877,8.877,0,0,1-2.634.529,4.184,4.184,0,0,1-1.114-.146,6.546,6.546,0,0,1-3.108-2.23,8.066,8.066,0,0,0-1.3-1.23,16.621,16.621,0,0,0-2.113-.654,6.879,6.879,0,0,1-2.944-1.273,6.159,6.159,0,0,1-1.815-3.8l0-.016a6.187,6.187,0,0,0-.518-1.644,7.9,7.9,0,0,0-1.245-1.325,6.559,6.559,0,0,1-2.232-3.11,6.565,6.565,0,0,1,.383-3.747,7.639,7.639,0,0,0,.417-1.819,6.342,6.342,0,0,0-.377-1.726l-.01-.027a6.145,6.145,0,0,1-.314-4.187,6.913,6.913,0,0,1,1.923-2.566,16.362,16.362,0,0,0,1.486-1.594,8.033,8.033,0,0,0,.522-1.73,6.578,6.578,0,0,1,1.564-3.462,6.566,6.566,0,0,1,3.459-1.562,7.988,7.988,0,0,0,1.732-.524,16.639,16.639,0,0,0,1.6-1.489c1.088-1.113,2.116-2.164,4.027-2.164a8.221,8.221,0,0,1,2.723.556l.014.005a6.34,6.34,0,0,0,1.739.382,7.67,7.67,0,0,0,1.817-.417A8.918,8.918,0,0,1,131.664,36.173Zm6.855,6.114a8.17,8.17,0,0,1-2.236-.717,1,1,0,0,1-.09-.05,9.028,9.028,0,0,1-1.78-1.614,4.92,4.92,0,0,0-2.131-1.648l-.034-.009a2.119,2.119,0,0,0-.584-.076,7.363,7.363,0,0,0-2.046.44,8.9,8.9,0,0,1-2.407.507q-.045,0-.09,0a8.34,8.34,0,0,1-2.342-.5,6.311,6.311,0,0,0-2.046-.438c-1.026,0-1.537.479-2.6,1.562a18.1,18.1,0,0,1-1.866,1.722,1,1,0,0,1-.139.091,8.968,8.968,0,0,1-2.31.751,4.944,4.944,0,0,0-2.476,1.013l-.026.026a4.957,4.957,0,0,0-1.015,2.48,9.008,9.008,0,0,1-.748,2.3,1,1,0,0,1-.091.139,17.818,17.818,0,0,1-1.723,1.867,5.362,5.362,0,0,0-1.436,1.806,4.1,4.1,0,0,0,.308,2.829,8.341,8.341,0,0,1,.508,2.349q0,.044,0,.089a8.872,8.872,0,0,1-.507,2.411,4.949,4.949,0,0,0-.364,2.627l.009.034a4.935,4.935,0,0,0,1.651,2.135,9.07,9.07,0,0,1,1.611,1.776,1,1,0,0,1,.051.092,8.186,8.186,0,0,1,.716,2.232c.512,2.768,1.327,2.979,3.291,3.488a18.085,18.085,0,0,1,2.453.774,1,1,0,0,1,.15.077,9.033,9.033,0,0,1,1.78,1.613,4.922,4.922,0,0,0,2.131,1.648l.032.008a2.15,2.15,0,0,0,.589.076,7.319,7.319,0,0,0,2.042-.439,8.859,8.859,0,0,1,2.408-.508,1,1,0,0,1,.151.008,17.581,17.581,0,0,1,2.555.562,7.457,7.457,0,0,0,1.85.367c.613,0,1.417-.21,2.737-1.762a8.083,8.083,0,0,1,1.7-1.554,1,1,0,0,1,.086-.052,8.965,8.965,0,0,1,2.311-.752,4.946,4.946,0,0,0,2.475-1.013l.026-.026a4.953,4.953,0,0,0,1.014-2.477,8.989,8.989,0,0,1,.75-2.308,1,1,0,0,1,.052-.086,8.066,8.066,0,0,1,1.553-1.7c2.158-1.837,1.934-2.643,1.4-4.587a17.876,17.876,0,0,1-.562-2.553,1,1,0,0,1-.008-.152,8.874,8.874,0,0,1,.507-2.41,4.979,4.979,0,0,0,.367-2.618q-.006-.021-.012-.043a4.934,4.934,0,0,0-1.651-2.134,9.068,9.068,0,0,1-1.611-1.776,1,1,0,0,1-.077-.149A17.778,17.778,0,0,1,142,45.578C141.494,43.612,141.284,42.8,138.519,42.287Z" transform="translate(-107.177 -37.173)" fill="#2f2f2f"/>
    </g>
    <path id="Path_108760" data-name="Path 108760" d="M605.663,11279.588l-5.236-5.241,1.415-1.414,3.828,3.831,9.524-9.446,1.408,1.42Z" transform="translate(631.737 -9931.487)" fill="#2f2f2f"/>
  </g>
</svg>
