<svg xmlns="http://www.w3.org/2000/svg" width="250" height="290" viewBox="0 0 250 290">
  <g id="Group_88152" data-name="Group 88152" transform="translate(11411 14869)">
    <rect id="Rectangle_24350" data-name="Rectangle 24350" width="250" height="290" rx="15" transform="translate(-11411 -14869)" fill="#a8a8a8"/>
    <g id="Group" transform="translate(-11379.805 -14823.796)">
      <path id="Path" d="M128.541,52.848a6.71,6.71,0,0,0-7.6,2.237l-2.684,2.684a34.89,34.89,0,0,1-51.888-2.908,6.71,6.71,0,0,0-7.6-2.013A68.886,68.886,0,0,0,14.7,116.814v13.2a6.71,6.71,0,0,0,6.71,6.71H165.892a6.71,6.71,0,0,0,6.71-6.71v-13.2A68.886,68.886,0,0,0,128.541,52.848Z" transform="translate(0 52.553)" fill="#f4f4f4"/>
      <path id="Path-2" data-name="Path" d="M30.2,54.184A44.284,44.284,0,1,0,74.484,9.9,44.284,44.284,0,0,0,30.2,54.184Z" transform="translate(19.167 0)" fill="#f4f4f4"/>
    </g>
  </g>
</svg>
