<svg xmlns="http://www.w3.org/2000/svg" xmlns:xlink="http://www.w3.org/1999/xlink" width="473.101" height="202.952" viewBox="0 0 473.101 202.952">
  <defs>
    <clipPath id="clip-path">
      <rect id="Rectangle_22998" data-name="Rectangle 22998" width="470.535" height="202.952" fill="none" stroke="#707070" stroke-width="1.5"/>
    </clipPath>
  </defs>
  <g id="shape_city" transform="translate(0)">
    <path id="Line_514" data-name="Line 514" d="M10.872.75H0V-.75H10.872Z" transform="translate(270.603 85.167)"/>
    <path id="Line_515" data-name="Line 515" d="M.75,41.678H-.75V0H.75Z" transform="translate(225.905 67.047)"/>
    <path id="Line_516" data-name="Line 516" d="M.75,12H-.75V0H.75Z" transform="translate(225 117.437)"/>
    <path id="Line_517" data-name="Line 517" d="M.75,13H-.75V0H.75Z" transform="translate(225 50.437)"/>
    <g id="Group_70261" data-name="Group 70261" transform="translate(0 118.993)">
      <g id="Group_70264" data-name="Group 70264">
        <path id="Line_518" data-name="Line 518" d="M473.1.75H0V-.75H473.1Z" transform="translate(0 82.944)"/>
        <path id="Rectangle_22979" data-name="Rectangle 22979" d="M-.75-.75H29.139V83.5H-.75ZM27.639.75H.75V82H27.639Z" transform="translate(36.845)"/>
      </g>
    </g>
    <path id="Rectangle_22981" data-name="Rectangle 22981" d="M-.75-.75H24.307V27.327H-.75ZM22.807.75H.75V25.827H22.807Z" transform="translate(39.262 92.416)"/>
    <path id="Rectangle_22982" data-name="Rectangle 22982" d="M-.75-.75H21.891V5.582H-.75ZM20.391.75H.75V4.082H20.391Z" transform="translate(40.47 87.584)"/>
    <path id="Rectangle_22983" data-name="Rectangle 22983" d="M-.75-.75H17.059v16H-.75ZM15.559.75H.75v13H15.559Z" transform="translate(97.248 115.369)"/>
    <g id="Group_70263" data-name="Group 70263" transform="translate(0.978)">
      <g id="Group_70262" data-name="Group 70262" clip-path="url(#clip-path)">
        <path id="Path_113700" data-name="Path 113700" d="M94.726,98.643H81.75v-8.9a6.488,6.488,0,0,1,12.976,0Zm-11.476-1.5h9.976v-7.4a4.988,4.988,0,0,0-9.976,0Z" transform="translate(16.186 17.476)"/>
        <path id="Path_113701" data-name="Path 113701" d="M69.31,170.3H58.75V160.189a5.28,5.28,0,0,1,10.56,0Zm-9.06-1.5h7.56v-8.612a3.78,3.78,0,0,0-7.56,0Z" transform="translate(11.4 32.385)"/>
        <path id="Path_113702" data-name="Path 113702" d="M96.4,171.167H80.991V158.456a7.707,7.707,0,0,1,15.413,0Zm-13.913-1.5H94.9V158.456a6.207,6.207,0,0,0-12.413,0Z" transform="translate(16.028 31.519)"/>
        <path id="Path_113703" data-name="Path 113703" d="M48.414,125.579H37.25V110.332a5.582,5.582,0,1,1,11.164,0Zm-9.664-1.5h8.164V110.332a4.082,4.082,0,1,0-8.164,0Z" transform="translate(6.927 21.949)"/>
        <path id="Path_113704" data-name="Path 113704" d="M110.1,180.129H71.75v-62.4A10.979,10.979,0,0,1,82.729,106.75H99.117A10.979,10.979,0,0,1,110.1,117.729Zm-36.845-1.5H108.6v-60.9a9.489,9.489,0,0,0-9.479-9.479H82.729a9.489,9.489,0,0,0-9.479,9.479Z" transform="translate(14.105 22.365)"/>
        <path id="Line_519" data-name="Line 519" d="M139.53.75H0V-.75H139.53Z" transform="translate(35.867 146.778)"/>
        <path id="Line_520" data-name="Line 520" d="M20.537.75H0V-.75H20.537Z" transform="translate(93.853 115.369)"/>
        <path id="Line_521" data-name="Line 521" d="M36.241.75H0V-.75H36.241Z" transform="translate(86.605 168.523)"/>
        <path id="Line_522" data-name="Line 522" d="M36.241.75H0V-.75H36.241Z" transform="translate(86.605 176.979)"/>
        <path id="Line_523" data-name="Line 523" d="M.75,13H-.75V0H.75Z" transform="translate(50.021 55.437)"/>
        <path id="Line_524" data-name="Line 524" d="M.75,12H-.75V0H.75Z" transform="translate(50.021 159.437)"/>
        <path id="Line_525" data-name="Line 525" d="M.75,12H-.75V0H.75Z" transform="translate(50.021 180.437)"/>
        <path id="Line_526" data-name="Line 526" d="M.75,12H-.75V0H.75Z" transform="translate(161.021 159.437)"/>
        <path id="Line_527" data-name="Line 527" d="M.75,12H-.75V0H.75Z" transform="translate(161.021 180.437)"/>
        <path id="Line_528" data-name="Line 528" d="M.75,18.725H-.75V0H.75Z" transform="translate(44.927 99.664)"/>
        <path id="Line_529" data-name="Line 529" d="M.75,18.725H-.75V0H.75Z" transform="translate(54.592 99.664)"/>
        <path id="Line_530" data-name="Line 530" d="M.75,18.725H-.75V0H.75Z" transform="translate(156.068 99.664)"/>
        <path id="Line_531" data-name="Line 531" d="M.75,18.725H-.75V0H.75Z" transform="translate(165.732 99.664)"/>
        <path id="Path_113705" data-name="Path 113705" d="M57.577,76.579H31a.75.75,0,0,1-.6-1.2l1.962-2.615a7.61,7.61,0,0,0,1.512-4.537V66.164a10.414,10.414,0,0,1,20.829,0v2.062a7.611,7.611,0,0,0,1.512,4.537l1.962,2.615a.75.75,0,0,1-.6,1.2ZM32.5,75.079H56.077l-1.062-1.415A9.12,9.12,0,0,1,53.2,68.227V66.164a8.914,8.914,0,0,0-17.829,0v2.062a9.12,9.12,0,0,1-1.812,5.437Z" transform="translate(5.471 11.755)"/>
        <path id="Rectangle_22984" data-name="Rectangle 22984" d="M-.75-.75H12.83V9.81H-.75ZM11.33.75H.75V8.31H11.33Z" transform="translate(74.525 137.718)"/>
        <path id="Rectangle_22985" data-name="Rectangle 22985" d="M-.75-.75H12.83v16H-.75ZM11.33.75H.75v13H11.33Z" transform="translate(69.088 160.066)"/>
        <path id="Rectangle_22986" data-name="Rectangle 22986" d="M-.75-.75H29.139V83.5H-.75ZM27.639.75H.75V82H27.639Z" transform="translate(146.403 118.993)"/>
        <path id="Rectangle_22987" data-name="Rectangle 22987" d="M-.75-.75H24.307V27.327H-.75ZM22.807.75H.75V25.827H22.807Z" transform="translate(148.82 92.416)"/>
        <path id="Rectangle_22988" data-name="Rectangle 22988" d="M-.75-.75H21.891V5.582H-.75ZM20.391.75H.75V4.082H20.391Z" transform="translate(150.028 87.584)"/>
        <path id="Path_113706" data-name="Path 113706" d="M118.81,170.3H108.25V160.189a5.28,5.28,0,0,1,10.56,0Zm-9.06-1.5h7.56v-8.612a3.78,3.78,0,0,0-7.56,0Z" transform="translate(21.699 32.385)"/>
        <path id="Path_113707" data-name="Path 113707" d="M140.414,125.579H129.25V110.332a5.582,5.582,0,0,1,11.164,0Zm-9.664-1.5h8.164V110.332a4.082,4.082,0,0,0-8.164,0Z" transform="translate(26.068 21.949)"/>
        <path id="Line_532" data-name="Line 532" d="M.75,13H-.75V0H.75Z" transform="translate(161.021 55.437)"/>
        <path id="Path_113708" data-name="Path 113708" d="M149.577,76.579H123a.75.75,0,0,1-.6-1.2l1.962-2.615a7.61,7.61,0,0,0,1.512-4.537V66.164a10.414,10.414,0,0,1,20.829,0v2.062a7.611,7.611,0,0,0,1.512,4.537l1.962,2.615a.75.75,0,0,1-.6,1.2Zm-25.077-1.5h23.577l-1.062-1.415a9.12,9.12,0,0,1-1.812-5.437V66.164a8.914,8.914,0,0,0-17.829,0v2.062a9.12,9.12,0,0,1-1.812,5.437Z" transform="translate(24.611 11.755)"/>
        <path id="Rectangle_22989" data-name="Rectangle 22989" d="M-.75-.75H12.83V9.81H-.75ZM11.33.75H.75V8.31H11.33Z" transform="translate(123.451 137.718)"/>
        <path id="Rectangle_22990" data-name="Rectangle 22990" d="M-.75-.75H12.83v16H-.75ZM11.33.75H.75v13H11.33Z" transform="translate(129.491 160.066)"/>
        <path id="Path_113709" data-name="Path 113709" d="M238.8,166.753H220.384V41.821L196.595,9.706H185.642V122.055H167.229V1.25H121.616V61.4l-9.956,4.267V24.2H81.75v48.78h-1.5V22.7h32.909V63.389l6.956-2.981V-.25h48.614v120.8h15.413V8.206H197.35l24.533,33.12V165.253H237.3V101.976h1.5Z" transform="translate(15.873 0.104)"/>
        <path id="Rectangle_22991" data-name="Rectangle 22991" d="M-.75-.75H107.058V46.656H-.75ZM105.558.75H.75V45.156H105.558Z" transform="translate(324.893 155.969)"/>
        <path id="Rectangle_22992" data-name="Rectangle 22992" d="M-.75-.75H92.728V20.32H-.75ZM91.228.75H.75V18.82H91.228Z" transform="translate(332.687 136.399)"/>
        <path id="Rectangle_22993" data-name="Rectangle 22993" d="M-.75-.75H58.736V15.741H-.75ZM57.236.75H.75V14.241H57.236Z" transform="translate(349.356 121.409)"/>
        <path id="Path_113710" data-name="Path 113710" d="M335.345,179.379H298.5V125.923a18.423,18.423,0,1,1,36.845,0Z" transform="translate(61.124 22.365)" fill="#fff"/>
        <path id="Path_113710_-_Outline" data-name="Path 113710 - Outline" d="M336.1,180.129H297.75V125.923a19.173,19.173,0,1,1,38.345,0Zm-36.845-1.5H334.6V125.923a17.673,17.673,0,0,0-35.345,0Z" transform="translate(61.124 22.365)" fill="#707070"/>
        <path id="Path_113711" data-name="Path 113711" d="M336.1,180.129H297.75V125.923a19.173,19.173,0,1,1,38.345,0Zm-36.845-1.5H334.6V125.923a17.673,17.673,0,1,0-35.345,0Z" transform="translate(61.124 22.365)"/>
        <path id="Path_113712" data-name="Path 113712" d="M292.247,153.955h-16v-9.206a8,8,0,0,1,16,0Zm-14.5-1.5h13v-7.706a6.5,6.5,0,0,0-13,0Z" transform="translate(56.651 28.607)"/>
        <path id="Path_113713" data-name="Path 113713" d="M340.448,105.723h-46.2v-4.374a23.1,23.1,0,1,1,46.2,0Zm-44.7-1.5h43.2v-2.874a21.6,21.6,0,0,0-43.2,0Z" transform="translate(60.396 16.436)"/>
        <path id="Path_113714" data-name="Path 113714" d="M299.754,105.159a.75.75,0,0,1-.75-.75v-3.321A25.133,25.133,0,0,1,303.1,87.3a25.459,25.459,0,0,1,10.613-9.178.75.75,0,1,1,.631,1.361,23.912,23.912,0,0,0-13.842,21.6v3.321A.75.75,0,0,1,299.754,105.159Z" transform="translate(61.385 16.395)"/>
        <path id="Path_113715" data-name="Path 113715" d="M329.93,104.867a.75.75,0,0,1-.75-.75v-3.283A23.634,23.634,0,0,0,315.5,79.486a.75.75,0,1,1,.631-1.361A25.184,25.184,0,0,1,326.628,87.2a24.853,24.853,0,0,1,4.053,13.631v3.283A.75.75,0,0,1,329.93,104.867Z" transform="translate(64.727 16.395)"/>
        <path id="Path_113716" data-name="Path 113716" d="M305.7,105.159a.75.75,0,0,1-.75-.75v-3.321a37.386,37.386,0,0,1,2.467-13.651,21.388,21.388,0,0,1,6.5-9.228.75.75,0,1,1,.911,1.192c-5.086,3.885-8.373,12.4-8.373,21.686v3.321A.75.75,0,0,1,305.7,105.159Z" transform="translate(62.622 16.395)"/>
        <path id="Path_113717" data-name="Path 113717" d="M324.021,104.867a.75.75,0,0,1-.75-.75v-3.283c0-9.179-3.248-17.592-8.274-21.432a.75.75,0,0,1,.911-1.192,21.156,21.156,0,0,1,6.424,9.127,36.965,36.965,0,0,1,2.439,13.5v3.283A.75.75,0,0,1,324.021,104.867Z" transform="translate(64.651 16.395)"/>
        <path id="Path_113718" data-name="Path 113718" d="M328.911,179.089H303.25V124.58a12.83,12.83,0,1,1,25.661,0Zm-24.161-1.5h22.661V124.58a11.33,11.33,0,1,0-22.661,0Z" transform="translate(62.268 23.405)"/>
        <path id="Path_113719" data-name="Path 113719" d="M289.414,170.455H278.25V158.832a5.582,5.582,0,0,1,11.164,0Zm-9.664-1.5h8.164V158.832a4.082,4.082,0,0,0-8.164,0Z" transform="translate(57.067 32.039)"/>
        <path id="Rectangle_22994" data-name="Rectangle 22994" d="M-.75-.75H8V9.576H-.75ZM6.5.75H.75V8.076H6.5Z" transform="translate(374.725 86.375)"/>
        <path id="Path_113720" data-name="Path 113720" d="M352.247,153.955h-16v-9.206a8,8,0,0,1,16,0Zm-14.5-1.5h13v-7.706a6.5,6.5,0,0,0-13,0Z" transform="translate(69.134 28.607)"/>
        <path id="Path_113721" data-name="Path 113721" d="M349.414,170.455H338.25V158.832a5.582,5.582,0,1,1,11.164,0Zm-9.664-1.5h8.164V158.832a4.082,4.082,0,1,0-8.164,0Z" transform="translate(69.55 32.039)"/>
        <path id="Line_533" data-name="Line 533" d="M115.369.75H0V-.75H115.369Z" transform="translate(320.362 181.811)"/>
        <path id="Line_534" data-name="Line 534" d="M24.765.75H0V-.75H24.765Z" transform="translate(365.664 155.838)"/>
        <path id="Line_535" data-name="Line 535" d="M.75,18.725H-.75V0H.75Z" transform="translate(378.047 182.415)"/>
        <path id="Line_536" data-name="Line 536" d="M.75,12.685H-.75V0H.75Z" transform="translate(372.308 164.899)"/>
        <path id="Line_537" data-name="Line 537" d="M.75,12.685H-.75V0H.75Z" transform="translate(383.785 164.899)"/>
        <path id="Line_538" data-name="Line 538" d="M.75,12.685H-.75V0H.75Z" transform="translate(378.047 164.899)"/>
        <path id="Line_539" data-name="Line 539" d="M.75,4.953H-.75V0H.75Z" transform="translate(378.349 81.544)"/>
        <path id="Line_540" data-name="Line 540" d="M.75,26.207H-.75V0H.75Z" transform="translate(378.497 95.201)"/>
        <path id="Path_113722" data-name="Path 113722" d="M314.624,69.185,310.47,65.03l1.061-1.061,3.094,3.094,3.094-3.094,1.061,1.061Z" transform="translate(63.725 13.419)"/>
        <path id="Path_113723" data-name="Path 113723" d="M359.214,115.492h-7.822v-1.5h4.259l-.56-.573a7.592,7.592,0,0,1-1.873-3.255,8.7,8.7,0,0,0-8.3-6.414H337.5v-1.5h7.42a9.917,9.917,0,0,1,6.108,2.092,10.275,10.275,0,0,1,3.635,5.419,6.087,6.087,0,0,0,1.5,2.61Z" transform="translate(70.216 21.657)"/>
        <path id="Path_113734" data-name="Path 113734" d="M343.54,115.492h-7.822l3.05-3.121a6.088,6.088,0,0,0,1.5-2.611,10.274,10.274,0,0,1,3.634-5.418,9.918,9.918,0,0,1,6.108-2.092h7.42v1.5h-7.42a8.7,8.7,0,0,0-8.3,6.413,7.592,7.592,0,0,1-1.874,3.256l-.559.572h4.259Z" transform="translate(-8.078 21.657)"/>
        <path id="Path_113725" data-name="Path 113725" d="M275.777,110.1H260.988V12.25H211.75V36.869h-1.5V10.75h52.238V108.6h11.789V54.24H309.6V88.815h-1.5V55.74H275.777Z" transform="translate(42.92 2.393)"/>
        <path id="Path_113726" data-name="Path 113726" d="M269.762,169.262H198.681l12.949-9.352h45.183Zm-66.443-1.5h61.8l-8.8-6.352H212.115Z" transform="translate(40.839 33.425)"/>
        <path id="Rectangle_22995" data-name="Rectangle 22995" d="M-.75-.75H32.159V8H-.75ZM30.659.75H.75V6.5H30.659Z" transform="translate(259.356 186.836)"/>
        <path id="Rectangle_22996" data-name="Rectangle 22996" d="M-.75-.75H20.079V10.414H-.75ZM18.579.75H.75V8.914H18.579Z" transform="translate(265.396 177.171)"/>
        <path id="Path_113727" data-name="Path 113727" d="M235.758,87.866H225.4l-8.534-9.956h27.422Zm-9.664-1.5h8.974l5.963-6.956h-20.9Z" transform="translate(44.48 16.365)"/>
        <path id="Rectangle_22997" data-name="Rectangle 22997" d="M-.75-.75H10.414V74.441H-.75ZM8.914.75H.75V72.941H8.914Z" transform="translate(270.228 103.48)"/>
        <path id="Ellipse_19167" data-name="Ellipse 19167" d="M4.832-.75A5.582,5.582,0,1,1-.75,4.832,5.589,5.589,0,0,1,4.832-.75Zm0,9.664A4.082,4.082,0,1,0,.75,4.832,4.087,4.087,0,0,0,4.832,8.914Z" transform="translate(270.228 52.743)"/>
        <path id="Path_113728" data-name="Path 113728" d="M233.25,85.525h-1.5V58.2h3.844a10.665,10.665,0,0,0,10.653-10.653v-.539l-11.54,7.144-.79-1.275,13.829-8.561v3.232A12.153,12.153,0,0,1,235.594,59.7H233.25Z" transform="translate(47.393 9.499)"/>
        <path id="Path_113729" data-name="Path 113729" d="M227.747,85.525h-1.5V59.7H223.9A12.153,12.153,0,0,1,211.75,47.545V44.313l13.829,8.561-.79,1.275-11.54-7.144v.539A10.665,10.665,0,0,0,223.9,58.2h3.844Z" transform="translate(43.232 9.499)"/>
        <path id="Line_541" data-name="Line 541" d="M4.47,5.53l-5-5L.53-.53l5,5Z" transform="translate(205.021 169.437)"/>
        <path id="Line_542" data-name="Line 542" d="M.75,38H-.75V0H.75Z" transform="translate(210.021 165.437)"/>
        <path id="Path_113730" data-name="Path 113730" d="M174.664,157.575a8.007,8.007,0,0,1-8-8,8.119,8.119,0,0,1,.123-1.393,8,8,0,0,1-.488-11.2,5.579,5.579,0,0,1,5.4-9.578,6.771,6.771,0,0,1,6.584-5.158,6.791,6.791,0,0,1,6.038,9.9,11.007,11.007,0,0,1,5.584,9.578,10.9,10.9,0,0,1-2.295,6.729,11.1,11.1,0,0,1-5.4,3.772,8.072,8.072,0,0,1-2.711,3.721A7.929,7.929,0,0,1,174.664,157.575Zm-4.832-28.993a4.08,4.08,0,0,0-1.991,7.643l.931.519-.8.7a6.5,6.5,0,0,0,.122,9.89l.35.294-.1.446a6.7,6.7,0,0,0-.175,1.5,6.5,6.5,0,0,0,12.737,1.831l.118-.4.4-.111a9.51,9.51,0,0,0,1.534-17.77l-.793-.374.492-.725a5.286,5.286,0,1,0-9.625-3.456l-.1,1.2-1.035-.621A3.962,3.962,0,0,0,169.832,128.582Z" transform="translate(33.35 25.59)"/>
        <path id="Line_543" data-name="Line 543" d="M4.47,5.53l-5-5L.53-.53l5,5Z" transform="translate(452.021 168.437)"/>
        <path id="Line_544" data-name="Line 544" d="M.75,37H-.75V0H.75Z" transform="translate(457.021 164.437)"/>
        <path id="Path_113731" data-name="Path 113731" d="M378.664,156.575a8.007,8.007,0,0,1-8-8,8.12,8.12,0,0,1,.123-1.393,8,8,0,0,1-.488-11.2,5.579,5.579,0,0,1,5.4-9.578,6.772,6.772,0,0,1,6.584-5.158,6.791,6.791,0,0,1,6.038,9.9,11.007,11.007,0,0,1,5.584,9.578,10.9,10.9,0,0,1-2.3,6.729,11.1,11.1,0,0,1-5.4,3.772,8.072,8.072,0,0,1-2.711,3.721A7.929,7.929,0,0,1,378.664,156.575Zm-4.832-28.993a4.08,4.08,0,0,0-1.991,7.643l.931.519-.8.7a6.5,6.5,0,0,0,.122,9.89l.35.294-.1.446a6.7,6.7,0,0,0-.175,1.5,6.5,6.5,0,0,0,12.737,1.831l.118-.4.4-.111a9.51,9.51,0,0,0,1.534-17.77l-.793-.374.492-.725a5.286,5.286,0,1,0-9.625-3.456l-.1,1.2-1.035-.621A3.962,3.962,0,0,0,373.832,127.582Z" transform="translate(75.791 25.382)"/>
        <path id="Line_545" data-name="Line 545" d="M4.47,5.53l-5-5L.53-.53l5,5Z" transform="translate(11.021 168.437)"/>
        <path id="Line_546" data-name="Line 546" d="M.75,37H-.75V0H.75Z" transform="translate(16.021 164.437)"/>
        <path id="Path_113732" data-name="Path 113732" d="M13.664,156.575a8.007,8.007,0,0,1-8-8,8.119,8.119,0,0,1,.123-1.393,8,8,0,0,1-.488-11.2,5.579,5.579,0,0,1,5.4-9.578,6.772,6.772,0,0,1,6.584-5.158,6.791,6.791,0,0,1,6.038,9.9,11.007,11.007,0,0,1,5.584,9.578,10.9,10.9,0,0,1-2.3,6.729,11.1,11.1,0,0,1-5.4,3.772,8.072,8.072,0,0,1-2.711,3.721A7.929,7.929,0,0,1,13.664,156.575ZM8.832,127.582a4.08,4.08,0,0,0-1.991,7.643l.931.519-.8.7a6.5,6.5,0,0,0,.122,9.89l.35.294-.1.446a6.7,6.7,0,0,0-.175,1.5A6.5,6.5,0,0,0,19.9,150.408l.118-.4.4-.111a9.51,9.51,0,0,0,1.534-17.77l-.793-.374.492-.725a5.286,5.286,0,1,0-9.625-3.456l-.1,1.2-1.035-.621A3.962,3.962,0,0,0,8.832,127.582Z" transform="translate(-0.146 25.382)"/>
        <path id="Path_113733" data-name="Path 113733" d="M137.728,14.091a25.338,25.338,0,0,1-17-6.524L113.5,1.057l1-1.115,7.234,6.51a24.036,24.036,0,0,0,32.442-.415L160.6-.044l1.032,1.089-6.421,6.083a25.343,25.343,0,0,1-17.152,6.962Z" transform="translate(22.739 0.104)"/>
      </g>
    </g>
  </g>
</svg>
