<svg xmlns="http://www.w3.org/2000/svg" width="484.424" height="291.783" viewBox="0 0 484.424 291.783">
  <g id="shape_about" transform="translate(-321.483 -1089.425)">
    <g id="OBJECTS" transform="translate(341.209 1099.625)">
      <g id="Group_58743" data-name="Group 58743" transform="translate(23.237 215.511)">
        <path id="Path_3828" d="M100.958,211.811v12.762h8.432Z" transform="translate(19.718 -160.722)" fill="#d0d0d0"/>
        <path id="Path_3827" d="M95.589,203.678v12.77h8.432Z" transform="translate(16.657 -165.359)" fill="#d0d0d0"/>
        <path id="Path_3826" d="M90.219,195.545v12.77h8.432Z" transform="translate(13.595 -169.997)" fill="#d0d0d0"/>
        <path id="Path_3824" d="M84.85,187.412v12.77h8.426Z" transform="translate(10.534 -174.634)" fill="#d0d0d0"/>
        <path id="Path_3825" d="M79.481,179.274v12.77h8.432Z" transform="translate(7.472 -179.274)" fill="#d0d0d0"/>
        <path id="Path_3828_00000109013726359536953410000008660165395218620581_" d="M91.894,211.811v12.762h8.432Z" transform="translate(14.55 -160.722)" fill="#d0d0d0"/>
        <path id="Path_3827_00000127737797485320224690000000316171348118052250_" d="M86.525,203.678v12.77h8.432Z" transform="translate(11.488 -165.359)" fill="#d0d0d0"/>
        <path id="Path_3826_00000083807221100266126330000007282586654572691645_" d="M81.155,195.545v12.77h8.432Z" transform="translate(8.427 -169.997)" fill="#d0d0d0"/>
        <path id="Path_3824_00000048503134330433283600000005228089595989261982_" d="M75.786,187.412v12.77h8.426Z" transform="translate(5.365 -174.634)" fill="#d0d0d0"/>
        <path id="Path_3825_00000091700871018945199980000012447105651403830447_" d="M70.416,179.274v12.77h8.432Z" transform="translate(2.303 -179.274)" fill="#d0d0d0"/>
        <path id="Path_3767" d="M42.321,211.811v12.762H33.889Z" transform="translate(-18.523 -160.722)" fill="#d0d0d0"/>
        <path id="Path_3823" d="M32.535,211.811v12.762H24.1Z" transform="translate(-24.103 -160.722)" fill="#d0d0d0"/>
        <path id="Path_3768" d="M47.692,203.678v12.77H39.26Z" transform="translate(-15.461 -165.359)" fill="#d0d0d0"/>
        <path id="Path_3822" d="M37.9,203.678v12.77H29.473Z" transform="translate(-21.041 -165.359)" fill="#d0d0d0"/>
        <path id="Path_3769" d="M53.061,195.545v12.77H44.629Z" transform="translate(-12.4 -169.997)" fill="#d0d0d0"/>
        <path id="Path_3821" d="M43.274,195.545v12.77H34.842Z" transform="translate(-17.98 -169.997)" fill="#d0d0d0"/>
        <path id="Path_3770" d="M58.43,187.412v12.77H50Z" transform="translate(-9.338 -174.634)" fill="#d0d0d0"/>
        <path id="Path_3819" d="M48.644,187.412v12.77H40.212Z" transform="translate(-14.918 -174.634)" fill="#d0d0d0"/>
        <path id="Path_3771" d="M63.8,179.274v12.77H55.368Z" transform="translate(-6.277 -179.274)" fill="#d0d0d0"/>
        <path id="Path_3820" d="M54.013,179.274v12.77H45.581Z" transform="translate(-11.857 -179.274)" fill="#d0d0d0"/>
      </g>
      <path id="Icon_material-location-on" data-name="Icon material-location-on" d="M19.333,3A11.824,11.824,0,0,0,7.5,14.833c0,8.875,11.833,21.975,11.833,21.975s11.833-13.1,11.833-21.975A11.824,11.824,0,0,0,19.333,3Zm0,16.059a4.226,4.226,0,1,1,4.226-4.226A4.228,4.228,0,0,1,19.333,19.059Z" transform="translate(26.463 35.544)" fill="#ffd800"/>
      <line id="Line_210" data-name="Line 210" y2="43.948" transform="translate(46.165 79.496)" fill="none" stroke="#2c2c2c" stroke-width="2" stroke-dasharray="4"/>
      <path id="Icon_material-location-on-2" data-name="Icon material-location-on" d="M22.961,3A15.45,15.45,0,0,0,7.5,18.462c0,11.6,15.461,28.714,15.461,28.714S38.423,30.058,38.423,18.462A15.45,15.45,0,0,0,22.961,3Zm0,20.984a5.522,5.522,0,1,1,5.522-5.522A5.524,5.524,0,0,1,22.961,23.984Z" transform="translate(402.797 60.291)" fill="#ffd800"/>
      <line id="Line_209" data-name="Line 209" y2="70.369" transform="translate(426.109 114.233)" fill="none" stroke="#2c2c2c" stroke-width="2" stroke-dasharray="5"/>
      <path id="Path_3837_00000136376970192763587660000014273684211683902614_" d="M65.725,68.577H77.314V204.9H65.725Z" transform="translate(22.866 -22.195)" fill="#ededed"/>
      <path id="Path_3837_00000136376970192763587660000014273684211683902614_2" data-name="Path_3837_00000136376970192763587660000014273684211683902614_" d="M65.725,68.577H83.362V199.126H65.725Z" transform="translate(-55.874 54.867)" fill="#ededed"/>
      <path id="Path_3837_00000172407616772494208070000016892682671387895173_" d="M47.313,165.989H58.9v20.868H47.313Z" transform="translate(12.368 29.835)" fill="#ededed"/>
      <path id="Path_3837_00000172407616772494208070000016892682671387895173_2" data-name="Path_3837_00000172407616772494208070000016892682671387895173_" d="M47.313,165.989H58.2V179.6H47.313Z" transform="translate(21.78 37.096)" fill="#d9d9d9"/>
      <path id="Path_3837_00000172407616772494208070000016892682671387895173_3" data-name="Path_3837_00000172407616772494208070000016892682671387895173_" d="M47.313,165.989H58.384V179.6H47.313Z" transform="translate(44.996 37.096)" fill="#d9d9d9"/>
      <path id="Path_3837_00000145749618358819105950000017518159500160272812_" d="M43.848,158.722H57.262v9.7H43.848Z" transform="translate(10.392 25.692)" fill="#fff"/>
      <path id="Path_3837_00000172407616772494208070000016892682671387895173_4" data-name="Path_3837_00000172407616772494208070000016892682671387895173_" d="M47.313,165.989H58.2v10.12H47.313Z" transform="translate(7.276 17.764)" fill="#ededed"/>
      <path id="Path_3837_00000051369594393740946290000007951837306483611052_" d="M34.78,178.451H46.369V193.82H34.78Z" transform="translate(5.222 36.941)" fill="#fff"/>
      <path id="Path_3837_00000019669593508572360440000011795198078279181698_" d="M28.481,187.112H38.819V200.82H28.481V187.112Z" transform="translate(1.63 41.879)" fill="#fff"/>
      <path id="Path_3837_00000067201136949603153790000002697685471769332097_" d="M21.732,195.357h10.6v12.621h-10.6Z" transform="translate(-2.218 46.58)" fill="#fff"/>
      <path id="Path_3837_00000023967536499360698540000002796128221918851003_" d="M15.493,203.676h9.8v12.769h-9.8Z" transform="translate(-5.775 51.324)" fill="#fff"/>
      <path id="Path_3837_00000056386225167768559390000015178269635301037243_" d="M9.3,212.088h9.716v12.769H9.3Z" transform="translate(-9.303 56.12)" fill="#fff"/>
      <path id="Path_3756" data-name="Path 3756" d="M95.012,48.073V257.958l-10.4.008V235.473l4.868.009V225.6H79.734V41.274A65.272,65.272,0,0,1,95.012,48.073Z" transform="translate(30.853 -41.274)" fill="#ededed"/>
      <path id="Path_3830" d="M180.064,156.19h1.591V112.925h-5.62V156.19h4.028" transform="translate(85.762 -0.42)" fill="#ededed"/>
      <path id="Path_3831" d="M179.764,120.927h4.659V97.7H171.18v8.881l3.611,7.684v6.661l4.963,0" transform="translate(82.994 -9.102)" fill="#ededed"/>
      <path id="Union_3" d="M176.787,104.429l.945-9.264h-4.671V85.9H183.35v18.523Z" transform="translate(84.066 -15.829)" fill="#ededed"/>
      <rect id="Rectangle_16571" width="14.413" height="44.072" transform="translate(303.314 209.922)" fill="#fff"/>
      <rect id="Rectangle_16572" width="14.413" height="25.784" transform="translate(296.108 254.444)" fill="#ededed"/>
      <rect id="Rectangle_16573" width="14.413" height="15.722" transform="translate(296.108 194.199)" fill="#fff"/>
      <rect id="Rectangle_16574" width="14.413" height="23.179" transform="translate(314.256 171.119)" fill="#fff"/>
      <rect id="Rectangle_16575" width="12.408" height="25.19" transform="translate(339.774 145.929)" fill="#fff"/>
      <path id="Path_3836" d="M127.893,107.991H141.88v21.155H127.893Z" transform="translate(58.313 -3.234)" fill="#ededed"/>
      <rect id="Rectangle_16560" width="12.795" height="40.201" transform="translate(195.499 64.556)" fill="#ededed"/>
      <rect id="Rectangle_16560-2" data-name="Rectangle_16560" width="5.847" height="10.991" transform="translate(204.92 53.565)" fill="#ededed" opacity="0.5"/>
      <path id="Path_3837" d="M120.167,121.483h16.677V275.768H120.167V121.483Z" transform="translate(53.907 4.459)" fill="#ededed"/>
      <path id="Path_3837_00000060711235797607631360000010867615403272220087_" d="M160.566,146.415h15.169V271.179H160.566Z" transform="translate(76.942 9.354)" fill="#ededed"/>
      <rect id="Rectangle_16525" width="133.509" height="8.23" transform="translate(304.389 209.922)" fill="#fff"/>
      <rect id="Rectangle_16525-2" data-name="Rectangle_16525" width="44.425" height="10.942" transform="translate(314.256 210.133) rotate(90)" fill="#ededed"/>
      <rect id="Rectangle_16525-3" data-name="Rectangle_16525" width="15.835" height="9.885" transform="translate(305.992 194.298) rotate(90)" fill="#ededed"/>
      <rect id="Rectangle_16525-4" data-name="Rectangle_16525" width="24.612" height="9.55" transform="translate(324.674 171.119) rotate(90)" fill="#ededed"/>
      <rect id="Rectangle_16525-5" data-name="Rectangle_16525" width="24.612" height="8.883" transform="translate(349.7 145.929) rotate(90)" fill="#ededed"/>
      <path id="Path_3838" d="M253.707,119.144s-10.646,10.564-10.453,23.383c-.047-.129-13.177,0-13.177,0s.231-13.676,10.363-19.5S253.707,119.144,253.707,119.144Z" transform="translate(116.575 2.948)" fill="#ededed"/>
      <g id="Group_69501" data-name="Group 69501" transform="translate(35.048 145.475)">
        <rect id="Rectangle_16524" width="9.869" height="9.869" fill="#ffd800"/>
        <rect id="Rectangle_16524-2" data-name="Rectangle_16524" width="9.869" height="9.869" transform="translate(19.188)" fill="#ffd800"/>
        <rect id="Rectangle_16529" width="9.869" height="9.869" transform="translate(0 19.139)" fill="#ffd800"/>
        <rect id="Rectangle_16529-2" data-name="Rectangle_16529" width="9.869" height="9.869" transform="translate(19.188 19.139)" fill="#ffd800"/>
        <rect id="Rectangle_16534" width="9.869" height="9.869" transform="translate(0 38.276)" fill="#ffd800"/>
      </g>
      <g id="Group_69502" data-name="Group 69502" transform="translate(259.845 174.734)">
        <rect id="Rectangle_16524-3" data-name="Rectangle_16524" width="9.869" height="9.869" fill="#ffd800"/>
        <rect id="Rectangle_16525-6" data-name="Rectangle_16525" width="9.869" height="9.869" transform="translate(16.897)" fill="#ffd800"/>
        <rect id="Rectangle_16529-3" data-name="Rectangle_16529" width="9.869" height="9.869" transform="translate(0 19.139)" fill="#ffd800"/>
        <rect id="Rectangle_16534-2" data-name="Rectangle_16534" width="9.869" height="9.869" transform="translate(0 38.276)" fill="#ffd800"/>
        <rect id="Rectangle_16536" width="9.869" height="9.869" transform="translate(0 57.417)" fill="#ffd800"/>
        <rect id="Rectangle_16537" width="9.869" height="9.869" transform="translate(16.897 57.629)" fill="#ffd800"/>
        <rect id="Rectangle_16537-2" data-name="Rectangle_16537" width="9.869" height="9.869" transform="translate(16.897 38.484)" fill="#ffd800"/>
        <rect id="Rectangle_16539" width="9.869" height="9.869" transform="translate(0 75.336)" fill="#ffd800"/>
      </g>
      <path id="Path_3789" d="M241.088,143.724a9.07,9.07,0,0,0-9.07,9.069h0v7.865H250.16v-7.865a9.07,9.07,0,0,0-9.07-9.069h0" transform="translate(92.657 120.319)" fill="#d9d9d9"/>
      <path id="Path_3817" d="M250.88,143.724a9.07,9.07,0,0,0-9.07,9.069h0v7.865h18.142v-7.865a9.07,9.07,0,0,0-9.07-9.069h0" transform="translate(119.402 120.319)" fill="#d9d9d9"/>
      <g id="Group_69503" data-name="Group 69503" transform="translate(324.675 160.864)">
        <rect id="Rectangle_16525-7" data-name="Rectangle_16525" width="9.869" height="21.045" transform="translate(0 62.014)" fill="#ffd800"/>
        <rect id="Rectangle_16525-8" data-name="Rectangle_16525" width="9.869" height="21.045" transform="translate(28.82 62.014)" fill="#ffd800"/>
        <rect id="Rectangle_16525-9" data-name="Rectangle_16525" width="9.869" height="21.045" transform="translate(57.639 62.014)" fill="#ffd800"/>
        <rect id="Rectangle_16525-10" data-name="Rectangle_16525" width="9.869" height="21.045" transform="translate(84.538 62.014)" fill="#ffd800"/>
        <path id="Path_3789-2" data-name="Path_3789" d="M237.218,143.724a5.2,5.2,0,0,0-5.2,5.2h0v4.51h10.4v-4.51a5.2,5.2,0,0,0-5.2-5.2h0" transform="translate(-206.993 -143.724)" fill="#d9d9d9"/>
        <path id="Path_3817-2" data-name="Path_3817" d="M247.01,143.724a5.2,5.2,0,0,0-5.2,5.2h0v4.51h10.4v-4.51a5.2,5.2,0,0,0-5.2-5.2h0" transform="translate(-201.409 -143.724)" fill="#d9d9d9"/>
        <path id="Path_3818" d="M257.486,143.724a5.2,5.2,0,0,0-5.2,5.2h0v4.51h10.4v-4.51a5.2,5.2,0,0,0-5.2-5.2h0" transform="translate(-195.437 -143.724)" fill="#d9d9d9"/>
      </g>
      <path id="Path_3818-2" data-name="Path_3818" d="M261.355,143.724a9.07,9.07,0,0,0-9.07,9.069h0v7.865h18.142v-7.865a9.07,9.07,0,0,0-9.07-9.069h0" transform="translate(145.463 120.319)" fill="#d9d9d9"/>
      <g id="Group_58725" data-name="Group 58725" transform="translate(0 0)">
        <line id="Line_214" x2="10.914" transform="translate(137.888 52.706)" fill="none" stroke="#ffd800" stroke-miterlimit="10" stroke-width="6"/>
        <line id="Line_215" x2="10.681" transform="translate(137.888 78.394)" fill="none" stroke="#ffd800" stroke-miterlimit="10" stroke-width="6"/>
        <line id="Line_216" x2="10.723" transform="translate(137.888 105.249)" fill="none" stroke="#ffd800" stroke-miterlimit="10" stroke-width="6"/>
        <line id="Line_217" x2="10.723" transform="translate(137.888 130.937)" fill="none" stroke="#ffd800" stroke-miterlimit="10" stroke-width="6"/>
        <line id="Line_218" x2="10.723" transform="translate(137.888 156.624)" fill="none" stroke="#ffd800" stroke-miterlimit="10" stroke-width="6"/>
        <line id="Line_219" x2="10.723" transform="translate(137.888 182.312)" fill="none" stroke="#ffd800" stroke-miterlimit="10" stroke-width="6"/>
        <path id="Path_3756-2" data-name="Path_3756" d="M188.512,156.163V112.492h-12.09v43.671" transform="translate(85.983 -0.667)" fill="none" stroke="#000" stroke-miterlimit="10" stroke-width="2"/>
        <path id="Path_3758" d="M195.713,85.9H173.062v8.837h3.724v9.691h15.2V94.74h3.724Z" transform="translate(84.067 -15.829)" fill="none" stroke="#000" stroke-miterlimit="10" stroke-width="2"/>
        <path id="Rectangle_16468_00000137130709597825398740000010546005759608599995_" d="M15.493,259.341v-130.9H93.228" transform="translate(-5.775 8.427)" fill="none" stroke="#000" stroke-miterlimit="10" stroke-width="2"/>
        <rect id="Rectangle_16556" width="77.735" height="13.803" transform="translate(9.718 123.066)" fill="none" stroke="#000" stroke-miterlimit="10" stroke-width="2"/>
        <path id="Path_3834_00000092417267899114886770000004970430580434100096_" d="M88.122,69.932h-23.1v82.762" transform="translate(22.467 -24.934)" fill="none" stroke="#000" stroke-linecap="round" stroke-width="2"/>
        <path id="Path_3762_00000124161263997706143490000013514929560146176162_" d="M79.734,225.6V41.274s44.149,11.591,44.149,56.446V283.505" transform="translate(30.853 -41.274)" fill="none" stroke="#000" stroke-linecap="round" stroke-width="2"/>
        <rect id="Rectangle_16501" width="16.452" height="10.735" transform="translate(204.374 52.96)" fill="none" stroke="#000" stroke-miterlimit="10" stroke-width="2"/>
        <rect id="Rectangle_16504" width="53.705" height="21.155" transform="translate(185.747 104.757)" fill="none" stroke="#000" stroke-miterlimit="10" stroke-width="2"/>
        <path id="Path_3839_00000178916585693965763110000010073848316573291435_" d="M193,276.075H120.569V121.483h75.788v30.083" transform="translate(54.137 4.459)" fill="none" stroke="#000" stroke-width="2"/>
        <line id="Line_223" x2="30.358" transform="translate(197.966 115.758)" fill="none" stroke="#ffd800" stroke-miterlimit="10" stroke-width="5"/>
        <path id="Path_3765" d="M56.722,179.275Z" transform="translate(17.733 37.411)" fill="none" stroke="#000" stroke-linecap="round" stroke-linejoin="round" stroke-width="2"/>
        <rect id="Rectangle_16515" width="93.529" height="12.77" transform="translate(40.449 216.692)" fill="none" stroke="#000" stroke-miterlimit="10" stroke-width="2"/>
        <rect id="Rectangle_16516" width="113.637" height="12.77" transform="translate(30.395 229.461)" fill="none" stroke="#000" stroke-miterlimit="10" stroke-width="2"/>
        <rect id="Rectangle_16517" width="135.403" height="12.77" transform="translate(19.514 242.231)" fill="none" stroke="#000" stroke-miterlimit="10" stroke-width="2"/>
        <rect id="Rectangle_16518" width="155.03" height="12.769" transform="translate(9.718 255)" fill="none" stroke="#000" stroke-miterlimit="10" stroke-width="2"/>
        <rect id="Rectangle_16519" width="174.464" height="12.77" transform="translate(0.002 267.77)" fill="none" stroke="#000" stroke-miterlimit="10" stroke-width="2"/>
        <path id="Rectangle_16520" d="M0,0H56.5V22.493H0Z" transform="translate(58.96 194.199)" fill="none" stroke="#000" stroke-width="2"/>
        <path id="Path_3766" d="M183.768,217.545v3.74L9.3,221.3V217.57" transform="translate(-9.304 59.231)" fill="none" stroke="#000" stroke-miterlimit="10" stroke-width="2"/>
        <path id="Path_3784" d="M219.24,265.392H160.566V140.305h88.621v15.626" transform="translate(76.942 15.191)" fill="none" stroke="#000" stroke-width="2"/>
        <path id="Path_3788" d="M230.316,142.354a23.254,23.254,0,1,1,46.507-.385c0,.129,0,.256,0,.385Z" transform="translate(116.711 2.991)" fill="none" stroke="#000" stroke-miterlimit="10" stroke-width="2"/>
        <rect id="Rectangle_16548" width="133.934" height="44.072" transform="translate(303.314 210.374)" fill="none" stroke="#000" stroke-miterlimit="10" stroke-width="2"/>
        <rect id="Rectangle_16549" width="112.049" height="23.179" transform="translate(314.256 171.119)" fill="none" stroke="#000" stroke-miterlimit="10" stroke-width="2"/>
        <path id="Path_3794" d="M279.973,133.841H225.885v25.594c.342-.016,60.408.182,60.408.182V133.841Z" transform="translate(114.185 11.505)" fill="none" stroke="#000" stroke-miterlimit="10" stroke-width="2"/>
        <rect id="Rectangle_16550" width="148.057" height="16.075" transform="translate(296.253 194.298)" fill="none" stroke="#000" stroke-miterlimit="10" stroke-width="2"/>
        <rect id="Rectangle_16551" width="148.057" height="26.139" transform="translate(296.253 254.444)" fill="none" stroke="#000" stroke-miterlimit="10" stroke-width="2"/>
        <rect id="Rectangle_16521" width="66.092" height="9.884" transform="translate(54.24 184.324)" fill="none" stroke="#000" stroke-miterlimit="10" stroke-width="2"/>
        <line id="Line_206" data-name="Line 206" y2="47.455" transform="translate(87.453 136.869)" fill="none" stroke="#000" stroke-miterlimit="10" stroke-width="2"/>
        <path id="Path_5302" data-name="Path 5302" d="M12381.1,1553.15l-42.78,64.4" transform="translate(-12316.642 -1336.695)" fill="none" stroke="#000" stroke-width="2"/>
        <path id="Path_5303" data-name="Path 5303" d="M12338.317,1553.15l42.78,64.4" transform="translate(-12226.705 -1336.695)" fill="none" stroke="#000" stroke-width="2"/>
        <path id="Path_5304" data-name="Path 5304" d="M12381.1,1553.15l-42.78,64.4" transform="translate(-12301.651 -1336.695)" fill="none" stroke="#000" stroke-width="2"/>
        <path id="Path_5305" data-name="Path 5305" d="M12338.317,1553.15l42.78,64.4" transform="translate(-12241.694 -1336.695)" fill="none" stroke="#000" stroke-width="2"/>
        <line id="Line_225" x2="49.815" transform="translate(187.693 146.776)" fill="none" stroke="#000" stroke-miterlimit="10" stroke-width="2"/>
        <line id="Line_227" x2="49.815" transform="translate(187.693 174.052)" fill="none" stroke="#000" stroke-miterlimit="10" stroke-width="2"/>
        <line id="Line_229" x2="49.815" transform="translate(187.693 202.337)" fill="none" stroke="#000" stroke-miterlimit="10" stroke-width="2"/>
        <line id="Line_231" x2="49.815" transform="translate(187.693 229.611)" fill="none" stroke="#000" stroke-miterlimit="10" stroke-width="2"/>
        <line id="Line_233" x2="49.815" transform="translate(187.693 257.896)" fill="none" stroke="#000" stroke-miterlimit="10" stroke-width="2"/>
        <g id="Group_70113" data-name="Group 70113" transform="translate(195.5 63.696)">
          <rect id="Rectangle_16503" width="34.2" height="41.06" fill="none" stroke="#000" stroke-miterlimit="10" stroke-width="2"/>
          <rect id="Rectangle_16525-11" data-name="Rectangle_16525" width="9.869" height="9.869" transform="translate(12.344 23.68)" fill="#ffd800"/>
        </g>
        <g id="Group_70112" data-name="Group 70112" transform="translate(254.174 88.596)">
          <path id="Path_3757" d="M171.18,97.7v8.881l3.611,7.684v6.661h21.354v-6.661l3.611-7.684V97.7Z" transform="translate(-171.18 -97.698)" fill="none" stroke="#000" stroke-miterlimit="10" stroke-width="2"/>
          <rect id="Rectangle_16525-12" data-name="Rectangle_16525" width="9.869" height="9.869" transform="translate(9.342 6.293)" fill="#ffd800"/>
        </g>
      </g>
      <path id="Path_113651" data-name="Path 113651" d="M2359.875,1334h3.453l-40.964,61.776h-4.553Z" transform="translate(-2298.427 -1116.304)" fill="#fff"/>
      <path id="Path_113652" data-name="Path 113652" d="M2320.679,1333.923h-3.453l41.134,61.814h4.553Z" transform="translate(-2206.069 -1116.312)" fill="#fff"/>
      <path id="Path_113653" data-name="Path 113653" d="M2359.7,1333.966h3.453l-41.32,61.858h-4.553Z" transform="translate(-2282.909 -1116.308)" fill="#fff"/>
      <path id="Path_113654" data-name="Path 113654" d="M2319.609,1333.979h-3.453l41.32,61.858h4.553Z" transform="translate(-2220.29 -1116.306)" fill="#fff"/>
    </g>
    <path id="Path_3757-2" data-name="Path 3757" d="M-.017-.306H484.407" transform="translate(321.5 1380.491)" fill="none" stroke="#000" stroke-width="2"/>
    <path id="Icon_material-location-on-3" data-name="Icon material-location-on" d="M30.853,3A23.336,23.336,0,0,0,7.5,26.353c0,17.515,23.353,43.37,23.353,43.37s23.353-25.855,23.353-43.37A23.336,23.336,0,0,0,30.853,3Zm0,31.694a8.34,8.34,0,1,1,8.34-8.34A8.343,8.343,0,0,1,30.853,34.694Z" transform="translate(628.809 1086.425)" fill="#f0cc00"/>
    <line id="Line_208" data-name="Line 208" y2="92.633" transform="translate(660.191 1161.777)" fill="none" stroke="#2c2c2c" stroke-width="2" stroke-dasharray="7"/>
  </g>
</svg>
