<svg xmlns="http://www.w3.org/2000/svg" width="37.107" height="36.189" viewBox="0 0 37.107 36.189">
  <g id="Group_88197" data-name="Group 88197" transform="translate(-35.33 -51.813)">
    <path id="Path_114584" data-name="Path 114584" d="M61.909,94.934H33.566a4.985,4.985,0,0,1-4.985-4.985V62.524a3.779,3.779,0,0,1,3.779-3.779H61.909a3.779,3.779,0,0,1,3.779,3.779v28.63a3.779,3.779,0,0,1-3.779,3.779" transform="translate(6.749 -6.932)" fill="#007864"/>
    <path id="Path_114585" data-name="Path 114585" d="M58.609,83.234l-2.2-2.2a1.932,1.932,0,0,0-1.416-.668A2.042,2.042,0,0,0,53.577,81l-1.258,1.259-.236-.118a3.7,3.7,0,0,1-.393-.2,13.585,13.585,0,0,1-3.264-2.989A7.129,7.129,0,0,1,47.4,77.335c.314-.276.59-.591.865-.866l.354-.354a1.917,1.917,0,0,0,0-2.911l-1.1-1.1a3.568,3.568,0,0,1-.354-.393l-.748-.748A2.04,2.04,0,0,0,45,70.334a1.948,1.948,0,0,0-1.416.629L42.207,72.34a3.167,3.167,0,0,0-.9,1.927,7.172,7.172,0,0,0,.511,2.989,16.094,16.094,0,0,0,3.068,5.152,19.108,19.108,0,0,0,6.293,4.916,10.439,10.439,0,0,0,3.539,1.062h.276a3.125,3.125,0,0,0,2.36-1.022l.039-.04a5.951,5.951,0,0,1,.708-.708l.511-.511a1.973,1.973,0,0,0,0-2.871m-.9,2.045-.472.472c-.275.236-.511.511-.787.786a1.868,1.868,0,0,1-1.416.591h-.2a8.288,8.288,0,0,1-3.068-.944,17.9,17.9,0,0,1-5.86-4.6,17.074,17.074,0,0,1-2.871-4.759,4.87,4.87,0,0,1-.472-2.439,1.664,1.664,0,0,1,.551-1.141l1.337-1.337A.827.827,0,0,1,45,71.632a.751.751,0,0,1,.551.275l.708.708a3.735,3.735,0,0,0,.393.393l1.1,1.1a.924.924,0,0,1,.275.551.824.824,0,0,1-.275.55l-.354.354-.984.983-.039.039a.862.862,0,0,0-.236.984v.039a9.075,9.075,0,0,0,1.3,2.124A14.588,14.588,0,0,0,51.019,83a3.279,3.279,0,0,0,.511.275,3.618,3.618,0,0,1,.393.2l.039.039a.9.9,0,0,0,1.1-.2l1.377-1.377a.65.65,0,0,1,1.062,0l2.2,2.2a.745.745,0,0,1,0,1.141" transform="translate(3.749 -9.919)" fill="#fff"/>
  </g>
</svg>
