<svg xmlns="http://www.w3.org/2000/svg" xmlns:xlink="http://www.w3.org/1999/xlink" width="357.608" height="261.119" viewBox="0 0 357.608 261.119">
  <defs>
    <linearGradient id="linear-gradient" x1="0.5" x2="0.5" y2="1" gradientUnits="objectBoundingBox">
      <stop offset="0" stop-color="#ececec"/>
      <stop offset="1" stop-color="#fff"/>
    </linearGradient>
  </defs>
  <g id="Group_70436" data-name="Group 70436" transform="translate(-740.803 -178.046)">
    <path id="Path_109387" data-name="Path 109387" d="M-1666.432,3246.665s-30.917-36.438,13.4-76.63,107.179,10.306,155.616-72.14,162.83-52.559,162.83,44.315c-1.031,52.559-23.7,104.455-23.7,104.455Z" transform="translate(2433 -2808)" fill="url(#linear-gradient)"/>
    <g id="Group_70435" data-name="Group 70435" transform="translate(750.917 220.576)">
      <g id="Group_70434" data-name="Group 70434" transform="translate(0 0)">
        <path id="Path_109381" data-name="Path 109381" d="M-1482.755,3081.387v217.6" transform="translate(1556.595 -3081.387)" fill="none" stroke="#000" stroke-width="1"/>
        <g id="Group_70428" data-name="Group 70428" transform="translate(0 0)">
          <path id="Path_109368" data-name="Path 109368" d="M2668.542,2633.5v38.9H2568.477l-17.147-19.451,17.147-19.451Z" transform="translate(-2551.33 -2591.572)" fill="#ffd800" stroke="#000" stroke-miterlimit="10" stroke-width="1"/>
          <path id="Path_109369" data-name="Path 109369" d="M2747.942,2832.317l-24.422,6.484-27.015-19.01L2672.3,2802.76l-26.8-18.855L2667.329,2753l4.97,3.466,24.206,16.875,48.628,33.906Z" transform="translate(-2604.524 -2659.419)" fill="#fff" stroke="#000" stroke-miterlimit="10" stroke-width="1"/>
          <path id="Path_109371" data-name="Path 109371" d="M2664.6,3136.716h-7.349s3.942-14.3,9.294-13.507C2673.135,3124.181,2668.6,3133.15,2664.6,3136.716Z" transform="translate(-2611.195 -2918.844)" fill="#c8c8c8"/>
          <path id="Path_109373" data-name="Path 109373" d="M2792.7,3141.625H2777.25s6.808-10.806,11.13-9.725S2792.7,3141.625,2792.7,3141.625Z" transform="translate(-2679.326 -2923.753)" fill="#c8c8c8"/>
          <path id="Path_109374" data-name="Path 109374" d="M2821.32,3148.927H2813s2.918-4.647,5.511-4.215S2821.32,3148.927,2821.32,3148.927Z" transform="translate(-2699.624 -2931.054)" fill="#c8c8c8"/>
          <path id="Path_109375" data-name="Path 109375" d="M2707.5,2724v15.993" transform="translate(-2639.726 -2642.954)" fill="none" stroke="#000" stroke-miterlimit="10" stroke-width="1"/>
          <path id="Path_109376" data-name="Path 109376" d="M2707.5,2868v4.54l.518,70.178" transform="translate(-2639.726 -2724.711)" fill="none" stroke="#000" stroke-miterlimit="10" stroke-width="1"/>
          <path id="Path_109377" data-name="Path 109377" d="M2707.5,2578.644v-33.789a8.413,8.413,0,0,1,8.321-8.355h8a8.053,8.053,0,0,1,7.888,8.355v33.789" transform="translate(-2639.726 -2536.5)" fill="none" stroke="#000" stroke-miterlimit="10" stroke-width="1"/>
          <path id="Path_109378" data-name="Path 109378" d="M2763.5,2965.51V2908" transform="translate(-2671.52 -2747.421)" fill="none" stroke="#000" stroke-miterlimit="10" stroke-width="1"/>
          <path id="Path_109379" data-name="Path 109379" d="M2763.5,2724v32.851" transform="translate(-2671.52 -2642.954)" fill="none" stroke="#000" stroke-miterlimit="10" stroke-width="1"/>
          <path id="Path_109386" data-name="Path 109386" d="M2747.941,2832.317l-24.422,6.483-27.015-19.01L2672.3,2802.76l-26.8-18.854,21.829-30.9,4.97,3.466,24.206,16.875,48.628,33.905Z" transform="translate(-2607.554 -2659.196)" fill="#e3e3e3" style="mix-blend-mode: multiply;isolation: isolate"/>
          <path id="Path_109372" data-name="Path 109372" d="M2715.075,3132.366h-13.184s-3.782-15.345,1.945-16.75,6.916,12.211,6.916,12.211,5.161-10.521,10.374-8.1C2725.557,3121.776,2717.128,3132.366,2715.075,3132.366Z" transform="translate(-2635.845 -2914.493)" fill="#c8c8c8"/>
        </g>
        <text id="_404" data-name="404" transform="translate(41.298 66.796)" font-size="16" font-family="Poppins-Medium, Poppins" font-weight="500"><tspan x="0" y="0">404</tspan></text>
        <path id="Path_109382" data-name="Path 109382" d="M-1403.378,3256.583l-12.737-8.568" transform="translate(1544.719 -3102.322)" fill="none" stroke="#000" stroke-width="1"/>
      </g>
      <path id="Path_109385" data-name="Path 109385" d="M-1442.89,3401.824h349.134" transform="translate(1432.777 -3183.736)" fill="none" stroke="#000" stroke-width="1"/>
    </g>
    <g id="Group_70346" data-name="Group 70346" transform="translate(948.615 392.161)">
      <g id="Group_70345" data-name="Group 70345" transform="translate(0 0)">
        <path id="Path_109277" data-name="Path 109277" d="M-351.521,546.66l5.268-7.657-18.312-12.35-8.027,6.916,12.292,14.325Z" transform="translate(372.592 -526.654)" fill="#fff" stroke="#000" stroke-width="1"/>
      </g>
    </g>
    <g id="Group_70348" data-name="Group 70348" transform="translate(1005.056 404.511)">
      <g id="Group_70347" data-name="Group 70347" transform="translate(0 0)">
        <path id="Path_109278" data-name="Path 109278" d="M-316.779,540.046l-.251,13.337,23.579-.247-1-14.325Z" transform="translate(317.03 -538.811)" fill="#fff" stroke="#000" stroke-width="1"/>
      </g>
    </g>
    <g id="Group_70350" data-name="Group 70350" transform="translate(972.069 409.416)">
      <g id="Group_70349" data-name="Group 70349" transform="translate(0 0)">
        <path id="Path_109279" data-name="Path 109279" d="M-348.719,572.513a.943.943,0,0,1-.77-1.113c.43-2.542,1.958-9.645,5.978-12.659,4.941-3.7,15.294-5.187,19.059-7.657s7.977-8.432,10.223-7.3,6.482,6.316,12.6,5.575,8.94-2.223,10.588-.741,2.588,22.229,1.882,23.464-9.11.218-10.073.293.037-.052-3.8,0a50.386,50.386,0,0,0-5.322.168C-310.694,572.54-342.55,573.34-348.719,572.513Z" transform="translate(349.503 -543.639)" fill="#fff" stroke="#000" stroke-width="1"/>
      </g>
    </g>
    <g id="Group_70352" data-name="Group 70352" transform="translate(990.078 274.348)">
      <g id="Group_70351" data-name="Group 70351" transform="translate(0 0)">
        <path id="Path_109280" data-name="Path 109280" d="M-331.775,467.481l2.878-56.56,35.253-.247a166.589,166.589,0,0,1,5.516,28.651c1.2,14.078,4.316,103.488,3.837,104.723s-39.569,2.717-41.967,1.235S-331.775,467.481-331.775,467.481Z" transform="translate(331.775 -410.674)"/>
      </g>
    </g>
    <g id="Group_70354" data-name="Group 70354" transform="translate(910.075 390.853)">
      <g id="Group_70353" data-name="Group 70353" transform="translate(0 0)">
        <path id="Path_109281" data-name="Path 109281" d="M-410.237,533.885a.931.931,0,0,1-.01-1.351c1.806-1.866,7.127-6.9,12.2-7.153,6.241-.315,15.743,4.227,20.3,4.279s11.472-2.539,12.708-.352,1.825,8.843,7.364,11.637,8.742,3.142,9.276,5.286-10.488,19.852-11.781,20.482-7.87-4.874-8.592-5.37-1.474-1.207-3.38-2.466c-1.812-1.2-4.63-2.722-4.63-2.722C-378.834,555.032-405.549,538.008-410.237,533.885Z" transform="translate(410.532 -525.365)" fill="#fff" stroke="#000" stroke-width="1"/>
      </g>
    </g>
    <g id="Group_70356" data-name="Group 70356" transform="translate(945.707 274.101)">
      <g id="Group_70355" data-name="Group 70355" transform="translate(0 0)">
        <path id="Path_109282" data-name="Path 109282" d="M-334.442,410.431s-41.489,112.38-41.009,114.849,32.136,20.006,34.054,20.006,15.828-25.44,15.828-25.44l1.678-109.169Z" transform="translate(375.455 -410.431)"/>
      </g>
    </g>
    <g id="Group_70359" data-name="Group 70359" transform="translate(977.821 378.555)">
      <path id="Path_109285" data-name="Path 109285" d="M-371.84,537.982a.466.466,0,0,1-.392-.214l-4.965-7.64a.466.466,0,0,1,.137-.646.468.468,0,0,1,.646.138l4.967,7.64a.468.468,0,0,1-.138.646A.469.469,0,0,1-371.84,537.982Z" transform="translate(377.273 -529.407)"/>
    </g>
    <g id="Group_70361" data-name="Group 70361" transform="translate(1016.488 282.344)">
      <path id="Path_109287" data-name="Path 109287" d="M-295.4,427.087c-6.395,0-10.3-7.942-10.342-8.03a.356.356,0,0,1,.168-.476.356.356,0,0,1,.475.167c.044.091,4.466,9.061,11.386,7.426a.357.357,0,0,1,.431.265.357.357,0,0,1-.265.429A8.005,8.005,0,0,1-295.4,427.087Z" transform="translate(305.776 -418.545)" fill="#fff"/>
    </g>
    <g id="Group_70362" data-name="Group 70362" transform="translate(987.449 289.27)">
      <path id="Path_109288" data-name="Path 109288" d="M-328.655,524.478a.361.361,0,0,1-.357-.374l4.364-91.777-9.556-6.308a.357.357,0,0,1-.1-.494.356.356,0,0,1,.495-.1l9.724,6.419a.356.356,0,0,1,.159.315l-4.373,91.98A.358.358,0,0,1-328.655,524.478Z" transform="translate(334.363 -425.363)" fill="#fff"/>
    </g>
    <g id="Group_70363" data-name="Group 70363" transform="translate(984.464 213.596)">
      <path id="Path_109289" data-name="Path 109289" d="M-317.089,351.613s-9.659.439-13.488,8.177-6.725,53.861-6.725,53.861,10.71,4.734,26.339,4.53,20.916-4.254,20.916-4.254l3.007-28.443s-1.256-29.978-5.152-32.081S-310.621,349.95-317.089,351.613Z" transform="translate(337.302 -350.867)" fill="#ffd800"/>
    </g>
    <g id="Group_70364" data-name="Group 70364" transform="translate(1002.489 178.046)">
      <path id="Path_109290" data-name="Path 109290" d="M-317.292,327.421s-4.91-9.507-.272-11.215,9.736,3.652,9.736,3.652,10.053,1.491,13.574,7.131-6.48,14.565-6.48,14.565Z" transform="translate(319.557 -315.87)"/>
    </g>
    <g id="Group_70366" data-name="Group 70366" transform="translate(1006.776 205.677)">
      <g id="Group_70365" data-name="Group 70365" transform="translate(0 0)">
        <path id="Path_109291" data-name="Path 109291" d="M-302.716,343.072l.027,9.345s-1.677,2.691-7.143,3.152c-4.072.342-5.506-.574-5.506-.574l.554-4.735.547-4.618,9.867-2.2Z" transform="translate(315.337 -343.072)" fill="#fff" stroke="#000" stroke-width="1"/>
      </g>
    </g>
    <g id="Group_70368" data-name="Group 70368" transform="translate(1007.329 206.048)">
      <g id="Group_70367" data-name="Group 70367" transform="translate(0 0)">
        <path id="Path_109292" data-name="Path 109292" d="M-304.379,343.437a3.087,3.087,0,0,1-.269.9c-2.077,4.674-7.791,5.7-10.144,5.915l.547-4.618Z" transform="translate(314.792 -343.437)"/>
      </g>
    </g>
    <g id="Group_70370" data-name="Group 70370" transform="translate(1002.35 183.469)">
      <g id="Group_70369" data-name="Group 70369" transform="translate(0 0)">
        <path id="Path_109293" data-name="Path 109293" d="M-316.313,324.693s-4.871,11.732-2.918,18.236,7.891,5.365,11.432,4.036a11.792,11.792,0,0,0,5.154-3.545,5.027,5.027,0,0,0,5.521-2.069c2.17-3.138.732-6.668-1.183-7.447s-4.152.634-4.152.634l1.71-3.414S-308.521,314.072-316.313,324.693Z" transform="translate(319.694 -321.209)" fill="#fff" stroke="#000" stroke-width="1"/>
      </g>
    </g>
    <g id="Group_70371" data-name="Group 70371" transform="translate(1019.587 198.073)">
      <path id="Path_109294" data-name="Path 109294" d="M-302.368,339.339a.356.356,0,0,1-.289-.147.357.357,0,0,1,.08-.5l4.2-3.04a.358.358,0,0,1,.5.08.357.357,0,0,1-.08.5l-4.2,3.039A.358.358,0,0,1-302.368,339.339Z" transform="translate(302.726 -335.586)"/>
    </g>
    <g id="Group_70372" data-name="Group 70372" transform="translate(1020.649 200.344)">
      <path id="Path_109295" data-name="Path 109295" d="M-298.547,339.241a.379.379,0,0,1-.088-.011l-2.774-.7a.358.358,0,0,1-.259-.434.361.361,0,0,1,.435-.259l2.774.7a.357.357,0,0,1,.258.435A.356.356,0,0,1-298.547,339.241Z" transform="translate(301.68 -337.822)"/>
    </g>
    <g id="Group_70373" data-name="Group 70373" transform="translate(1003.887 180.937)">
      <path id="Path_109296" data-name="Path 109296" d="M-317.313,327.376a3.943,3.943,0,0,1,3.34-1.9,5.043,5.043,0,0,1,3.7,1.615s-1.011,3.929,2.166,6.005,5.627,1.485,5.627,1.485l2.3-.826,1.677-3.365-6.673-7.149-8.623-4.519-4.376,4Z" transform="translate(318.181 -318.717)"/>
    </g>
    <g id="Group_70374" data-name="Group 70374" transform="translate(1014.218 178.556)">
      <path id="Path_109297" data-name="Path 109297" d="M-308.011,319.85s.288-5.173,5.727-2.9,5.016,9.328,5.016,9.328Z" transform="translate(308.011 -316.373)"/>
    </g>
    <g id="Group_70375" data-name="Group 70375" transform="translate(987.762 196.911)">
      <path id="Path_109298" data-name="Path 109298" d="M-334.055,353.846s6.005-19.7,8.506-19.4,7.477,5.3,8.491,7.136a5.325,5.325,0,0,1,0,4.17s.987,1.237,0,2.036-3.821-.9-3.821-.9,2.5,12.535-4.836,14.036S-334.055,353.846-334.055,353.846Z" transform="translate(334.055 -334.442)" fill="#fff" stroke="#000" stroke-width="1"/>
    </g>
    <g id="Group_70376" data-name="Group 70376" transform="translate(970.025 213.597)">
      <path id="Path_109299" data-name="Path 109299" d="M-330.043,389.451a58.95,58.95,0,0,0,4.39-12.492c1.414-6.594,3.382-16.438,3.382-16.438l-12.975-9.652s-10.834,16.568-14.61,32.385-.975,20.651,7.087,19.675C-333.218,401.77-330.043,389.451-330.043,389.451Z" transform="translate(351.515 -350.868)" fill="#ffd800"/>
    </g>
    <g id="Group_70377" data-name="Group 70377" transform="translate(967.946 247.307)">
      <path id="Path_109300" data-name="Path 109300" d="M-328.84,390.65l-4.047,15.672c-3.221,0-11.9-.115-14.64-1.376-3.394-1.559-3.841-3.679-3.841-3.679s-2.327-2.213-2.189-3.4,1.456-6.6,1.456-6.6-1.88-4.448-.161-4.689,4.678-.642,4.678-.642,5.548-2.43,7.945-1.753,8.769,6.546,8.769,6.546Z" transform="translate(353.563 -384.054)" fill="#fff" stroke="#000" stroke-width="1"/>
    </g>
    <g id="Group_70378" data-name="Group 70378" transform="translate(1006.054 214.124)">
      <path id="Path_109301" data-name="Path 109301" d="M-310.785,355.769c-3.624,0-5.029-.848-5.094-.89a.355.355,0,0,1-.114-.492.354.354,0,0,1,.492-.113c.015.008,1.774,1.037,6.476.717a9.326,9.326,0,0,0,6.857-3.45.358.358,0,0,1,.5-.095.357.357,0,0,1,.1.5,9.868,9.868,0,0,1-7.4,3.761C-309.633,355.75-310.235,355.769-310.785,355.769Z" transform="translate(316.048 -351.387)"/>
    </g>
    <g id="Group_70383" data-name="Group 70383" transform="translate(987.762 215.865)">
      <path id="Path_109306" data-name="Path 109306" d="M-331.233,389.748l-2.822,19.075s41.648,12.077,50.452-9.142c8.837-21.3-1.254-42.739-8.641-46.314s-14.708,30.061-14.708,30.061Z" transform="translate(334.055 -353.101)" fill="#ffd800"/>
    </g>
    <g id="Group_70384" data-name="Group 70384" transform="translate(986.474 249.82)">
      <rect id="Rectangle_23128" data-name="Rectangle 23128" width="8.399" height="23.439" rx="1.605" transform="translate(2.63 0) rotate(6.442)" fill="#ffd800" stroke="#000" stroke-width="1"/>
    </g>
    <g id="Group_70385" data-name="Group 70385" transform="translate(980.957 212.299)">
      <rect id="Rectangle_23129" data-name="Rectangle 23129" width="8.399" height="20.767" rx="1.518" transform="matrix(0.559, -0.829, 0.829, 0.559, 0, 6.965)" fill="#ffd800" stroke="#000" stroke-width="1"/>
    </g>
    <g id="Group_70386" data-name="Group 70386" transform="translate(1003.583 244.481)">
      <path id="Path_109307" data-name="Path 109307" d="M-318.122,387.365a.356.356,0,0,1-.321-.2.357.357,0,0,1,.165-.477c.094-.046,9.589-4.627,18.927-5.413a.356.356,0,0,1,.385.325.356.356,0,0,1-.325.386c-9.206.775-18.58,5.3-18.675,5.344A.356.356,0,0,1-318.122,387.365Z" transform="translate(318.48 -381.272)"/>
    </g>
    <g id="Group_70387" data-name="Group 70387" transform="translate(1014.508 241.211)">
      <path id="Path_109308" data-name="Path 109308" d="M-307.368,383.39a.356.356,0,0,1-.288-.146.357.357,0,0,1,0-.415c.328-.467,3.267-4.564,5.438-4.767a1.513,1.513,0,0,1,1.245.428,1.1,1.1,0,0,1,.357,1.093c-.427,1.78-5.608,3.471-6.642,3.792A.341.341,0,0,1-307.368,383.39Zm5.318-4.624c-.035,0-.07,0-.106.005-1.249.118-3.112,2.143-4.237,3.559,2.178-.774,4.86-2,5.078-2.915a.407.407,0,0,0-.16-.416A.786.786,0,0,0-302.051,378.766Z" transform="translate(307.726 -378.053)"/>
    </g>
    <g id="Group_70388" data-name="Group 70388" transform="translate(993.83 399.106)">
      <path id="Path_109309" data-name="Path 109309" d="M-327.724,535.9a.357.357,0,0,1-.357-.343.357.357,0,0,1,.342-.372l43.425-1.691a.364.364,0,0,1,.37.344.355.355,0,0,1-.342.371L-327.71,535.9Z" transform="translate(328.081 -533.49)" fill="#fff"/>
    </g>
    <g id="Group_70389" data-name="Group 70389" transform="translate(947.656 381.095)">
      <path id="Path_109310" data-name="Path 109310" d="M-336.545,536.177a.361.361,0,0,1-.169-.043l-36.635-19.7a.357.357,0,0,1-.145-.484.358.358,0,0,1,.484-.145l36.635,19.7a.357.357,0,0,1,.145.483A.359.359,0,0,1-336.545,536.177Z" transform="translate(373.537 -515.759)" fill="#fff"/>
    </g>
    <line id="Line_678" data-name="Line 678" x2="5" y2="1" transform="translate(969.5 254.5)" fill="none" stroke="#000" stroke-linecap="round" stroke-width="1"/>
    <path id="Path_114307" data-name="Path 114307" d="M-.212-.092,5.321,2.085" transform="translate(975.5 248.82)" fill="none" stroke="#000" stroke-linecap="round" stroke-width="1"/>
    <path id="Path_114308" data-name="Path 114308" d="M-.212-.092,3.221,1.785" transform="matrix(0.995, -0.105, 0.105, 0.995, 1001.297, 204.055)" fill="none" stroke="#000" stroke-linecap="round" stroke-width="1"/>
    <path id="Path_114309" data-name="Path 114309" d="M-.212-.092,3.747.846" transform="matrix(1, -0.017, 0.017, 1, 999.119, 200.948)" fill="none" stroke="#000" stroke-linecap="round" stroke-width="1"/>
  </g>
</svg>
