<svg width="54" height="46" viewBox="0 0 54 46" fill="none" xmlns="http://www.w3.org/2000/svg">
<path id="Vector" d="M42.0759 36.3939C55.2682 36.3939 54.6686 23.5972 49.8714 21.4644C51.9701 12.0192 43.8749 9.88642 39.9772 11.1051C37.2787 -4.73863 20.1888 0.745893 19.5891 9.27703C10.5944 7.14426 7.29631 15.6754 9.39508 19.3316C4.75861 19.3316 1 23.1511 1 27.8628C1 32.5744 4.75861 36.3939 9.39508 36.3939H15.6914M21.3965 28.6111H33.0505M21.3965 33.9654H33.0505M21.3965 39.3197H33.0505M35.3896 43.1111H39.1986V19H22.1126L22.1628 23.2222M19.0654 23.2222H35.3896V45H19.0654V23.2222Z" stroke="black" stroke-width="1.5" stroke-linecap="round" stroke-linejoin="round"/>
</svg>
