<svg id="icon_hand" xmlns="http://www.w3.org/2000/svg" width="26" height="26.172" viewBox="0 0 26 26.172">
  <g id="Group_95358" data-name="Group 95358">
    <rect id="Rectangle_26136" data-name="Rectangle 26136" width="26" height="26" transform="translate(0 0.172)" fill="none"/>
  </g>
  <g id="Group_95361" data-name="Group 95361" transform="translate(1.09)">
    <g id="Group_95360" data-name="Group 95360">
      <g id="Group_95359" data-name="Group 95359">
        <path id="Path_94854" data-name="Path 94854" d="M24.991,6V21.81a4.375,4.375,0,0,1-4.362,4.362H12.668a4.355,4.355,0,0,1-3.108-1.3L1,16.172s1.374-1.341,1.418-1.363a1.292,1.292,0,0,1,.861-.316,1.332,1.332,0,0,1,.654.174c.044.011,4.7,2.683,4.7,2.683V4.362a1.636,1.636,0,0,1,3.271,0V12H13V1.636a1.636,1.636,0,0,1,3.271,0V12h1.09V2.726a1.636,1.636,0,0,1,3.271,0V12h1.09V6a1.636,1.636,0,0,1,3.271,0Z" transform="translate(-1)" fill="#fff"/>
      </g>
    </g>
  </g>
</svg>
