<svg xmlns="http://www.w3.org/2000/svg" width="26.34" height="26.34" viewBox="0 0 26.34 26.34">
  <g id="Screenshot-2022-08-29-at-5.47.38-PM" transform="translate(-133 588)">
    <path id="Path_108352" data-name="Path 108352" d="M133-583.968v4.032h4.924l1.226,1.409,1.231,1.409.2-.242c.113-.129.656-.758,1.215-1.392l1.011-1.156,1.575-.016,1.387.016v-8.064l-6.3-.027H133Zm9.731,0v.806h-6.505v-1.613h6.505Z" fill="#fff"/>
    <path id="Path_108353" data-name="Path 108353" d="M404.193-583.941v4.032l1.382-.016,1.57.016,1.011,1.156c.559.634,1.1,1.263,1.215,1.392l.2.242,1.231-1.409,1.226-1.409h4.924V-588h-6.478l-6.285.027Zm9.537-.027v.806h-6.505v-1.613h6.505Z" transform="translate(-257.616)" fill="#fff"/>
    <path id="Path_108354" data-name="Path 108354" d="M219.472-338.813a2.907,2.907,0,0,0-2.118,3.2,3.064,3.064,0,0,0,.806,1.6,2.7,2.7,0,0,0,1.349.769,2.877,2.877,0,0,0,3.473-2.021,3.413,3.413,0,0,0,.005-1.511,2.967,2.967,0,0,0-2.054-2.038A3.62,3.62,0,0,0,219.472-338.813Z" transform="translate(-80.037 -236.448)" fill="#fff"/>
    <path id="Path_108355" data-name="Path 108355" d="M454.3-338.813a2.93,2.93,0,0,0-2.086,2.2,2.4,2.4,0,0,0-.005,1.156,2.872,2.872,0,0,0,4.166,1.962,3.011,3.011,0,0,0,1.409-1.688,3.366,3.366,0,0,0,.016-1.618,2.955,2.955,0,0,0-2.038-2.016A3.62,3.62,0,0,0,454.3-338.813Z" transform="translate(-302.914 -236.448)" fill="#fff"/>
    <path id="Path_108356" data-name="Path 108356" d="M188.15-211.2a3.6,3.6,0,0,0-1.8,1.758c-.328.694-.355.935-.355,3.258v2.064h9.247v-2.134a13.492,13.492,0,0,0-.086-2.484,3.66,3.66,0,0,0-2-2.441l-.452-.22-.247.1-1.5.363.338,2.8-.677.934-.721-.934.394-2.769a3.825,3.825,0,0,1-1.2-.249c-.237-.086-.468-.167-.511-.188A1.079,1.079,0,0,0,188.15-211.2Z" transform="translate(-50.151 -357.539)" fill="#fff"/>
    <path id="Path_108357" data-name="Path 108357" d="M422.07-210.479a3.663,3.663,0,0,0-1.984,2.43,13.493,13.493,0,0,0-.086,2.484v2.134h9.247v-2.043c0-2.3-.032-2.586-.349-3.269a3.824,3.824,0,0,0-2.005-1.865c-.226-.091-.231-.091-.554.054a5.326,5.326,0,0,1-.817.247,4.221,4.221,0,0,1-2.4-.172c-.253-.091-.495-.177-.538-.188A1.478,1.478,0,0,0,422.07-210.479Z" transform="translate(-272.756 -358.228)" fill="#fff"/>
  </g>
</svg>
