<svg xmlns="http://www.w3.org/2000/svg" width="26.339" height="26.861" viewBox="0 0 26.339 26.861">
  <g id="icon_call" transform="translate(0 1.207)">
    <g id="Group_67" data-name="Group 67" transform="translate(0 0)">
      <g id="Group_64" data-name="Group 64" transform="translate(0 0)">
        <path id="Path_73" data-name="Path 73" d="M-260.418,355.1c.85,0,1.7-.038,2.55.01,1,.056,1.391.551,1.518,1.519.206,1.567.468,3.129.76,4.682a1.9,1.9,0,0,1-.573,1.977c-.85.763-1.622,1.606-2.463,2.379a.754.754,0,0,0-.192,1.105,22.258,22.258,0,0,0,8.784,8.493,1.141,1.141,0,0,0,1.013-.14,34.538,34.538,0,0,0,2.54-2.443,2.007,2.007,0,0,1,2.034-.531q2.393.428,4.808.733c.982.123,1.5.517,1.532,1.5.045,1.622.051,3.248,0,4.87-.034,1.1-.587,1.489-1.844,1.475a24.809,24.809,0,0,1-23.124-16.363,23.625,23.625,0,0,1-1.335-7.394c-.022-1.422.391-1.857,1.849-1.889.714-.016,1.429,0,2.143,0Z" transform="translate(264.41 -355.08)" fill="#fff"/>
      </g>
      <g id="Group_65" data-name="Group 65" transform="translate(12.284 0)">
        <path id="Polygon_1" data-name="Polygon 1" d="M5.349,0,10.7,5.35H0Z" transform="translate(0 10.699) rotate(-90)" fill="#fff"/>
        <path id="Polygon_1_-_Outline" data-name="Polygon 1 - Outline" d="M5.349-.707,11.907,5.85H-1.207ZM9.492,4.85,5.349.707,1.207,4.85Z" transform="translate(0 10.699) rotate(-90)" fill="#fff"/>
        <path id="Path_80" data-name="Path 80" d="M-1550.892,1580.453l-.014-1c-.031-2.193-.629-3.736-1.778-4.587-1.9-1.4-4.841-.6-4.87-.6l-.96.278-.557-1.921.96-.278c.158-.046,3.9-1.1,6.617.91,1.677,1.242,2.547,3.317,2.587,6.166l.014,1Z" transform="translate(1562.391 -1567.96)" fill="#fff"/>
      </g>
    </g>
  </g>
</svg>
