<svg xmlns="http://www.w3.org/2000/svg" width="26.34" height="26.34" viewBox="0 0 26.34 26.34">
  <path id="Icon_ionic-logo-whatsapp" data-name="Icon ionic-logo-whatsapp" d="M15.659,2.25A12.881,12.881,0,0,0,2.728,15.081a12.7,12.7,0,0,0,1.856,6.625L2.25,28.59l7.159-2.274A12.953,12.953,0,0,0,28.59,15.081,12.881,12.881,0,0,0,15.659,2.25Zm6.43,17.7A3.34,3.34,0,0,1,19.8,21.428c-.606.032-.624.47-3.93-.966s-5.295-4.93-5.451-5.155A6.341,6.341,0,0,1,9.2,11.87a3.664,3.664,0,0,1,1.258-2.688,1.266,1.266,0,0,1,.9-.377c.26,0,.429-.008.622,0s.482-.04.732.626.849,2.3.926,2.469a.6.6,0,0,1,.006.574,2.246,2.246,0,0,1-.35.534c-.173.185-.363.414-.517.556-.172.157-.351.328-.171.663a9.9,9.9,0,0,0,1.751,2.336,9.022,9.022,0,0,0,2.593,1.724c.324.177.518.157.719-.055s.861-.926,1.093-1.245.45-.257.749-.137S21.4,17.822,21.722,18s.54.266.618.406A2.715,2.715,0,0,1,22.089,19.954Z" transform="translate(-2.25 -2.25)" fill="#fff"/>
</svg>
