<svg width="27" height="27" viewBox="0 0 27 27" fill="none" xmlns="http://www.w3.org/2000/svg">
<g clip-path="url(#clip0_18_538)">
<path d="M7.68869 4.81247C7.71193 3.97485 8.32076 3.4093 8.97758 3.27291C9.09904 3.24792 9.22501 3.23507 9.34947 3.23435C9.89757 3.23007 10.4457 3.23292 10.9945 3.23292C11.0178 3.09868 11.0305 2.968 11.0635 2.84303C11.2487 2.13966 11.9033 1.6548 12.6621 1.65266C13.2146 1.65195 13.768 1.65266 14.3206 1.65266C15.2293 1.65266 15.9499 2.31319 15.9874 3.17937C15.9874 3.19151 15.9904 3.20365 15.9941 3.23221C16.0384 3.23221 16.0841 3.23221 16.1298 3.23221C16.6269 3.23221 17.1233 3.23221 17.6204 3.23221C18.5457 3.23292 19.2557 3.87488 19.3052 4.75463C19.306 4.77034 19.3097 4.78534 19.3134 4.81176C19.3592 4.81176 19.4012 4.81176 19.4439 4.81176C20.2259 4.81176 21.0072 4.81176 21.7893 4.81176C22.7175 4.81319 23.4523 5.51013 23.4523 6.39131C23.4523 12.1754 23.4523 17.9594 23.4523 23.7435C23.4523 24.6611 22.7302 25.3473 21.763 25.3473C16.2386 25.348 10.7133 25.348 5.18888 25.3473C4.28913 25.3473 3.54834 24.6404 3.54834 23.7835C3.54834 17.9873 3.54834 12.1911 3.54834 6.39416C3.54834 5.51084 4.28089 4.81319 5.20763 4.81176C5.98516 4.81104 6.76269 4.81176 7.54023 4.81176C7.58671 4.81176 7.6332 4.81176 7.68944 4.81176L7.68869 4.81247ZM15.9799 11.1314C17.0768 11.1314 18.173 11.1335 19.27 11.1307C19.8338 11.1292 20.2222 10.6829 20.1105 10.1709C20.0302 9.80176 19.6883 9.55112 19.2587 9.55112C17.9286 9.5504 16.5992 9.55112 15.2691 9.55112C14.4098 9.55112 13.5506 9.54826 12.6913 9.55183C12.1334 9.55469 11.7481 10.0117 11.8658 10.523C11.9482 10.8829 12.2932 11.1307 12.7153 11.1307C13.8032 11.1314 14.8912 11.1307 15.9791 11.1307L15.9799 11.1314ZM15.9784 15.8707C17.0753 15.8707 18.1715 15.8722 19.2685 15.8707C19.8323 15.87 20.2184 15.4273 20.1105 14.9124C20.034 14.5497 19.6928 14.2926 19.273 14.2919C18.2105 14.2898 17.1488 14.2912 16.0863 14.2912C14.9594 14.2912 13.8325 14.2898 12.7055 14.2912C12.1364 14.2926 11.7473 14.7453 11.865 15.2616C11.9467 15.6208 12.2917 15.87 12.7138 15.8707C13.8017 15.8722 14.8897 15.8707 15.9776 15.8707H15.9784ZM15.9874 19.0298C15.9266 19.0298 15.8667 19.0298 15.8059 19.0298C14.7697 19.0298 13.7335 19.0277 12.6973 19.0305C12.0952 19.032 11.6918 19.5675 11.8935 20.091C12.0165 20.4094 12.3254 20.6094 12.71 20.6094C13.9577 20.6108 15.2053 20.6101 16.4537 20.6101C17.3947 20.6101 18.3365 20.613 19.2775 20.6094C19.8346 20.6072 20.2184 20.1638 20.112 19.6554C20.0347 19.2855 19.6928 19.0305 19.2655 19.0298C18.173 19.0284 17.0806 19.0298 15.9881 19.0298H15.9874ZM10.1817 10.3523C10.1892 9.48899 9.4447 8.76848 8.53745 8.76206C7.62795 8.75492 6.87441 9.45971 6.86392 10.3245C6.85417 11.1935 7.60096 11.9169 8.51421 11.9219C9.42145 11.9269 10.1742 11.2185 10.1817 10.353V10.3523ZM8.5217 16.6605C9.43645 16.6605 10.1847 15.9443 10.1817 15.0724C10.1787 14.2091 9.42595 13.4971 8.51796 13.5007C7.60996 13.5036 6.86317 14.2176 6.86392 15.0824C6.86542 15.9464 7.61521 16.6612 8.5217 16.6605ZM10.1817 19.8189C10.1817 18.9541 9.4312 18.2401 8.5247 18.2401C7.61071 18.2401 6.86092 18.9577 6.86392 19.8275C6.86692 20.6908 7.62046 21.4027 8.5277 21.3999C9.4357 21.397 10.1825 20.6829 10.1817 19.8182V19.8189Z" fill="white"/>
</g>
<defs>
<clipPath id="clip0_18_538">
<rect width="21" height="25" fill="white" transform="translate(3 1)"/>
</clipPath>
</defs>
</svg>
